<svg version="1.2" xmlns="http://www.w3.org/2000/svg" viewBox="0 0 284 156" width="284" height="156">
	<title>25mne-svg</title>
	<style>
		.s0 { fill: #dddddd } 
	</style>
	<g id="Layer">
		<path id="Layer" class="s0" d="m70.9 100.4h-66.8v-17.4l36.2-31.1c3.1-2.7 5.3-5.3 6.7-7.6 1.4-2.3 2.1-4.8 2.1-7.4 0-2.3-0.6-4.4-1.7-6.1-1.2-1.8-2.7-3.2-4.7-4.2-2-1-4.1-1.5-6.5-1.5-3.5 0-7 1-10.4 3q-5.3 3-9.9 9.9l-14-14c4.4-5.5 9.4-9.7 15.3-12.7 5.8-3 12.5-4.5 20-4.5 6.7 0 12.6 1.3 17.5 3.8 4.9 2.5 8.8 6 11.5 10.4 2.7 4.4 4.1 9.6 4.1 15.4 0 3.8-0.8 7.6-2.3 11.3-1.5 3.7-3.9 7.4-7.1 11.2-3.2 3.8-7.3 7.7-12.3 11.8q-1.8 1.5-4.8 3.9c-2 1.6-4 3.1-6 4.7-2 1.5-3.7 2.8-5.1 3.7h38.1z"/>
		<path id="Layer" class="s0" d="m80.1 72.6c2.7 3.7 5.9 6.5 9.4 8.6 3.5 2 7.5 3.1 12 3.1 3 0 5.7-0.7 8-2 2.3-1.3 4.2-3.1 5.6-5.4 1.4-2.3 2-4.9 2-7.8 0-2.9-0.6-5.4-1.9-7.6-1.2-2.2-3-3.9-5.2-5.1-2.2-1.2-4.8-1.9-7.7-1.9-3 0-5.7 0.6-8.2 1.9-2.5 1.2-4.6 3.1-6.4 5.6l-6.9-0.4c0.6-4.6 2-8.7 4.2-12.4q3.3-5.6 9-8.7c3.8-2.1 8.3-3.2 13.4-3.2 6.1 0 11.6 1.4 16.3 4.1 4.7 2.7 8.3 6.5 10.9 11.3q3.9 7.2 3.9 16.5 0 9.9-4.8 17.4c-3.2 5-7.5 9-13 11.8-5.5 2.8-11.6 4.2-18.4 4.2-7.3 0-13.9-1.3-20-3.8-6.1-2.6-11.5-6.6-16.3-12zm53.8-46.3h-50.8l10.6-12.4-6 48h-18.6l6.7-53h58.1z"/>
		<path id="Layer" fill-rule="evenodd" class="s0" d="m156 25.3c-2.2 0-4.2-0.5-5.9-1.5q-2.7-1.5-4.2-4.2c-1-1.8-1.5-3.7-1.5-5.9 0-2.2 0.5-4.2 1.5-5.9q1.5-2.7 4.2-4.2c1.8-1 3.7-1.5 5.9-1.5q3.3 0 6 1.5c1.7 1 3.1 2.4 4.1 4.2 1 1.8 1.5 3.7 1.5 5.9 0 2.2-0.5 4.2-1.5 5.9-1 1.8-2.4 3.2-4.1 4.2q-2.5 1.5-6 1.5zm-0.4 30.5h-6.1l35.4-53.3h6.1zm0.4-35.1c1.9 0 3.5-0.7 4.7-2 1.2-1.3 1.8-3 1.8-5 0-2-0.6-3.7-1.8-5-1.2-1.3-2.8-2-4.7-2-1.9 0-3.5 0.7-4.7 2-1.2 1.3-1.8 3-1.8 5 0 2 0.6 3.7 1.8 5 1.2 1.3 2.8 2 4.7 2zm28.4 35.6c-2.2 0-4.2-0.5-5.9-1.5q-2.7-1.5-4.2-4.2c-1-1.8-1.5-3.7-1.5-5.9 0-2.2 0.5-4.2 1.5-5.9q1.5-2.7 4.2-4.2c1.8-1 3.7-1.5 5.9-1.5q3.3 0 6 1.5c1.7 1 3.1 2.4 4.1 4.2 1 1.8 1.5 3.7 1.5 5.9 0 2.2-0.5 4.2-1.5 5.9-1 1.8-2.4 3.2-4.1 4.2q-2.7 1.5-6 1.5zm0-4.6c1.9 0 3.5-0.7 4.7-2 1.2-1.3 1.8-3 1.8-5 0-2-0.6-3.7-1.8-5-1.2-1.3-2.8-2-4.7-2-1.9 0-3.5 0.7-4.7 2-1.2 1.3-1.8 3-1.8 5 0 2 0.6 3.7 1.8 5 1.2 1.3 2.7 2 4.7 2z"/>
	</g>
	<g id="Layer">
		<path id="Layer" class="s0" d="m169.6 104.3h-9.8l-13-30.7h10.4l8.5 23.2h-1.8l8.6-23.2h10.2z"/>
		<path id="Layer" class="s0" d="m207.9 94.2l4.9 6.1c-1.5 1.6-3.5 2.8-6.1 3.7-2.6 0.9-5.2 1.3-8.1 1.3-3.7 0-7-0.7-9.8-2-2.8-1.4-4.9-3.3-6.5-5.7-1.5-2.4-2.3-5.3-2.3-8.5 0-3.3 0.7-6.1 2.2-8.6 1.5-2.5 3.5-4.4 6.1-5.8 2.5-1.4 5.4-2 8.5-2 3.1 0 5.8 0.7 8.2 2 2.4 1.3 4.3 3.2 5.7 5.6 1.4 2.4 2 5.2 2 8.3v0.4h-9.9v-1.1c0-1.6-0.2-2.9-0.7-4-0.5-1.1-1.2-2-2.1-2.6q-1.4-0.9-3.3-0.9c-1.3 0-2.4 0.3-3.4 1-1 0.7-1.8 1.6-2.3 2.9-0.6 1.2-0.8 2.8-0.8 4.6 0 2 0.4 3.6 1.1 4.9 0.8 1.3 1.8 2.3 3.2 2.9 1.4 0.6 2.9 1 4.7 1 3.4-0.1 6.3-1.3 8.7-3.5zm5-2.3h-26.7v-5.9h25.7l1 2.6z"/>
		<path id="Layer" class="s0" d="m239.2 92.8l6.1 6.1c-1.7 2-3.7 3.6-6.1 4.7-2.3 1.1-5 1.7-8 1.7q-4.8 0-8.7-2.1c-2.6-1.4-4.6-3.3-6.1-5.8-1.5-2.4-2.2-5.3-2.2-8.4 0-3.2 0.8-6 2.3-8.4 1.5-2.4 3.6-4.4 6.2-5.8 2.6-1.4 5.5-2.1 8.8-2.1 2.9 0 5.5 0.5 7.9 1.6 2.3 1.1 4.3 2.6 6 4.7l-6.1 6.1c-0.8-1.2-1.7-2.1-3-2.9-1.2-0.8-2.6-1.2-4.1-1.2-1.4 0-2.7 0.4-3.8 1.1-1.1 0.7-2 1.7-2.7 2.9-0.7 1.2-1 2.6-1 4.1 0 1.5 0.3 2.9 1 4.1 0.7 1.2 1.6 2.2 2.7 2.9 1.1 0.7 2.4 1.1 3.8 1.1 1.6 0 2.9-0.4 4.1-1.2 1.2-1 2.2-2 2.9-3.2zm5.3-34.3l-9.3 10.5h-8.2l6.9-10.5z"/>
		<path id="Layer" class="s0" d="m252.3 70c-1.6 0-3-0.5-4.1-1.6-1.1-1.1-1.7-2.4-1.7-3.9 0-1.6 0.6-2.9 1.7-4 1.1-1.1 2.5-1.6 4.1-1.6 1.6 0 3 0.5 4.1 1.6 1.1 1.1 1.7 2.4 1.7 4 0 1.6-0.6 2.9-1.7 3.9-1.1 1.1-2.5 1.6-4.1 1.6zm5.1 34.3h-10.2v-30.7h10.2z"/>
		<path id="Layer" class="s0" d="m59.5 120.3v9h-1.9q-2.9 0-4.8 0.9c-1.3 0.6-2.2 1.6-2.9 2.9-0.6 1.3-1 3-1 5.1v13.2h-10.2v-30.7h10.1v10.1h-1.1q0.4-4.3 2.1-6.6c1.1-1.5 2.4-2.6 3.9-3.2 1.5-0.6 2.9-0.9 4.3-0.9h1.5z"/>
		<path id="Layer" class="s0" d="m86.6 141.4l4.9 6.1c-1.5 1.6-3.5 2.8-6.1 3.7-2.5 0.9-5.2 1.3-8.1 1.3-3.7 0-7-0.7-9.8-2-2.8-1.3-4.9-3.3-6.5-5.7-1.5-2.4-2.3-5.3-2.3-8.5 0-3.3 0.7-6.1 2.2-8.6 1.5-2.5 3.5-4.4 6.1-5.8 2.5-1.4 5.4-2 8.5-2 3.1 0 5.8 0.7 8.3 2 2.4 1.3 4.3 3.2 5.7 5.6 1.4 2.4 2 5.2 2 8.3v0.4h-9.9v-1.1c0-1.6-0.2-2.9-0.7-4-0.5-1.1-1.2-2-2.1-2.6q-1.4-0.9-3.3-0.9c-1.3 0-2.4 0.3-3.4 1-1 0.7-1.8 1.6-2.3 2.9-0.6 1.2-0.8 2.8-0.8 4.6 0 2 0.4 3.6 1.1 4.9 0.8 1.3 1.8 2.3 3.2 2.9 1.4 0.6 2.9 1 4.7 1 3.3-0.1 6.2-1.2 8.6-3.5zm5-2.3h-26.6v-5.9h25.7l1 2.6z"/>
		<path id="Layer" class="s0" d="m119.9 151.5h-28v-8.1l14.6-14.6h-14v-8.1h26.8v8.1l-14.6 14.6h15.2z"/>
		<path id="Layer" class="s0" d="m142.8 139l2 1c0 2.5-0.5 4.7-1.4 6.6-0.9 1.9-2.2 3.3-4 4.4-1.8 1.1-3.8 1.6-6.1 1.6-3.5 0-6.3-1.1-8.4-3.2-2.1-2.1-3.1-5.2-3.1-9.2v-19.3h10.2v18.3c0 1.7 0.4 3 1.3 3.8 0.8 0.8 1.9 1.3 3.3 1.3 1 0 2-0.2 2.9-0.7 0.9-0.4 1.6-1.1 2.2-1.8 0.6-0.9 1-1.8 1.1-2.8zm9.9 12.5h-10.1v-5.8l-0.1-1.7v-23.2h10.2z"/>
		<path id="Layer" class="s0" d="m166 151.5h-10.2v-43.4h10.2z"/>
		<path id="Layer" class="s0" d="m189.9 128.9h-21.7v-8.1h21.7zm0.3 22.6h-7.9c-3.2 0-5.5-0.8-7-2.3-1.5-1.5-2.3-3.9-2.3-7v-29h10.2v27c0 1.2 0.2 2 0.7 2.4 0.4 0.5 1.2 0.7 2.3 0.7h4.1v8.2z"/>
		<path id="Layer" class="s0" d="m203.6 152.5c-2.4 0-4.5-0.4-6.3-1.3q-2.7-1.4-4.2-3.6-1.5-2.3-1.5-5.4c0-2.1 0.6-3.9 1.9-5.4 1.2-1.5 3-2.6 5.4-3.5 2.3-0.8 5.1-1.2 8.2-1.2h6.5v6.1h-5.9c-1.8 0-3.2 0.3-4.2 1-1 0.6-1.5 1.5-1.5 2.5q0 1.5 1.2 2.4c0.8 0.6 1.9 0.9 3.2 0.9 1.2 0 2.4-0.3 3.4-0.8 1-0.6 1.9-1.3 2.6-2.3 0.7-1 1.1-2 1.2-3.3l2.6 1.1c0 2.5-0.5 4.7-1.5 6.7-1 1.9-2.5 3.4-4.3 4.4-2.1 1.2-4.3 1.7-6.8 1.7zm18.7-1h-9.1v-6.3l-0.5-0.5v-11.6c0-1.9-0.6-3.3-1.8-4.3-1.2-1-2.9-1.4-5-1.4-1.6 0-3.1 0.3-4.6 0.8-1.4 0.6-2.7 1.4-3.8 2.4l-4.8-6c1.6-1.5 3.6-2.7 6.1-3.5 2.4-0.9 5-1.3 7.7-1.3 3.2 0 6 0.5 8.3 1.5 2.4 1 4.3 2.5 5.6 4.4 1.3 1.9 2 4.3 2 7.2v18.6z"/>
		<path id="Layer" class="s0" d="m244.6 128.9h-21.7v-8.1h21.7zm0.3 22.6h-7.9c-3.2 0-5.5-0.8-7-2.3-1.5-1.5-2.3-3.9-2.3-7v-29h10.2v27c0 1.2 0.2 2 0.7 2.4 0.4 0.5 1.2 0.7 2.3 0.7h4.1v8.2z"/>
		<path id="Layer" class="s0" d="m252.3 117.3c-1.6 0-3-0.5-4.1-1.6-1.1-1.1-1.7-2.4-1.7-3.9 0-1.6 0.6-2.9 1.7-4 1.1-1.1 2.5-1.6 4.1-1.6 1.6 0 3 0.5 4.1 1.6 1.1 1.1 1.7 2.4 1.7 4 0 1.6-0.6 2.9-1.7 3.9-1.1 1-2.5 1.6-4.1 1.6zm5.1 34.2h-10.2v-30.7h10.2z"/>
	</g>
	<g id="Layer">
		<path id="Layer" class="s0" d="m273.8 108.7l-3 4v0.1l4.8-0.6v2.2l-4.8-0.6v0.1l3.1 3.8-2 1.1-1.9-4.5h-0.1l-2.1 4.5-1.8-1.1 3-3.9v-0.1l-4.7 0.6v-2.2l4.7 0.6v-0.1l-3-3.9 1.9-1.1 2 4.4h0.1l1.9-4.5z"/>
	</g>
</svg>