<svg version="1.2" xmlns="http://www.w3.org/2000/svg" viewBox="0 0 425 157" width="425" height="157">
	<title>70-svg</title>
	<style>
		.s0 { fill: #dddddd } 
	</style>
	<g id="Layer">
		<path id="Layer" class="s0" d="m71.8 12.9v17.4l-41.5 74.1h-23.5l42.9-74.1h-45.5v-17.4z"/>
		<path id="Layer" fill-rule="evenodd" class="s0" d="m103.7 106.5c-8 0-14.9-1.9-20.7-5.6-5.8-3.7-10.2-9.1-13.2-16.3-3.1-7.1-4.6-15.8-4.6-25.9q0-23.1 10.2-35.4c6.8-8.3 16.3-12.4 28.3-12.4 12 0 21.5 4.1 28.3 12.4q10.2 12.4 10.2 35.4c0 10.2-1.5 18.8-4.6 25.9-3.1 7.1-7.5 12.5-13.2 16.3-5.7 3.7-12.6 5.6-20.7 5.6zm0-17.7q7.6 0 12-7.5c2.9-5 4.3-12.5 4.3-22.6 0-10.2-1.4-17.7-4.3-22.7-2.9-5-6.8-7.5-12-7.5q-7.7 0-12 7.5c-2.9 5-4.3 12.6-4.3 22.7 0 10.1 1.4 17.6 4.3 22.6q4.3 7.5 12 7.5z"/>
		<path id="Layer" fill-rule="evenodd" class="s0" d="m160 29.3c-2.2 0-4.2-0.5-5.9-1.5q-2.7-1.5-4.2-4.2c-1-1.8-1.5-3.7-1.5-5.9 0-2.2 0.5-4.2 1.5-5.9q1.5-2.7 4.2-4.2c1.8-1 3.7-1.5 5.9-1.5q3.3 0 6 1.5c1.7 1 3.1 2.4 4.1 4.2 1 1.8 1.5 3.7 1.5 5.9 0 2.2-0.5 4.2-1.5 5.9-1 1.8-2.4 3.2-4.1 4.2q-2.7 1.5-6 1.5zm-0.5 30.5h-6.1l35.4-53.3h6.1zm0.5-35.1c1.9 0 3.5-0.7 4.7-2 1.2-1.3 1.8-3 1.8-5 0-2-0.6-3.7-1.8-5-1.2-1.3-2.8-2-4.7-2-1.9 0-3.5 0.7-4.7 2-1.2 1.3-1.8 3-1.8 5 0 2 0.6 3.7 1.8 5 1.2 1.3 2.8 2 4.7 2zm28.3 35.6c-2.2 0-4.2-0.5-5.9-1.5q-2.7-1.5-4.2-4.2c-1-1.8-1.5-3.7-1.5-5.9 0-2.2 0.5-4.2 1.5-5.9q1.5-2.7 4.2-4.2c1.8-1 3.7-1.5 5.9-1.5q3.3 0 6 1.5c1.7 1 3.1 2.4 4.1 4.2 1 1.8 1.5 3.7 1.5 5.9 0 2.2-0.5 4.2-1.5 5.9-1 1.8-2.4 3.2-4.1 4.2q-2.6 1.5-6 1.5zm0-4.6c1.9 0 3.5-0.7 4.7-2 1.2-1.3 1.8-3 1.8-5 0-2-0.6-3.7-1.8-5-1.2-1.3-2.8-2-4.7-2-1.9 0-3.5 0.7-4.7 2-1.2 1.3-1.8 3-1.8 5 0 2 0.6 3.7 1.8 5 1.2 1.3 2.8 2 4.7 2z"/>
	</g>
	<g id="Layer">
		<path id="Layer" class="s0" d="m182.6 91.8l6.1 6.1c-1.7 2-3.7 3.6-6.1 4.7-2.3 1.1-5 1.7-8 1.7q-4.8 0-8.7-2.1c-2.6-1.4-4.6-3.3-6.1-5.8-1.5-2.4-2.2-5.3-2.2-8.4 0-3.2 0.8-6 2.3-8.4 1.5-2.4 3.6-4.4 6.2-5.8 2.6-1.4 5.5-2.1 8.8-2.1 2.9 0 5.5 0.5 7.9 1.6 2.3 1.1 4.3 2.6 6 4.7l-6.1 6.1c-0.8-1.2-1.7-2.1-3-2.9-1.2-0.8-2.6-1.2-4.1-1.2-1.4 0-2.7 0.4-3.8 1.1-1.1 0.7-2 1.7-2.7 2.9-0.7 1.2-1 2.6-1 4.1 0 1.5 0.3 2.9 1 4.1 0.7 1.2 1.6 2.2 2.7 2.9 1.1 0.7 2.4 1.1 3.8 1.1 1.6 0 2.9-0.4 4.1-1.2 1.2-1 2.2-2 2.9-3.2z"/>
		<path id="Layer" fill-rule="evenodd" class="s0" d="m205.9 104.3c-3.5 0-6.5-0.7-9.1-2.1-2.6-1.4-4.7-3.3-6.1-5.8-1.5-2.5-2.2-5.3-2.2-8.5 0-3.2 0.7-6 2.2-8.5 1.5-2.4 3.5-4.4 6.1-5.8 2.6-1.4 5.7-2.1 9.1-2.1 3.5 0 6.5 0.7 9.1 2.1 2.6 1.4 4.7 3.3 6.1 5.8 1.5 2.4 2.2 5.3 2.2 8.5 0 3.2-0.7 6-2.2 8.5-1.5 2.5-3.5 4.4-6.1 5.8-2.6 1.4-5.7 2.1-9.1 2.1zm0-8.3c1.4 0 2.6-0.3 3.7-1 1-0.7 1.9-1.6 2.4-2.8q0.9-1.8 0.9-4.2 0-2.4-0.9-4.2c-0.6-1.2-1.4-2.1-2.4-2.8-1-0.7-2.3-1-3.7-1-1.4 0-2.6 0.3-3.6 1-1.1 0.7-1.9 1.6-2.5 2.8q-0.9 1.8-0.9 4.2 0 2.4 0.9 4.2c0.6 1.2 1.4 2.1 2.5 2.8 1 0.6 2.2 1 3.6 1z"/>
		<path id="Layer" class="s0" d="m274.8 103.3h-10.2v-18.1c0-1.8-0.4-3.1-1.1-3.9-0.7-0.9-1.7-1.3-3-1.3-0.9 0-1.8 0.3-2.6 0.8-0.8 0.5-1.5 1.3-2 2.4-0.5 1.1-0.8 2.5-0.8 4.2v16h-10.2v-18.1c0-1.8-0.4-3.1-1.1-3.9-0.7-0.9-1.7-1.3-3-1.3-0.9 0-1.8 0.3-2.6 0.8-0.8 0.5-1.5 1.3-2 2.4-0.5 1.1-0.8 2.5-0.8 4.2v16h-10.2v-30.7h10.1v6l-0.4-0.1c0.6-1.8 1.4-3.3 2.4-4.2 1-1 2.1-1.7 3.3-2 1.2-0.4 2.4-0.6 3.5-0.6 2.4 0 4.4 0.6 6 1.9 1.6 1.2 2.7 3.2 3.3 5.7h-0.4c0.6-2 1.6-3.6 2.7-4.7 1.2-1.1 2.5-1.8 3.9-2.3 1.4-0.4 2.8-0.6 4.1-0.6q5.2 0 8.1 3.3 3 3.3 3 9.6z"/>
		<path id="Layer" class="s0" d="m287.8 115h-10.2v-42.4h10.1v9.7h-2.1q0.3-3 1.8-5.4c1-1.6 2.3-2.9 3.9-3.8 1.6-0.9 3.6-1.4 5.8-1.4 2.7 0 5.2 0.7 7.6 2 2.3 1.4 4.2 3.3 5.5 5.7 1.4 2.4 2.1 5.3 2.1 8.6 0 3.3-0.7 6.1-2.1 8.6-1.4 2.4-3.2 4.4-5.5 5.7-2.3 1.4-4.8 2-7.5 2-2.6 0-4.8-0.6-6.6-1.7-1.8-1.1-3.1-2.6-4.1-4.5-0.9-1.9-1.4-4-1.4-6.3l2.3-1c0.2 1 0.6 2 1.3 2.7 0.7 0.8 1.5 1.4 2.5 1.8 1 0.4 2 0.6 3.2 0.6 1.5 0 2.8-0.3 3.9-1 1.1-0.7 2-1.6 2.6-2.9 0.6-1.2 0.9-2.6 0.9-4.1q0-2.4-0.9-4.2c-0.6-1.2-1.4-2.1-2.4-2.8-1-0.7-2.3-1-3.8-1q-2.1 0-3.6 0.9c-1 0.6-1.9 1.5-2.5 2.6q-0.9 1.6-0.9 4.2v27.4z"/>
		<path id="Layer" class="s0" d="m324.4 104.3c-2.4 0-4.5-0.4-6.3-1.3q-2.7-1.3-4.2-3.6-1.5-2.2-1.5-5.4c0-2.1 0.6-3.9 1.9-5.4 1.2-1.5 3-2.6 5.4-3.5 2.3-0.8 5.1-1.2 8.2-1.2h6.5v6.1h-5.9c-1.8 0-3.2 0.3-4.2 1-1 0.6-1.5 1.5-1.5 2.5q0 1.5 1.2 2.4c0.8 0.6 1.9 0.9 3.2 0.9 1.2 0 2.4-0.3 3.4-0.8 1-0.6 1.9-1.3 2.6-2.3 0.7-1 1.1-2 1.2-3.3l2.6 1.1c0 2.5-0.5 4.7-1.5 6.7-1 1.9-2.5 3.4-4.3 4.4-2.1 1.2-4.3 1.7-6.8 1.7zm18.8-1h-9.1v-6.3l-0.5-0.5v-11.6c0-1.9-0.6-3.3-1.8-4.3-1.2-1-2.9-1.4-5-1.4-1.6 0-3.1 0.3-4.6 0.8-1.4 0.6-2.7 1.4-3.8 2.4l-4.8-6c1.6-1.5 3.6-2.7 6.1-3.5 2.4-0.9 5-1.3 7.7-1.3 3.2 0 6 0.5 8.3 1.5 2.4 1 4.3 2.5 5.6 4.4 1.3 1.9 2 4.3 2 7.2v18.6z"/>
		<path id="Layer" class="s0" d="m376.8 103.3h-10.2v-17.8c0-1.9-0.4-3.3-1.3-4.2-0.8-0.9-2-1.4-3.4-1.4-1 0-2 0.3-2.9 0.8-0.9 0.5-1.6 1.4-2.2 2.5-0.6 1.1-0.8 2.6-0.8 4.5v15.6h-10.2v-30.7h10.2v9.7h-1.1q0.4-4.3 2.1-6.6c1.1-1.5 2.4-2.6 3.9-3.2 1.5-0.6 2.9-0.9 4.3-0.9 3.6 0 6.4 1.1 8.5 3.3 2.1 2.2 3.1 5.4 3.1 9.6z"/>
		<path id="Layer" class="s0" d="m401.3 72.6h10.2l-14 33.1c-1.3 3.1-3 5.5-5.1 7-2.1 1.5-4.7 2.3-7.9 2.3h-4.6v-8.2h3.9c1.2 0 2.2-0.2 3-0.7 0.8-0.5 1.5-1.3 1.9-2.4l0.1-0.4-13.1-30.7h10.4l9.1 24.9h-3z"/>
		<path id="Layer" class="s0" d="m79 119.3v9h-1.9q-2.9 0-4.8 0.9c-1.3 0.6-2.2 1.6-2.9 2.9-0.6 1.3-1 3-1 5.1v13.2h-10.1v-30.7h10.1v10.1h-1.1q0.4-4.3 2.1-6.6c1.1-1.5 2.4-2.6 3.9-3.2 1.5-0.6 2.9-0.9 4.3-0.9h1.4z"/>
		<path id="Layer" class="s0" d="m106.1 140.4l4.9 6.1c-1.5 1.6-3.5 2.8-6.1 3.7-2.5 0.9-5.2 1.3-8.1 1.3-3.7 0-7-0.7-9.8-2-2.8-1.3-4.9-3.3-6.5-5.7-1.5-2.4-2.3-5.3-2.3-8.5 0-3.3 0.7-6.1 2.2-8.6 1.5-2.5 3.5-4.4 6.1-5.8 2.5-1.4 5.4-2 8.5-2 3.1 0 5.8 0.7 8.3 2 2.4 1.3 4.3 3.2 5.7 5.6 1.4 2.4 2 5.2 2 8.3v0.4h-9.9v-1.1c0-1.6-0.2-2.9-0.7-4-0.5-1.1-1.2-2-2.1-2.6q-1.3-0.9-3.3-0.9c-1.3 0-2.4 0.3-3.4 1-1 0.7-1.8 1.6-2.3 2.9-0.6 1.2-0.8 2.8-0.8 4.6 0 2 0.4 3.6 1.1 4.9 0.8 1.3 1.8 2.3 3.2 2.9 1.4 0.6 2.9 1 4.7 1 3.3-0.1 6.2-1.2 8.6-3.5zm5-2.3h-26.6v-5.9h25.7l1 2.6z"/>
		<path id="Layer" class="s0" d="m137.5 139l6.1 6.1c-1.7 2-3.7 3.6-6.1 4.7-2.3 1.1-5 1.7-8 1.7q-4.8 0-8.7-2.1c-2.6-1.4-4.6-3.3-6.1-5.8-1.5-2.4-2.2-5.3-2.2-8.4 0-3.2 0.8-6 2.3-8.4 1.5-2.4 3.6-4.4 6.2-5.8 2.6-1.4 5.5-2.1 8.8-2.1 2.9 0 5.5 0.5 7.9 1.6 2.3 1.1 4.3 2.6 6 4.7l-6.1 6.1c-0.8-1.2-1.7-2.1-3-2.9-1.2-0.8-2.6-1.2-4.1-1.2-1.4 0-2.7 0.4-3.8 1.1-1.1 0.7-2 1.7-2.7 2.9-0.7 1.2-1 2.6-1 4.1 0 1.5 0.3 2.9 1 4.1 0.7 1.2 1.6 2.2 2.7 2.9 1.1 0.7 2.4 1.1 3.8 1.1 1.6 0 2.9-0.4 4.1-1.2 1.1-1 2.1-2 2.9-3.2z"/>
		<path id="Layer" fill-rule="evenodd" class="s0" d="m160.7 151.5c-3.5 0-6.5-0.7-9.1-2.1-2.6-1.4-4.7-3.3-6.1-5.8-1.5-2.5-2.2-5.3-2.2-8.5 0-3.2 0.7-6 2.2-8.5 1.5-2.4 3.5-4.4 6.1-5.8 2.6-1.4 5.7-2.1 9.1-2.1 3.5 0 6.5 0.7 9.1 2.1 2.6 1.4 4.7 3.3 6.1 5.8 1.5 2.4 2.2 5.3 2.2 8.5 0 3.2-0.7 6-2.2 8.5-1.5 2.5-3.5 4.4-6.1 5.8-2.6 1.4-5.6 2.1-9.1 2.1zm0-8.3c1.4 0 2.6-0.3 3.7-1 1-0.7 1.9-1.6 2.4-2.8q0.9-1.8 0.9-4.2 0-2.4-0.9-4.2c-0.6-1.2-1.4-2.1-2.4-2.8-1-0.7-2.3-1-3.7-1-1.4 0-2.6 0.3-3.6 1-1.1 0.7-1.9 1.6-2.5 2.8q-0.9 1.8-0.9 4.2 0 2.4 0.9 4.2c0.6 1.2 1.4 2.1 2.5 2.8 1 0.6 2.2 1 3.6 1z"/>
		<path id="Layer" class="s0" d="m229.7 150.5h-10.2v-18.1c0-1.8-0.4-3.1-1.1-3.9-0.7-0.9-1.7-1.3-3-1.3-0.9 0-1.8 0.3-2.6 0.8-0.8 0.5-1.5 1.3-2 2.4-0.5 1.1-0.8 2.5-0.8 4.2v16h-10.2v-18.1c0-1.8-0.4-3.1-1.1-3.9-0.7-0.9-1.7-1.3-3-1.3-0.9 0-1.8 0.3-2.6 0.8-0.8 0.5-1.5 1.3-2 2.4-0.5 1.1-0.8 2.5-0.8 4.2v16h-10.2v-30.7h10.1v6l-0.4-0.1c0.6-1.8 1.4-3.3 2.4-4.2 1-1 2.1-1.7 3.3-2 1.2-0.4 2.4-0.6 3.5-0.6 2.4 0 4.4 0.6 6 1.9 1.6 1.2 2.7 3.2 3.3 5.7h-0.7c0.6-2 1.6-3.6 2.7-4.7 1.2-1.1 2.5-1.8 3.9-2.3 1.4-0.4 2.8-0.6 4.1-0.6q5.3 0 8.1 3.3 3 3.3 3 9.6v18.5z"/>
		<path id="Layer" class="s0" d="m281.8 150.5h-10.2v-18.1c0-1.8-0.4-3.1-1.1-3.9-0.7-0.9-1.7-1.3-3-1.3-0.9 0-1.8 0.3-2.6 0.8-0.8 0.5-1.5 1.3-2 2.4-0.5 1.1-0.8 2.5-0.8 4.2v16h-10.2v-18.1c0-1.8-0.4-3.1-1.1-3.9-0.7-0.9-1.7-1.3-3-1.3-0.9 0-1.8 0.3-2.6 0.8-0.8 0.5-1.5 1.3-2 2.4-0.5 1.1-0.8 2.5-0.8 4.2v16h-10.2v-30.7h10.1v6l-0.4-0.1c0.6-1.8 1.4-3.3 2.4-4.2 1-1 2.1-1.7 3.3-2 1.2-0.4 2.4-0.6 3.5-0.6 2.4 0 4.4 0.6 6 1.9 1.6 1.2 2.7 3.2 3.3 5.7h-0.4c0.6-2 1.6-3.6 2.7-4.7 1.2-1.1 2.5-1.8 3.9-2.3 1.4-0.4 2.8-0.6 4.1-0.6q5.2 0 8.1 3.3 3 3.3 3 9.6z"/>
		<path id="Layer" class="s0" d="m311.4 140.4l4.9 6.1c-1.5 1.6-3.5 2.8-6.1 3.7-2.6 0.9-5.2 1.3-8.1 1.3-3.7 0-7-0.7-9.8-2-2.8-1.4-4.9-3.3-6.5-5.7-1.5-2.4-2.3-5.3-2.3-8.5 0-3.3 0.7-6.1 2.2-8.6 1.5-2.5 3.5-4.4 6.1-5.8 2.5-1.4 5.4-2 8.5-2 3.1 0 5.8 0.7 8.2 2 2.4 1.3 4.3 3.2 5.7 5.6 1.4 2.4 2 5.2 2 8.3v0.4h-9.9v-1.1c0-1.6-0.2-2.9-0.7-4-0.5-1.1-1.2-2-2.1-2.6q-1.4-0.9-3.3-0.9c-1.3 0-2.4 0.3-3.4 1-1 0.7-1.8 1.6-2.3 2.9-0.6 1.2-0.8 2.8-0.8 4.6 0 2 0.4 3.6 1.1 4.9 0.8 1.3 1.8 2.3 3.2 2.9 1.4 0.6 2.9 1 4.7 1 3.4-0.1 6.3-1.2 8.7-3.5zm5-2.3h-26.7v-5.9h25.7l1 2.6z"/>
		<path id="Layer" class="s0" d="m349.7 150.5h-10.2v-17.8c0-1.9-0.4-3.3-1.3-4.2-0.8-0.9-2-1.4-3.4-1.4-1 0-2 0.3-2.9 0.8-0.9 0.5-1.6 1.4-2.2 2.5-0.6 1.1-0.8 2.6-0.8 4.5v15.6h-10.2v-30.7h10.1v9.7h-1.1q0.5-4.3 2.1-6.6c1.1-1.5 2.4-2.6 3.9-3.2 1.5-0.6 2.9-0.9 4.3-0.9 3.6 0 6.4 1.1 8.5 3.3 2.1 2.2 3.1 5.4 3.1 9.6v18.8z"/>
		<path id="Layer" class="s0" d="m386.3 150.5h-10.1v-6.5l-0.1-0.7v-8.4q0-2.4-0.9-4.2c-0.6-1.1-1.4-2-2.5-2.6q-1.7-0.9-3.6-0.9c-1.4 0-2.7 0.3-3.8 1-1.1 0.7-1.9 1.6-2.4 2.8-0.6 1.2-0.8 2.6-0.8 4.2 0 1.5 0.3 2.9 0.9 4.1 0.6 1.2 1.5 2.2 2.6 2.9 1.1 0.7 2.4 1 3.9 1 1.2 0 2.2-0.2 3.2-0.6q1.5-0.6 2.4-1.8c0.7-0.8 1.1-1.7 1.3-2.7l2.3 1c0 2.3-0.5 4.4-1.4 6.3-0.9 1.9-2.3 3.4-4.1 4.5-1.8 1.1-4 1.7-6.6 1.7-2.7 0-5.2-0.7-7.5-2-2.3-1.3-4.2-3.3-5.5-5.7-1.4-2.4-2.1-5.3-2.1-8.6 0-3.3 0.7-6.2 2.1-8.6 1.4-2.4 3.2-4.3 5.5-5.7 2.3-1.4 4.8-2 7.6-2 2.4 0 4.4 0.5 6.1 1.4 1.7 0.9 3 2.2 3.9 3.8 1 1.6 1.5 3.4 1.7 5.5h-2.4v-22.3h10.2z"/>
	</g>
	<g id="Layer">
		<path id="Layer" class="s0" d="m404.9 114.6l-3 4v0.1l4.8-0.6v2.2l-4.8-0.6v0.1l3.1 3.8-2 1.1-1.9-4.5h-0.1l-2.1 4.5-1.8-1.1 3-3.9v-0.1l-4.7 0.6v-2.2l4.7 0.6v-0.1l-3-3.9 1.9-1.1 2 4.4h0.1l1.9-4.5z"/>
	</g>
</svg>