<svg version="1.2" xmlns="http://www.w3.org/2000/svg" viewBox="0 0 460 156" width="460" height="156">
	<title>70mne-svg</title>
	<style>
		.s0 { fill: #dddddd } 
	</style>
	<g id="Layer">
		<path id="Layer" class="s0" d="m70 10.5v17.4l-41.4 74.1h-23.6l42.9-74.1h-45.4v-17.4z"/>
		<path id="Layer" fill-rule="evenodd" class="s0" d="m102 104c-8 0-14.9-1.9-20.7-5.6-5.8-3.7-10.2-9.1-13.2-16.3-3.1-7.1-4.6-15.8-4.6-25.9q0-23.1 10.2-35.4c6.8-8.3 16.3-12.4 28.3-12.4 12 0 21.5 4.1 28.3 12.4q10.2 12.5 10.2 35.4c0 10.2-1.5 18.8-4.6 25.9-3.1 7.1-7.5 12.5-13.2 16.3-5.8 3.8-12.7 5.6-20.7 5.6zm0-17.6q7.6 0 12-7.5c2.9-5 4.3-12.5 4.3-22.6 0-10.2-1.4-17.7-4.3-22.7-2.9-5-6.8-7.5-12-7.5q-7.6 0-12 7.5c-2.9 5-4.3 12.6-4.3 22.7 0 10.1 1.4 17.6 4.3 22.6q4.4 7.5 12 7.5z"/>
		<path id="Layer" fill-rule="evenodd" class="s0" d="m153.5 26.9c-2.2 0-4.2-0.5-5.9-1.5q-2.7-1.5-4.2-4.2c-1-1.8-1.5-3.7-1.5-5.9 0-2.2 0.5-4.2 1.5-5.9q1.5-2.7 4.2-4.2c1.8-1 3.7-1.5 5.9-1.5q3.3 0 6 1.5c1.7 1 3.1 2.4 4.1 4.2 1 1.8 1.5 3.7 1.5 5.9 0 2.2-0.5 4.2-1.5 5.9-1 1.8-2.4 3.2-4.1 4.2q-2.5 1.5-6 1.5zm-0.4 30.5h-6.1l35.4-53.3h6.1zm0.4-35.1c1.9 0 3.5-0.7 4.7-2 1.2-1.3 1.8-3 1.8-5 0-2-0.6-3.7-1.8-5-1.2-1.3-2.8-2-4.7-2-1.9 0-3.5 0.7-4.7 2-1.2 1.3-1.8 3-1.8 5 0 2 0.6 3.7 1.8 5 1.2 1.3 2.8 2 4.7 2zm28.4 35.6c-2.2 0-4.2-0.5-5.9-1.5q-2.7-1.5-4.2-4.2c-1-1.8-1.5-3.7-1.5-5.9 0-2.2 0.5-4.2 1.5-5.9q1.5-2.7 4.2-4.2c1.8-1 3.7-1.5 5.9-1.5q3.3 0 6 1.5c1.7 1 3.1 2.4 4.1 4.2 1 1.8 1.5 3.7 1.5 5.9 0 2.2-0.5 4.2-1.5 5.9-1 1.8-2.4 3.2-4.1 4.2-1.8 0.9-3.8 1.5-6 1.5zm0-4.7c1.9 0 3.5-0.7 4.7-2 1.2-1.3 1.8-3 1.8-5 0-2-0.6-3.7-1.8-5-1.2-1.3-2.8-2-4.7-2-1.9 0-3.5 0.7-4.7 2-1.2 1.3-1.8 3-1.8 5 0 2 0.6 3.7 1.8 5 1.2 1.4 2.7 2 4.7 2z"/>
	</g>
	<g id="Layer">
		<g id="Layer">
			<path id="Layer" class="s0" d="m176.8 95.3h-28v-8.1l14.6-14.6h-14v-8.1h26.8v8.1l-14.6 14.6h15.2z"/>
			<path id="Layer" class="s0" d="m190.1 96.3c-2.4 0-4.5-0.4-6.3-1.3q-2.7-1.3-4.2-3.6-1.5-2.2-1.5-5.4c0-2.1 0.6-3.9 1.9-5.4 1.2-1.5 3-2.6 5.4-3.5 2.3-0.8 5.1-1.2 8.3-1.2h6.5v6.1h-5.9c-1.8 0-3.2 0.3-4.2 1-1 0.6-1.5 1.5-1.5 2.5q0 1.5 1.2 2.4c0.8 0.6 1.9 0.9 3.2 0.9 1.2 0 2.4-0.3 3.4-0.8 1-0.6 1.9-1.3 2.6-2.3 0.7-1 1.1-2 1.2-3.3l2.6 1.1c0 2.5-0.5 4.7-1.5 6.7-1 1.9-2.5 3.4-4.3 4.4-2.2 1.2-4.4 1.7-6.9 1.7zm18.8-1h-9.1v-6.3l-0.5-0.5v-11.6c0-1.9-0.6-3.3-1.8-4.3-1.2-1-2.9-1.4-5-1.4-1.6 0-3.1 0.3-4.6 0.8-1.4 0.6-2.7 1.4-3.8 2.4l-4.8-6c1.6-1.5 3.6-2.7 6.1-3.5 2.4-0.9 5-1.3 7.7-1.3 3.2 0 6 0.5 8.3 1.5 2.4 1 4.3 2.5 5.6 4.4 1.3 1.9 2 4.3 2 7.2z"/>
			<path id="Layer" class="s0" d="m221.8 107h-10.2v-42.4h10.1v9.7h-2.1q0.3-3 1.8-5.4c1-1.6 2.3-2.9 3.9-3.8 1.6-0.9 3.6-1.4 5.8-1.4 2.7 0 5.2 0.7 7.6 2 2.3 1.4 4.2 3.3 5.5 5.7 1.4 2.4 2.1 5.3 2.1 8.6 0 3.3-0.7 6.1-2.1 8.6-1.4 2.4-3.2 4.4-5.5 5.7-2.3 1.4-4.8 2-7.5 2-2.6 0-4.8-0.6-6.6-1.7-1.8-1.1-3.1-2.6-4.1-4.5-0.9-1.9-1.4-4-1.4-6.3l2.3-1c0.2 1 0.6 2 1.3 2.7 0.7 0.8 1.5 1.4 2.5 1.8 1 0.4 2 0.6 3.2 0.6 1.5 0 2.8-0.3 3.9-1 1.1-0.7 2-1.6 2.6-2.9 0.6-1.2 0.9-2.6 0.9-4.1q0-2.4-0.9-4.2c-0.6-1.2-1.4-2.1-2.4-2.8-1-0.7-2.3-1-3.8-1q-2.1 0-3.6 0.9c-1 0.6-1.9 1.5-2.5 2.6q-0.9 1.7-0.9 4.2z"/>
			<path id="Layer" fill-rule="evenodd" class="s0" d="m265 96.3c-3.5 0-6.5-0.7-9.1-2.1-2.6-1.4-4.7-3.3-6.1-5.8-1.5-2.5-2.2-5.3-2.2-8.5 0-3.2 0.7-6 2.2-8.5 1.5-2.4 3.5-4.4 6.1-5.8 2.6-1.4 5.7-2.1 9.1-2.1 3.5 0 6.5 0.7 9.1 2.1 2.6 1.4 4.7 3.3 6.1 5.8 1.5 2.4 2.2 5.3 2.2 8.5 0 3.2-0.7 6-2.2 8.5-1.5 2.5-3.5 4.4-6.1 5.8-2.6 1.4-5.6 2.1-9.1 2.1zm0-8.3c1.4 0 2.6-0.3 3.7-1 1-0.7 1.9-1.6 2.4-2.8q0.9-1.8 0.9-4.2 0-2.4-0.9-4.2c-0.6-1.2-1.4-2.1-2.4-2.8-1-0.7-2.3-1-3.7-1-1.4 0-2.6 0.3-3.6 1-1.1 0.7-1.9 1.6-2.5 2.8q-0.9 1.8-0.9 4.2 0 2.4 0.9 4.2c0.6 1.2 1.4 2.1 2.5 2.8 1 0.6 2.2 1 3.6 1z"/>
			<path id="Layer" class="s0" d="m281.6 90.8l5.1-6.1c1.3 1.3 3 2.4 5 3.1 2 0.8 3.9 1.1 5.8 1.1 1.5 0 2.7-0.2 3.5-0.7 0.8-0.5 1.2-1 1.2-1.7 0-0.8-0.4-1.3-1.2-1.7-0.8-0.3-2.4-0.7-4.8-1-4.3-0.6-7.6-1.7-9.8-3.2-2.2-1.5-3.3-3.6-3.3-6.4 0-2.1 0.6-4 1.8-5.6 1.2-1.6 2.9-2.9 4.9-3.8 2.1-0.9 4.5-1.4 7.1-1.4 3.2 0 6.1 0.5 8.5 1.4 2.5 1 4.5 2.2 6.2 3.6l-5.1 6.2c-1.2-1.2-2.7-2.1-4.4-2.8-1.7-0.7-3.4-1.1-5.1-1.1-1.4 0-2.4 0.2-3.2 0.7-0.8 0.5-1.1 1-1.1 1.6 0 0.7 0.4 1.2 1.3 1.4 0.9 0.3 2.4 0.6 4.7 0.9 4.1 0.6 7.4 1.7 9.7 3.3 2.3 1.5 3.5 3.8 3.5 6.7 0 2.2-0.6 4.1-1.9 5.7-1.2 1.6-3 2.8-5.2 3.7-2.2 0.9-4.9 1.3-7.9 1.3-3.1 0-5.9-0.5-8.6-1.5-2.7-1-5-2.1-6.7-3.7z"/>
			<path id="Layer" class="s0" d="m324.2 95.3h-10.2v-43.3h10.2z"/>
			<path id="Layer" class="s0" d="m354.1 85.2l4.9 6.1c-1.5 1.6-3.5 2.8-6.1 3.7-2.6 0.9-5.2 1.3-8.1 1.3-3.7 0-7-0.7-9.8-2-2.8-1.4-4.9-3.3-6.5-5.7-1.5-2.4-2.3-5.3-2.3-8.5 0-3.3 0.7-6.1 2.2-8.6 1.5-2.5 3.5-4.4 6.1-5.8 2.5-1.4 5.4-2 8.5-2 3.1 0 5.8 0.7 8.2 2 2.4 1.3 4.3 3.2 5.7 5.6 1.4 2.4 2 5.2 2 8.3v0.4h-9.9v-1.1c0-1.6-0.2-2.9-0.7-4-0.5-1.1-1.2-2-2.1-2.6q-1.4-0.9-3.3-0.9c-1.3 0-2.4 0.3-3.4 1-1 0.7-1.8 1.6-2.3 2.9-0.6 1.2-0.8 2.8-0.8 4.6 0 2 0.4 3.6 1.1 4.9 0.8 1.3 1.8 2.3 3.2 2.9 1.4 0.6 2.9 1 4.7 1 3.4-0.1 6.3-1.3 8.7-3.5zm5-2.3h-26.7v-5.9h25.7l1 2.6z"/>
			<path id="Layer" class="s0" d="m392.4 95.3h-10.2v-17.8c0-1.9-0.4-3.3-1.3-4.2-0.8-0.9-2-1.4-3.4-1.4-1 0-2 0.3-2.9 0.8-0.9 0.5-1.6 1.4-2.2 2.5-0.6 1.1-0.8 2.6-0.8 4.5v15.6h-10.2v-30.7h10.1v9.7h-1.1q0.5-4.3 2.1-6.6c1.1-1.5 2.4-2.6 3.9-3.2 1.5-0.6 2.9-0.9 4.3-0.9 3.6 0 6.4 1.1 8.5 3.3 2.1 2.2 3.1 5.4 3.1 9.6v18.8z"/>
			<path id="Layer" class="s0" d="m400.3 61c-1.6 0-3-0.5-4.1-1.6-1.1-1.1-1.7-2.4-1.7-3.9 0-1.6 0.6-2.9 1.7-4 1.1-1.1 2.5-1.6 4.1-1.6 1.6 0 3 0.5 4.1 1.6 1.1 1.1 1.7 2.4 1.7 4 0 1.6-0.6 2.9-1.7 3.9-1.1 1.1-2.5 1.6-4.1 1.6zm5.1 34.3h-10.2v-30.7h10.2z"/>
			<path id="Layer" class="s0" d="m439.5 95.3h-10.2v-17.8c0-1.9-0.4-3.3-1.3-4.2-0.8-0.9-2-1.4-3.4-1.4-1 0-2 0.3-2.9 0.8-0.9 0.5-1.6 1.4-2.2 2.5-0.6 1.1-0.8 2.6-0.8 4.5v15.6h-10.2v-43.3h10.2v22.3h-1.2q0.5-4.3 2.1-6.6c1.1-1.5 2.4-2.6 3.9-3.2 1.5-0.6 2.9-0.9 4.3-0.9 3.6 0 6.4 1.1 8.5 3.3 2.1 2.2 3.1 5.4 3.1 9.6v18.8z"/>
			<path id="Layer" class="s0" d="m118.5 154.2h-10.2v-42.4h10.1v9.7h-2.1q0.3-3 1.8-5.4c1-1.6 2.3-2.9 3.9-3.8 1.6-0.9 3.6-1.4 5.8-1.4 2.7 0 5.2 0.7 7.6 2 2.3 1.4 4.2 3.3 5.5 5.7 1.4 2.4 2.1 5.3 2.1 8.6 0 3.3-0.7 6.1-2.1 8.6-1.4 2.4-3.2 4.4-5.5 5.7-2.3 1.4-4.8 2-7.5 2-2.6 0-4.8-0.6-6.6-1.7-1.8-1.1-3.1-2.6-4.1-4.5-0.9-1.9-1.4-4-1.4-6.3l2.3-1c0.2 1 0.6 2 1.3 2.7 0.7 0.8 1.5 1.4 2.5 1.8 1 0.4 2 0.6 3.2 0.6 1.5 0 2.8-0.3 3.9-1 1.1-0.7 2-1.6 2.6-2.9 0.6-1.2 0.9-2.6 0.9-4.1q0-2.4-0.9-4.2c-0.6-1.2-1.4-2.1-2.4-2.8-1-0.7-2.3-1-3.8-1q-2.1 0-3.6 0.9c-1 0.6-1.9 1.5-2.5 2.6q-0.9 1.6-0.9 4.2z"/>
			<path id="Layer" class="s0" d="m165.9 111.3v9h-1.9q-2.9 0-4.8 0.9c-1.3 0.6-2.2 1.6-2.9 2.9-0.6 1.3-1 3-1 5.1v13.2h-10.2v-30.7h10.1v10.1h-1.1q0.5-4.3 2.1-6.6c1.1-1.5 2.4-2.6 3.9-3.2 1.5-0.6 2.9-0.9 4.3-0.9h1.5z"/>
			<path id="Layer" class="s0" d="m193 132.4l4.9 6.1c-1.5 1.6-3.5 2.8-6.1 3.7-2.5 0.9-5.2 1.3-8.1 1.3-3.7 0-7-0.7-9.8-2-2.8-1.3-4.9-3.3-6.5-5.7-1.5-2.4-2.3-5.3-2.3-8.5 0-3.3 0.7-6.1 2.2-8.6 1.5-2.5 3.5-4.4 6.1-5.8 2.5-1.4 5.4-2 8.5-2 3.1 0 5.8 0.7 8.3 2 2.4 1.3 4.3 3.2 5.7 5.6 1.4 2.4 2 5.2 2 8.3v0.4h-9.9v-1.1c0-1.6-0.2-2.9-0.7-4-0.5-1.1-1.2-2-2.1-2.6q-1.3-0.9-3.3-0.9c-1.3 0-2.4 0.3-3.4 1-1 0.7-1.8 1.6-2.3 2.9-0.6 1.2-0.8 2.8-0.8 4.6 0 2 0.4 3.6 1.1 4.9 0.8 1.3 1.8 2.3 3.2 2.9 1.4 0.6 2.9 1 4.7 1 3.3-0.1 6.2-1.2 8.6-3.5zm5-2.3h-26.7v-5.9h25.7l1 2.6z"/>
			<path id="Layer" class="s0" d="m210.5 154.2h-10.2v-42.4h10.1v9.7h-2.1q0.3-3 1.8-5.4c1-1.6 2.3-2.9 3.9-3.8 1.6-0.9 3.6-1.4 5.8-1.4 2.7 0 5.2 0.7 7.6 2 2.3 1.4 4.2 3.3 5.5 5.7 1.4 2.4 2.1 5.3 2.1 8.6 0 3.3-0.7 6.1-2.1 8.6-1.4 2.4-3.2 4.4-5.5 5.7-2.3 1.4-4.8 2-7.5 2-2.6 0-4.8-0.6-6.6-1.7-1.8-1.1-3.1-2.6-4.1-4.5-0.9-1.9-1.4-4-1.4-6.3l2.3-1c0.2 1 0.6 2 1.3 2.7 0.7 0.8 1.5 1.4 2.5 1.8 1 0.4 2 0.6 3.2 0.6 1.5 0 2.8-0.3 3.9-1 1.1-0.7 2-1.6 2.6-2.9 0.6-1.2 0.9-2.6 0.9-4.1q0-2.4-0.9-4.2c-0.6-1.2-1.4-2.1-2.4-2.8-1-0.7-2.3-1-3.8-1q-2.1 0-3.6 0.9c-1 0.6-1.9 1.5-2.5 2.6q-0.9 1.6-0.9 4.2z"/>
			<path id="Layer" fill-rule="evenodd" class="s0" d="m253.7 143.5c-3.5 0-6.5-0.7-9.1-2.1-2.6-1.4-4.7-3.3-6.1-5.8-1.5-2.5-2.2-5.3-2.2-8.5 0-3.2 0.7-6 2.2-8.5 1.5-2.4 3.5-4.4 6.1-5.8 2.6-1.4 5.7-2.1 9.1-2.1 3.5 0 6.5 0.7 9.1 2.1 2.6 1.4 4.7 3.3 6.1 5.8 1.5 2.4 2.2 5.3 2.2 8.5 0 3.2-0.7 6-2.2 8.5-1.5 2.5-3.5 4.4-6.1 5.8-2.6 1.4-5.6 2.1-9.1 2.1zm0-8.3c1.4 0 2.6-0.3 3.7-1 1-0.7 1.9-1.6 2.4-2.8q0.9-1.8 0.9-4.2 0-2.4-0.9-4.2c-0.6-1.2-1.4-2.1-2.4-2.8-1-0.7-2.3-1-3.7-1-1.4 0-2.6 0.3-3.6 1-1.1 0.7-1.9 1.6-2.5 2.8q-0.9 1.8-0.9 4.2 0 2.4 0.9 4.2c0.6 1.2 1.4 2.1 2.5 2.8 1.1 0.6 2.3 1 3.6 1z"/>
			<path id="Layer" class="s0" d="m294.1 111.3v9h-1.9q-2.9 0-4.8 0.9c-1.3 0.6-2.2 1.6-2.9 2.9-0.6 1.3-1 3-1 5.1v13.2h-10.2v-30.7h10.1v10.1h-1.1q0.5-4.3 2.1-6.6c1.1-1.5 2.4-2.6 3.9-3.2 1.5-0.6 2.9-0.9 4.3-0.9h1.5z"/>
			<path id="Layer" class="s0" d="m316.2 130l2 1c0 2.5-0.5 4.7-1.4 6.6-0.9 1.9-2.2 3.3-4 4.4-1.7 1-3.8 1.6-6.1 1.6-3.5 0-6.3-1.1-8.4-3.2-2.1-2.1-3.1-5.2-3.1-9.2v-19.3h10.2v18.3c0 1.7 0.4 3 1.3 3.8 0.8 0.8 1.9 1.3 3.3 1.3 1 0 2-0.2 2.9-0.7 0.9-0.4 1.6-1.1 2.2-1.8 0.6-0.9 1-1.8 1.1-2.8zm9.9 12.5h-10.1v-5.8l-0.1-1.7v-23.2h10.2z"/>
			<path id="Layer" class="s0" d="m353.3 131l6.1 6.1c-1.7 2-3.7 3.6-6.1 4.7-2.3 1.1-5 1.7-8 1.7q-4.8 0-8.7-2.1c-2.6-1.4-4.6-3.3-6.1-5.8-1.5-2.4-2.2-5.3-2.2-8.4 0-3.2 0.8-6 2.3-8.4 1.5-2.4 3.6-4.4 6.2-5.8 2.6-1.4 5.5-2.1 8.8-2.1 2.9 0 5.5 0.5 7.9 1.6 2.3 1.1 4.3 2.6 6 4.7l-6.1 6.1c-0.8-1.2-1.7-2.1-3-2.9-1.2-0.8-2.6-1.2-4.1-1.2-1.4 0-2.7 0.4-3.8 1.1-1.1 0.7-2 1.7-2.7 2.9-0.7 1.2-1 2.6-1 4.1 0 1.5 0.3 2.9 1 4.1 0.7 1.2 1.6 2.2 2.7 2.9 1.1 0.7 2.4 1.1 3.8 1.1 1.6 0 2.9-0.4 4.1-1.2 1.1-1 2.1-2 2.9-3.2zm-20.7-34.3h9l7.9 9.5h-7.5l7.9-9.5h8.9l-7.5 10.5h-11.3z"/>
			<path id="Layer" class="s0" d="m381.9 130l2 1c0 2.5-0.5 4.7-1.4 6.6-0.9 1.9-2.2 3.3-4 4.4-1.7 1-3.8 1.6-6.1 1.6-3.5 0-6.3-1.1-8.4-3.2-2.1-2.1-3.1-5.2-3.1-9.2v-19.3h10.2v18.3c0 1.7 0.4 3 1.3 3.8 0.8 0.8 1.9 1.3 3.3 1.3 1 0 2-0.2 2.9-0.7 0.9-0.4 1.6-1.1 2.2-1.8 0.5-0.9 0.9-1.8 1.1-2.8zm9.9 12.5h-10.1v-5.8l-0.1-1.7v-23.2h10.2z"/>
			<path id="Layer" class="s0" d="m389.5 154.2v-8.2h2.4c1.1 0 1.9-0.2 2.3-0.7 0.4-0.5 0.7-1.3 0.7-2.4v-31.1h10.2v33.1q0 9.3-9.3 9.3zm10.5-45.9c-1.6 0-3-0.5-4.1-1.6-1.1-1.1-1.7-2.4-1.7-3.9 0-1.6 0.6-2.9 1.7-4 1.1-1.1 2.5-1.6 4.1-1.6 1.6 0 3 0.5 4.1 1.6 1.1 1.1 1.7 2.4 1.7 4 0 1.6-0.6 2.9-1.7 3.9-1.1 1-2.5 1.6-4.1 1.6z"/>
			<path id="Layer" class="s0" d="m435 132.4l4.9 6.1c-1.5 1.6-3.5 2.8-6.1 3.7-2.6 0.9-5.2 1.3-8.1 1.3-3.7 0-7-0.7-9.8-2-2.8-1.4-4.9-3.3-6.5-5.7-1.5-2.4-2.3-5.3-2.3-8.5 0-3.3 0.7-6.1 2.2-8.6 1.5-2.5 3.5-4.4 6.1-5.8 2.5-1.4 5.4-2 8.5-2 3.1 0 5.8 0.7 8.2 2 2.4 1.3 4.3 3.2 5.7 5.6 1.4 2.4 2 5.2 2 8.3v0.4h-9.9v-1.1c0-1.6-0.2-2.9-0.7-4-0.5-1.1-1.2-2-2.1-2.6q-1.4-0.9-3.3-0.9c-1.3 0-2.4 0.3-3.4 1-1 0.7-1.8 1.6-2.3 2.9-0.6 1.2-0.8 2.8-0.8 4.6 0 2 0.4 3.6 1.1 4.9 0.8 1.3 1.8 2.3 3.2 2.9 1.4 0.6 2.9 1 4.7 1 3.4-0.1 6.3-1.2 8.7-3.5zm5-2.3h-26.7v-5.9h25.7l1 2.6z"/>
		</g>
	</g>
	<g id="Layer">
		<path id="Layer" class="s0" d="m452.6 114.1l-3 4v0.1l4.8-0.6v2.2l-4.8-0.6v0.1l3.1 3.8-2 1.1-1.9-4.5h-0.1l-2.1 4.5-1.8-1.1 3-3.9v-0.1l-4.7 0.6v-2.2l4.7 0.6v-0.1l-3-3.9 1.9-1.1 2 4.4h0.1l1.9-4.5z"/>
	</g>
</svg>