<?xml version="1.0" encoding="utf-8"?>
<!-- Generator: Adobe Illustrator 24.0.2, SVG Export Plug-In . SVG Version: 6.00 Build 0)  -->
<svg version="1.1" id="Layer_1" xmlns="http://www.w3.org/2000/svg" xmlns:xlink="http://www.w3.org/1999/xlink" x="0px" y="0px"
	 viewBox="343 20 146 52" style="enable-background:new 343 20 146 52;" xml:space="preserve">
<style type="text/css">
	.st0{fill:#FFFFFF;}
</style>
<g>
	<g>
		<path class="st0" d="M480,70H351.5c-3.9,0-7.1-3.2-7.1-7.1V29.3c0-3.9,3.2-7.1,7.1-7.1H480c3.9,0,7.1,3.2,7.1,7.1v33.6
			C487,66.8,483.9,70,480,70z M351.5,23.9c-3,0-5.4,2.4-5.4,5.4v33.6c0,3,2.4,5.4,5.4,5.4H480c3,0,5.4-2.4,5.4-5.4V29.3
			c0-3-2.4-5.4-5.4-5.4H351.5z"/>
	</g>
	<g>
		<g>
			<g>
				<path class="st0" d="M392.6,51.9l-2.2-6l-2.2,6H392.6z M384.8,56.4l4.6-12.1h1.9l4.6,12.1h-1.7l-1.1-3.1h-5.5l-1.1,3.1H384.8z
					 M399.1,55v4.8h-1.5V47.3h1.5v1.4c0.3-0.5,0.7-0.9,1.2-1.2c0.5-0.3,1.1-0.4,1.7-0.4c1.1,0,2,0.4,2.7,1.3c0.7,0.9,1,2,1,3.5
					c0,1.4-0.3,2.6-1,3.5c-0.7,0.9-1.6,1.3-2.7,1.3c-0.7,0-1.2-0.1-1.7-0.4C399.8,55.9,399.4,55.5,399.1,55 M404.2,51.8
					c0-1.1-0.2-2-0.7-2.6c-0.4-0.6-1.1-0.9-1.9-0.9s-1.4,0.3-1.9,0.9c-0.5,0.6-0.7,1.5-0.7,2.6c0,1.1,0.2,2,0.7,2.6
					c0.5,0.6,1.1,0.9,1.9,0.9s1.4-0.3,1.9-0.9C403.9,53.8,404.2,52.9,404.2,51.8 M409.7,55v4.8h-1.5V47.3h1.5v1.4
					c0.3-0.5,0.7-0.9,1.2-1.2c0.5-0.3,1.1-0.4,1.7-0.4c1.1,0,2,0.4,2.7,1.3c0.7,0.9,1,2,1,3.5c0,1.4-0.3,2.6-1,3.5
					c-0.7,0.9-1.6,1.3-2.7,1.3c-0.7,0-1.2-0.1-1.7-0.4C410.4,55.9,410,55.5,409.7,55 M414.7,51.8c0-1.1-0.2-2-0.7-2.6
					c-0.4-0.6-1.1-0.9-1.9-0.9c-0.8,0-1.4,0.3-1.9,0.9c-0.4,0.6-0.7,1.5-0.7,2.6c0,1.1,0.2,2,0.7,2.6c0.5,0.6,1.1,0.9,1.9,0.9
					c0.8,0,1.4-0.3,1.9-0.9C414.5,53.8,414.7,52.9,414.7,51.8 M427.1,54.6v-3.3h-2.7V50h4.3v5.2c-0.6,0.5-1.3,0.8-2.1,1
					c-0.8,0.2-1.6,0.3-2.4,0.3c-1.9,0-3.4-0.6-4.5-1.7c-1.1-1.1-1.6-2.7-1.6-4.6s0.5-3.5,1.6-4.6c1.1-1.1,2.6-1.7,4.5-1.7
					c0.8,0,1.5,0.1,2.2,0.3c0.7,0.2,1.4,0.5,2,0.9v1.8c-0.6-0.5-1.3-0.9-1.9-1.2c-0.7-0.3-1.4-0.4-2.2-0.4c-1.5,0-2.6,0.4-3.4,1.2
					c-0.7,0.8-1.1,2.1-1.1,3.7c0,1.6,0.4,2.9,1.1,3.7c0.8,0.8,1.9,1.2,3.4,1.2c0.6,0,1.1,0,1.6-0.1C426.3,55,426.7,54.8,427.1,54.6
					 M437.2,51.8h-1.5c-1.2,0-2,0.1-2.5,0.4c-0.5,0.3-0.7,0.7-0.7,1.4c0,0.5,0.2,1,0.5,1.3c0.3,0.3,0.8,0.5,1.4,0.5
					c0.8,0,1.5-0.3,2-0.9c0.5-0.6,0.7-1.4,0.7-2.3V51.8z M438.7,51.2v5.2h-1.5V55c-0.3,0.6-0.8,1-1.3,1.2c-0.5,0.3-1.1,0.4-1.9,0.4
					c-0.9,0-1.7-0.3-2.2-0.8c-0.5-0.5-0.8-1.2-0.8-2.1c0-1,0.3-1.8,1-2.3c0.7-0.5,1.7-0.8,3.1-0.8h2.1v-0.1c0-0.7-0.2-1.2-0.7-1.6
					c-0.5-0.4-1.1-0.6-1.9-0.6c-0.5,0-1,0.1-1.5,0.2c-0.5,0.1-1,0.3-1.4,0.6v-1.4c0.5-0.2,1.1-0.4,1.6-0.5c0.5-0.1,1-0.2,1.5-0.2
					c1.3,0,2.3,0.3,3,1C438.4,48.7,438.7,49.8,438.7,51.2 M441.8,43.7h1.5v12.7h-1.5V43.7z M446.4,43.7h1.5v12.7h-1.5V43.7z
					 M458.8,51.4v0.7h-6.9c0.1,1,0.4,1.8,0.9,2.4c0.6,0.5,1.3,0.8,2.3,0.8c0.6,0,1.1-0.1,1.7-0.2c0.5-0.1,1.1-0.4,1.6-0.6v1.4
					c-0.5,0.2-1.1,0.4-1.7,0.5c-0.6,0.1-1.1,0.2-1.7,0.2c-1.4,0-2.6-0.4-3.5-1.3c-0.8-0.8-1.3-2-1.3-3.4c0-1.5,0.4-2.7,1.2-3.5
					c0.8-0.9,1.9-1.3,3.3-1.3c1.2,0,2.2,0.4,2.9,1.2C458.5,49,458.8,50.1,458.8,51.4 M452,51h5.3c0-0.8-0.2-1.5-0.7-2
					c-0.4-0.5-1-0.7-1.8-0.7c-0.8,0-1.5,0.2-2,0.7C452.3,49.5,452.1,50.1,452,51 M466.5,47.1l0,1.5c-0.2-0.1-0.4-0.2-0.6-0.2
					c-0.2,0-0.4-0.1-0.6-0.1c-0.8,0-1.5,0.3-2,0.8c-0.5,0.5-0.7,1.3-0.7,2.4v4.8h-1.5v-9.1h1.5v1.4c0.3-0.6,0.7-1,1.2-1.2
					c0.5-0.3,1.1-0.4,1.8-0.4c0.1,0,0.2,0,0.3,0C466.2,47.1,466.3,47.1,466.5,47.1 M475.9,47.3l-4,10c-0.4,1.1-0.8,1.8-1.2,2.1
					c-0.4,0.3-0.9,0.5-1.6,0.5h-1.2v-1.3h0.9c0.4,0,0.7-0.1,1-0.3c0.2-0.2,0.5-0.7,0.7-1.4l0.3-0.7l-3.7-9h1.6l2.9,7.1l2.8-7.1
					H475.9z"/>
				<path class="st0" d="M384.7,40v-6.3h4v0.7h-3.1v1.9h3V37h-3v2.3h3.2V40H384.7z M391.8,36.6l-1.9-2.9h0.9l1.6,2.3l1.6-2.3h0.9
					l-2,3l2.1,3.3H394l-1.8-2.7l-1.8,2.7h-0.9L391.8,36.6z M397.9,34.4h-1.1v2.3h1.1c0.4,0,0.7-0.1,0.9-0.3c0.2-0.2,0.3-0.5,0.3-0.9
					c0-0.4-0.1-0.7-0.3-0.9C398.6,34.5,398.3,34.4,397.9,34.4 M396,40v-6.3h1.9c0.7,0,1.2,0.2,1.6,0.5c0.4,0.3,0.5,0.8,0.5,1.4
					c0,0.6-0.2,1.1-0.5,1.4c-0.4,0.3-0.9,0.5-1.6,0.5h-1.1V40H396z M401.2,40v-6.3h0.9v5.5h3.1V40H401.2z M408.2,34.3
					c-0.6,0-1.1,0.2-1.5,0.7c-0.4,0.5-0.5,1.1-0.5,1.9c0,0.8,0.2,1.4,0.5,1.9c0.4,0.5,0.9,0.7,1.5,0.7c0.6,0,1.1-0.2,1.5-0.7
					c0.4-0.5,0.5-1.1,0.5-1.9c0-0.8-0.2-1.4-0.5-1.9C409.3,34.5,408.9,34.3,408.2,34.3 M408.2,33.6c0.9,0,1.6,0.3,2.1,0.9
					c0.5,0.6,0.8,1.4,0.8,2.4c0,1-0.3,1.8-0.8,2.4c-0.5,0.6-1.2,0.9-2.1,0.9c-0.9,0-1.6-0.3-2.1-0.9c-0.5-0.6-0.8-1.4-0.8-2.4
					c0-1,0.3-1.8,0.8-2.4C406.7,33.9,407.4,33.6,408.2,33.6 M415.4,37c0.2,0.1,0.4,0.2,0.5,0.4c0.2,0.2,0.3,0.5,0.5,0.8l0.9,1.7
					h-0.9l-0.8-1.6c-0.2-0.4-0.4-0.7-0.6-0.8c-0.2-0.1-0.5-0.2-0.8-0.2h-0.9V40h-0.9v-6.3h1.9c0.7,0,1.3,0.2,1.6,0.5
					c0.3,0.3,0.5,0.7,0.5,1.4c0,0.4-0.1,0.7-0.3,1C416,36.7,415.8,36.9,415.4,37 M414.4,34.4h-1.1v2.2h1.1c0.4,0,0.7-0.1,0.9-0.3
					c0.2-0.2,0.3-0.5,0.3-0.8c0-0.4-0.1-0.6-0.3-0.8C415.1,34.5,414.8,34.4,414.4,34.4 M418.4,40v-6.3h4v0.7h-3.1v1.9h3V37h-3v2.3
					h3.2V40H418.4z M426.6,33.7h0.9V40h-0.9V33.7z M428.3,34.4v-0.7h5.3v0.7h-2.2V40h-0.9v-5.6H428.3z M439.7,34.3
					c-0.6,0-1.1,0.2-1.5,0.7c-0.4,0.5-0.5,1.1-0.5,1.9c0,0.8,0.2,1.4,0.5,1.9c0.4,0.5,0.9,0.7,1.5,0.7c0.6,0,1.1-0.2,1.5-0.7
					c0.4-0.5,0.5-1.1,0.5-1.9c0-0.8-0.2-1.4-0.5-1.9C440.8,34.5,440.3,34.3,439.7,34.3 M439.7,33.6c0.9,0,1.6,0.3,2.1,0.9
					c0.5,0.6,0.8,1.4,0.8,2.4c0,1-0.3,1.8-0.8,2.4c-0.5,0.6-1.2,0.9-2.1,0.9c-0.9,0-1.6-0.3-2.1-0.9c-0.5-0.6-0.8-1.4-0.8-2.4
					c0-1,0.3-1.8,0.8-2.4C438.1,33.9,438.8,33.6,439.7,33.6 M443.9,40v-6.3h1.1l2.8,5.2v-5.2h0.8V40h-1.1l-2.8-5.2V40H443.9z"/>
				<path class="st0" d="M366.8,48.5h1l-0.5-1.2L366.8,48.5z M374,33.7h-11.2c-5.3,0-7.2,1.9-7.2,7.2V52c0,5.3,1.9,7.2,7.2,7.2H374
					c5.3,0,7.2-1.9,7.2-7.2V40.9C381.1,35.6,379.2,33.7,374,33.7z M361.3,49.8h-0.7v-1.4h-1.5v1.4h-0.7v-3.3h0.7v1.3h1.5v-1.3h0.7
					V49.8z M365.2,48.4c0,1-0.5,1.5-1.4,1.5c-0.9,0-1.4-0.5-1.4-1.5v-1.9h0.7v1.9c0,0.6,0.3,0.9,0.8,0.9c0.5,0,0.8-0.3,0.8-0.8v-1.9
					h0.7V48.4z M364.1,38h0.6c0,2,1.6,3.6,3.7,3.6c2,0,3.7-1.6,3.7-3.6h0.6c0,2.3-1.9,4.2-4.2,4.2C366,42.2,364.1,40.3,364.1,38z
					 M368.3,49.8l-0.3-0.7h-1.5l-0.3,0.7h-0.7l1.5-3.3h0.6l1.5,3.3H368.3z M372.6,49.8H372l-0.8-2.2l-0.8,2.2H370l-1.2-3.3h0.7
					l0.7,2.3l0.7-2.3h0.6l0.8,2.3l0.7-2.3h0.7L372.6,49.8z M376.8,49.8h-2.5v-3.3h2.5v0.6H375v0.7h1.2v0.6H375v0.8h1.9V49.8z
					 M378.3,49.8h-0.7v-3.3h0.7V49.8z"/>
			</g>
		</g>
	</g>
</g>
</svg>
