<?xml version="1.0" encoding="utf-8"?>
<!-- Generator: Adobe Illustrator 24.0.2, SVG Export Plug-In . SVG Version: 6.00 Build 0)  -->
<svg version="1.1" id="Layer_1" xmlns="http://www.w3.org/2000/svg" xmlns:xlink="http://www.w3.org/1999/xlink" x="0px" y="0px"
	 viewBox="18 20 140 52" style="enable-background:new 18 20 140 52;" xml:space="preserve">
<style type="text/css">
	.st0{fill:#FFFFFF;}
</style>
<g>
	<g>
		<g>
			<g>
				<path class="st0" d="M39,34.9h2.5c0.2,0,0.3-0.1,0.3-0.3c0-0.2-0.1-0.3-0.3-0.3H39c-0.2,0-0.3,0.1-0.3,0.3
					C38.7,34.8,38.8,34.9,39,34.9z M40.3,56.9c-0.7,0-1.3,0.6-1.3,1.3c0,0.7,0.6,1.3,1.3,1.3c0.7,0,1.3-0.6,1.3-1.3
					C41.6,57.5,41,56.9,40.3,56.9z M33.8,55.8h12.8v-19H33.8V55.8z M75,49.6c-0.6,0-1.2,0.2-1.7,0.6c-0.5,0.4-0.8,0.9-1,1.6
					c-0.1,0.3-0.1,0.6-0.1,0.8v1.8c0,0.8,0.2,1.5,0.7,2c0.5,0.6,1.1,0.8,1.9,0.8c0.9,0,1.7-0.4,2.2-1.1c0.5-0.7,0.8-1.7,0.8-2.8
					c0-1.1-0.2-2-0.7-2.7C76.6,49.9,75.9,49.6,75,49.6z M119.9,49.4c-1,0-1.7,0.4-2.3,1.3c-0.4,0.7-0.7,1.6-0.7,2.7
					c0,1,0.2,1.9,0.7,2.6c0.5,0.9,1.3,1.3,2.2,1.3c0.9,0,1.7-0.4,2.2-1.3c0.5-0.7,0.7-1.6,0.7-2.6c0-1-0.2-1.9-0.7-2.6
					C121.6,49.9,120.9,49.4,119.9,49.4z M87.2,49.6c-0.6,0-1.2,0.2-1.7,0.6c-0.5,0.4-0.8,0.9-1,1.6c-0.1,0.3-0.1,0.6-0.1,0.8v1.8
					c0,0.8,0.2,1.5,0.7,2c0.5,0.6,1.1,0.8,1.9,0.8c0.9,0,1.7-0.4,2.2-1.1c0.5-0.7,0.8-1.7,0.8-2.8c0-1.1-0.2-2-0.7-2.7
					C88.8,49.9,88.1,49.6,87.2,49.6z M61.7,45.6L61.7,45.6c-0.2,0.7-0.4,1.6-0.8,2.9l-1.3,4h4.1l-1.3-4
					C62.3,48.1,62.1,47.1,61.7,45.6z M138.6,49.3c-0.8,0-1.5,0.3-2,1c-0.4,0.5-0.7,1.2-0.7,1.9h5.1c0-0.7-0.1-1.4-0.5-1.9
					C140.2,49.6,139.5,49.3,138.6,49.3z M72.6,38.3c0-0.1,0-0.2,0-0.3v-0.8c-1,0-2,0.2-2,1.1c0,0.6,0.4,0.8,0.8,0.8
					C72,39.1,72.4,38.8,72.6,38.3z M59.1,34.8c-0.2-0.5-0.3-1-0.4-1.5h0c-0.1,0.5-0.2,1-0.4,1.5l-0.6,1.9h2L59.1,34.8z M140.9,34.2
					c1.9,0,2.5,1.5,2.5,2.8c0,0.3,0,0.5,0,0.6h-3.8c0,1,0.8,1.5,1.8,1.5c0.7,0,1.1-0.1,1.6-0.3l0.2,1c-0.5,0.2-1.2,0.4-2,0.4
					c-1.9,0-2.9-1.1-2.9-2.9C138.1,35.7,139.1,34.2,140.9,34.2z M118,34.3l0.1,0.9h0c0.3-0.4,0.9-1,1.8-1c1,0,2,0.6,2,2.5V40h-1.4
					v-3.2c0-0.8-0.3-1.4-1.1-1.4c-0.6,0-1,0.4-1.1,0.8c0,0.1-0.1,0.3-0.1,0.5V40h-1.4v-4c0-0.7,0-1.2,0-1.7H118z M102.9,34.2
					c1.9,0,2.5,1.5,2.5,2.8c0,0.3,0,0.5,0,0.6h-3.8c0,1,0.8,1.5,1.8,1.5c0.7,0,1.1-0.1,1.6-0.3l0.2,1c-0.5,0.2-1.2,0.4-2,0.4
					c-1.9,0-2.9-1.1-2.9-2.9C100.1,35.7,101,34.2,102.9,34.2z M96.9,31.7h1.4V40h-1.4V31.7z M85.5,35.2c-0.6,0-1.2,0.2-1.5,0.4
					l-0.3-0.9c0.4-0.3,1.2-0.5,2.1-0.5c1.8,0,2.4,1.2,2.4,2.4v2.1c0,0.5,0,1,0.1,1.4h-1.3l-0.1-0.6h0c-0.3,0.4-0.9,0.8-1.7,0.8
					c-1.2,0-1.8-0.8-1.8-1.7c0-1.4,1.3-2.2,3.4-2.2v-0.1C86.7,35.8,86.5,35.2,85.5,35.2z M77,31.9c0.5,0,0.8,0.3,0.8,0.8
					c0,0.4-0.3,0.8-0.8,0.8c-0.5,0-0.8-0.4-0.8-0.8C76.1,32.3,76.5,31.9,77,31.9z M77.7,34.3V40h-1.4v-5.7H77.7z M57.8,32.1h1.8
					l2.6,7.9h-1.6L60,37.8h-2.5L56.8,40h-1.5L57.8,32.1z M48.2,58.4c0,1.4-1.1,2.5-2.5,2.5H34.8c-1.4,0-2.5-1.1-2.5-2.5V34.3
					c0-1.4,1.1-2.5,2.5-2.5h10.8c1.4,0,2.5,1.1,2.5,2.5V58.4z M65.6,58.9l-1.4-4.5h-5l-1.4,4.5h-2.6l5-15.4h3.1l5,15.4H65.6z
					 M66.2,40h-1.4l-2.1-5.7h1.6l0.9,2.9c0.2,0.5,0.3,1,0.4,1.4h0c0.1-0.5,0.2-0.9,0.4-1.4l0.9-2.9h1.5L66.2,40z M69.2,38.5
					c0-1.4,1.3-2.2,3.4-2.2v-0.1c0-0.4-0.2-1-1.2-1c-0.6,0-1.1,0.2-1.5,0.4l-0.3-0.9c0.4-0.3,1.2-0.5,2.1-0.5c1.8,0,2.4,1.2,2.4,2.4
					v2.1c0,0.5,0,1,0.1,1.4h-1.3l-0.1-0.6h0c-0.3,0.4-0.9,0.8-1.7,0.8C69.8,40.2,69.2,39.3,69.2,38.5z M78.8,57.7
					c-0.9,1-2.1,1.5-3.4,1.5c-1.5,0-2.5-0.5-3.2-1.6v5.8h-2.5v-12c0-1.2,0-2.4-0.1-3.6h2.2l0.1,1.8h0c0.8-1.3,2.1-2,3.7-2
					c1.3,0,2.4,0.5,3.3,1.6c0.9,1,1.3,2.4,1.3,4.1C80.4,55.1,79.8,56.6,78.8,57.7z M81.4,40h-1.4v-8.3h1.4V40z M91,57.7
					c-0.9,1-2.1,1.5-3.4,1.5c-1.5,0-2.5-0.5-3.2-1.6v5.8H82v-12c0-1.2,0-2.4-0.1-3.6H84l0.1,1.8h0c0.8-1.3,2.1-2,3.7-2
					c1.3,0,2.4,0.5,3.3,1.6c0.9,1,1.3,2.4,1.3,4.1C92.5,55.1,92,56.6,91,57.7z M92.7,40.2c-0.7,0-1.4-0.3-1.8-1h0L90.8,40h-1.2
					c0-0.4,0-1,0-1.6v-6.7h1.4v3.4h0c0.4-0.6,1-0.9,1.8-0.9c1.4,0,2.4,1.2,2.4,2.9C95.3,39.1,94,40.2,92.7,40.2z M105.1,57.8
					c-1,0.9-2.4,1.3-4.2,1.3c-1.7,0-3-0.3-4-1l0.6-2.1c1.1,0.6,2.3,1,3.6,1c0.9,0,1.7-0.2,2.2-0.6c0.5-0.4,0.8-1,0.8-1.7
					c0-0.6-0.2-1.1-0.6-1.6c-0.4-0.4-1.1-0.8-2.1-1.2c-2.7-1-4-2.5-4-4.4c0-1.3,0.5-2.3,1.4-3.1c1-0.8,2.2-1.2,3.8-1.2
					c1.4,0,2.6,0.2,3.5,0.7l-0.6,2c-0.9-0.5-1.9-0.7-3-0.7c-0.9,0-1.6,0.2-2,0.6c-0.4,0.4-0.6,0.9-0.6,1.4c0,0.6,0.2,1.1,0.7,1.5
					c0.4,0.4,1.2,0.8,2.2,1.2c1.3,0.5,2.3,1.2,2.9,1.9c0.6,0.7,0.9,1.6,0.9,2.7C106.5,55.9,106,57,105.1,57.8z M113.8,49.7h-2.7v5.4
					c0,1.4,0.5,2,1.4,2c0.4,0,0.8,0,1.1-0.1l0.1,1.9c-0.5,0.2-1.1,0.3-1.9,0.3c-1,0-1.7-0.3-2.3-0.9c-0.6-0.6-0.8-1.6-0.8-3v-5.6
					H107v-1.8h1.6v-2l2.4-0.7v2.8h2.7V49.7z M112.4,40.2c-1.6,0-2.9-1.1-2.9-2.9c0-1.9,1.2-3,3-3c1.7,0,2.8,1.2,2.8,2.9
					C115.3,39.2,113.9,40.2,112.4,40.2z M123.9,57.5c-1,1.1-2.4,1.7-4.1,1.7c-1.6,0-2.9-0.5-3.9-1.6c-1-1.1-1.4-2.4-1.4-4.1
					c0-1.7,0.5-3.1,1.5-4.2c1-1.1,2.3-1.6,4-1.6c1.6,0,2.9,0.5,3.9,1.6c0.9,1,1.4,2.4,1.4,4.1C125.4,55,124.9,56.4,123.9,57.5z
					 M126.5,34.3h0.8v-1.1l1.4-0.4v1.5h1.4v1.1h-1.4v2.5c0,0.7,0.2,1.1,0.7,1.1c0.3,0,0.4,0,0.6-0.1l0,1.1c-0.2,0.1-0.6,0.2-1,0.2
					c-0.5,0-1-0.2-1.2-0.5c-0.3-0.3-0.5-0.9-0.5-1.6v-2.7h-0.8V34.3z M132.8,50c-0.2,0-0.5-0.1-0.8-0.1c-0.9,0-1.5,0.3-2,1
					c-0.4,0.6-0.6,1.3-0.6,2.2v5.8h-2.5v-7.6c0-1.3,0-2.4-0.1-3.5h2.1l0.1,2.1h0.1c0.3-0.7,0.7-1.3,1.2-1.8c0.5-0.4,1.1-0.6,1.8-0.6
					c0.2,0,0.4,0,0.6,0V50z M133.2,36.6V40h-1.4v-8.3h1.4v3.4h0c0.2-0.3,0.4-0.5,0.7-0.6c0.3-0.2,0.6-0.3,1-0.3c1,0,2,0.6,2,2.5V40
					h-1.4v-3.2c0-0.8-0.3-1.5-1.1-1.5c-0.6,0-1,0.4-1.1,0.8C133.2,36.3,133.2,36.5,133.2,36.6z M143.3,54H136c0,1.1,0.4,1.9,1.1,2.5
					c0.6,0.5,1.4,0.8,2.4,0.8c1.1,0,2.1-0.2,3-0.5l0.4,1.7c-1,0.5-2.3,0.7-3.7,0.7c-1.7,0-3.1-0.5-4-1.5c-1-1-1.5-2.4-1.5-4.1
					c0-1.7,0.5-3.1,1.4-4.2c1-1.2,2.3-1.8,3.9-1.8c1.6,0,2.8,0.6,3.6,1.8c0.7,0.9,1,2.1,1,3.5C143.4,53.3,143.4,53.7,143.3,54z
					 M92.4,35.3c-0.6,0-1.1,0.4-1.3,1.1c0,0.1,0,0.2,0,0.4v0.9c0,0.1,0,0.2,0,0.3c0.2,0.6,0.7,1,1.3,1c0.9,0,1.5-0.7,1.5-1.9
					C93.8,36.1,93.3,35.3,92.4,35.3z M102.8,35.2c-0.9,0-1.3,0.8-1.3,1.4h2.5C104,36,103.7,35.2,102.8,35.2z M112.5,35.2
					c-1,0-1.4,1-1.4,1.9c0,1.1,0.6,1.9,1.4,1.9c0.8,0,1.4-0.8,1.4-2C113.9,36.3,113.5,35.2,112.5,35.2z M84.7,38.3
					c0,0.6,0.4,0.8,0.8,0.8c0.6,0,1-0.4,1.1-0.8c0-0.1,0-0.2,0-0.3v-0.8C85.7,37.2,84.7,37.4,84.7,38.3z M140.8,35.2
					c-0.9,0-1.3,0.8-1.3,1.4h2.5C142,36,141.8,35.2,140.8,35.2z"/>
			</g>
		</g>
		<g>
			<path class="st0" d="M148.6,70.2H27.1c-3.6,0-6.4-2.9-6.4-6.4V28.8c0-3.6,2.9-6.4,6.4-6.4h121.5c3.6,0,6.4,2.9,6.4,6.4v34.9
				C155.1,67.3,152.2,70.2,148.6,70.2z M27.1,24.1c-2.6,0-4.8,2.1-4.8,4.8v34.9c0,2.6,2.1,4.8,4.8,4.8h121.5c2.6,0,4.8-2.1,4.8-4.8
				V28.8c0-2.6-2.1-4.8-4.8-4.8H27.1z"/>
		</g>
	</g>	
</g>
</svg>
