<svg width="47" height="47" viewBox="0 0 47 47" fill="none" xmlns="http://www.w3.org/2000/svg">
<circle cx="23.5" cy="23.5" r="23.5" fill="#1E3D89"/>
<path d="M29.2543 32H17.2793V30.05L23.6543 24.1C24.671 23.1333 25.446 22.2583 25.9793 21.475C26.5293 20.6917 26.8043 19.8833 26.8043 19.05C26.8043 18.4333 26.6543 17.875 26.3543 17.375C26.071 16.875 25.671 16.475 25.1543 16.175C24.6376 15.875 24.0376 15.725 23.3543 15.725C22.4043 15.725 21.5376 15.9917 20.7543 16.525C19.971 17.0417 19.2876 17.775 18.7043 18.725L17.0793 17.2C17.9293 16.05 18.8793 15.1833 19.9293 14.6C20.996 14.0167 22.171 13.725 23.4543 13.725C24.6043 13.725 25.6043 13.9667 26.4543 14.45C27.3043 14.9167 27.9626 15.55 28.4293 16.35C28.9126 17.15 29.1543 18.0583 29.1543 19.075C29.1543 19.8417 28.9876 20.575 28.6543 21.275C28.3376 21.975 27.8626 22.6917 27.2293 23.425C26.596 24.1583 25.7876 24.9667 24.8043 25.85C24.3043 26.3167 23.796 26.7917 23.2793 27.275C22.7626 27.7417 22.246 28.2083 21.7293 28.675C21.2293 29.1417 20.7293 29.6 20.2293 30.05H29.2543V32Z" fill="white"/>
</svg>
