<svg width="47" height="47" viewBox="0 0 47 47" fill="none" xmlns="http://www.w3.org/2000/svg">
<circle cx="23.5" cy="23.5" r="23.5" fill="#1E3D89"/>
<path d="M16.2822 29.225L17.9072 27.7C18.5072 28.5333 19.2239 29.1917 20.0572 29.675C20.8906 30.1583 21.8322 30.4 22.8822 30.4C24.0989 30.4 25.0739 30.0833 25.8072 29.45C26.5572 28.8 26.9322 27.975 26.9322 26.975C26.9322 26.2917 26.7489 25.7083 26.3822 25.225C26.0156 24.725 25.5156 24.35 24.8822 24.1C24.2489 23.8333 23.5322 23.7 22.7322 23.7H21.0072V21.7H22.7322C23.4322 21.7 24.0572 21.575 24.6072 21.325C25.1739 21.075 25.6156 20.7333 25.9322 20.3C26.2656 19.85 26.4322 19.3333 26.4322 18.75C26.4322 17.85 26.1072 17.125 25.4572 16.575C24.8239 16.0083 23.9906 15.725 22.9572 15.725C21.9906 15.725 21.1322 15.9667 20.3822 16.45C19.6322 16.9167 18.9739 17.575 18.4072 18.425L16.7822 16.9C17.5822 15.9 18.4989 15.125 19.5322 14.575C20.5822 14.0083 21.7322 13.725 22.9822 13.725C24.1489 13.725 25.1656 13.9417 26.0322 14.375C26.9156 14.8083 27.6072 15.4 28.1072 16.15C28.6072 16.8833 28.8572 17.7167 28.8572 18.65C28.8572 19.4833 28.5989 20.2333 28.0822 20.9C27.5822 21.5667 26.8739 22.0917 25.9572 22.475C25.0572 22.8417 24.0156 23.025 22.8322 23.025L23.1822 22.1C24.3989 22.1 25.4739 22.3167 26.4072 22.75C27.3406 23.1667 28.0656 23.7417 28.5822 24.475C29.0989 25.2083 29.3572 26.0583 29.3572 27.025C29.3572 28.0417 29.0822 28.9583 28.5322 29.775C27.9989 30.575 27.2489 31.2167 26.2822 31.7C25.3156 32.1667 24.1989 32.4 22.9322 32.4C21.5822 32.4 20.3406 32.125 19.2072 31.575C18.0906 31.0083 17.1156 30.225 16.2822 29.225Z" fill="white"/>
</svg>
