<svg width="29" height="25" viewBox="0 0 29 25" fill="none" xmlns="http://www.w3.org/2000/svg">
<g clip-path="url(#clip0_1_73)">
<path d="M25 1C26.6 1 28 2.4 28 4.1V19V22.9C28 23.1 27.8 23.3 27.7 23.3C27.6 23.3 27.6 23.3 27.5 23.2L23.2 19.5C22.1 18.5 20.6 18 19.1 18H4C2.4 18 1 16.6 1 14.9V4.1C1 2.4 2.3 1 4 1H25ZM25 0H4C1.8 0 0 1.8 0 4.1V15C0 17.2 1.8 19 4 19H19.2C20.5 19 21.7 19.4 22.6 20.3L26.9 24C27.2 24.2 27.4 24.3 27.7 24.3C28.4 24.3 29 23.7 29 22.9V19V4.1C29 1.8 27.2 0 25 0Z" fill="#575756"/>
<path d="M8.5 11C9.32843 11 10 10.3284 10 9.5C10 8.67157 9.32843 8 8.5 8C7.67157 8 7 8.67157 7 9.5C7 10.3284 7.67157 11 8.5 11Z" fill="#575756"/>
<path d="M14.5 11C15.3284 11 16 10.3284 16 9.5C16 8.67157 15.3284 8 14.5 8C13.6716 8 13 8.67157 13 9.5C13 10.3284 13.6716 11 14.5 11Z" fill="#575756"/>
<path d="M20.5 11C21.3284 11 22 10.3284 22 9.5C22 8.67157 21.3284 8 20.5 8C19.6716 8 19 8.67157 19 9.5C19 10.3284 19.6716 11 20.5 11Z" fill="#575756"/>
</g>
<defs>
<clipPath id="clip0_1_73">
<rect width="29" height="24.2" fill="white"/>
</clipPath>
</defs>
</svg>
