<svg width="20" height="92" viewBox="0 0 20 92" fill="none" xmlns="http://www.w3.org/2000/svg">
<g clip-path="url(#clip0_3_216)">
<path d="M0 82.9319C0 79.3047 2.62295 73.6989 9.67213 73.6989C15.5738 73.6989 19.0164 77.9857 19.0164 83.0968C19.0164 88.2079 15.7377 92 9.18033 92C4.2623 92 0 88.7025 0 82.9319ZM20 9.56272C20 17.147 12.459 49.4624 11.8033 61.9928C11.8033 62.6523 11.6393 62.9821 10.8197 62.9821H8.52459C7.70492 62.9821 7.54098 62.4875 7.54098 61.6631C6.55738 48.9677 0.327869 17.147 0.327869 11.871C0.327869 4.94624 2.95082 0 10 0C17.0492 0 20 3.46237 20 9.56272Z" fill="#E64516"/>
</g>
<defs>
<clipPath id="clip0_3_216">
<rect width="20" height="92" fill="white"/>
</clipPath>
</defs>
</svg>
