<?xml version="1.0" encoding="utf-8"?>
<!-- Generator: Adobe Illustrator 24.0.2, SVG Export Plug-In . SVG Version: 6.00 Build 0)  -->
<svg version="1.1" id="Isolation_Mode" xmlns="http://www.w3.org/2000/svg" xmlns:xlink="http://www.w3.org/1999/xlink" x="0px"
	 y="0px" viewBox="0 0 1186 344.8" style="enable-background:new 0 0 1186 344.8;" xml:space="preserve">
<style type="text/css">
	.st0{fill:#FAFAFA;}
</style>
<g>
	<polygon class="st0" points="33.5,86 88.3,86 88.3,85.9 242.6,85.9 242.6,33.1 33.5,33.1 	"/>
	<polygon class="st0" points="88.3,115 33.5,134.2 33.5,323.8 88.3,323.8 88.3,216.1 234.3,216.1 234.3,165.4 88.3,165.4 	"/>
	<rect x="335.7" y="32.7" class="st0" width="54.5" height="291"/>
	<path class="st0" d="M933.2,32.3c-45.3,0-91.9,0.4-137.2,0.4v291h54.9v-85.6h82.3C1076.6,236.9,1076.2,32.3,933.2,32.3z
		 M933.2,187.8h-82.3V84.7h82.3C1003.1,84.7,1003.5,187.8,933.2,187.8z"/>
	<path class="st0" d="M473.4,85.9h239.5V32.7c-84.4,0-155.5,0-239.5,0V85.9z"/>
	<polygon class="st0" points="565.7,323.8 620.5,323.8 620.5,115 565.7,134.2 	"/>
</g>
</svg>
