<?xml version="1.0" encoding="utf-8"?>
<!-- Generator: Adobe Illustrator 24.0.2, SVG Export Plug-In . SVG Version: 6.00 Build 0)  -->
<svg version="1.1" id="Layer_1" xmlns="http://www.w3.org/2000/svg" xmlns:xlink="http://www.w3.org/1999/xlink" x="0px" y="0px"
	 viewBox="177 20 144 52" style="enable-background:new 18 20 140 52;" xml:space="preserve">
<style type="text/css">
	.st0{fill:#FFFFFF;}
</style>
<g>
	
	<g>
		<g>
			<path class="st0" d="M314.1,70H185.7c-3.9,0-7.1-3.2-7.1-7.1V29.3c0-3.9,3.2-7.1,7.1-7.1h128.4c3.9,0,7.1,3.2,7.1,7.1v33.6
				C321.2,66.8,318,70,314.1,70z M185.7,23.9c-3,0-5.4,2.4-5.4,5.4v33.6c0,3,2.4,5.4,5.4,5.4h128.4c3,0,5.4-2.4,5.4-5.4V29.3
				c0-3-2.4-5.4-5.4-5.4H185.7z"/>
		</g>
		<g>
			<path class="st0" d="M226,36.1H225c0-0.1-0.1-0.5-0.3-1.1h-1.4c-0.2,0.6-0.3,1-0.3,1.1h-0.9c0-0.1,0.2-0.7,0.7-1.9
				c0.5-1.2,0.7-1.8,0.7-2h1.1c0,0.1,0.2,0.8,0.6,1.9C225.8,35.4,226,36,226,36.1z M224.6,34.5c-0.3-1-0.5-1.6-0.5-1.7h0
				c0,0.1-0.2,0.6-0.5,1.7H224.6z"/>
			<path class="st0" d="M229.8,36.1h-0.7c0-0.1-0.3-0.5-0.8-1.3c-0.6-0.8-0.9-1.4-1-1.7h0c0,0.4,0.1,0.8,0.1,1.2c0,0.5,0,1.1,0,1.8
				h-0.7c0-0.6,0-1.3,0-2c0-0.7,0-1.3,0-1.8h0.9c0,0.1,0.2,0.5,0.7,1.3c0.5,0.8,0.8,1.3,0.9,1.6h0c0-0.4-0.1-0.8-0.1-1.2
				c0-0.5,0-1.1,0-1.6h0.7c0,0.5,0,1.1,0,1.8C229.8,34.9,229.8,35.5,229.8,36.1z"/>
			<path class="st0" d="M234.1,34.1c0,0.6-0.2,1-0.5,1.5c-0.4,0.4-0.9,0.6-1.5,0.6c-0.3,0-0.7,0-1.2,0c0-0.6,0-1.3,0-2
				c0-0.7,0-1.3,0-1.8h0.5c0.1,0,0.2,0,0.4,0c0.2,0,0.3,0,0.3,0c0.7,0,1.2,0.2,1.5,0.5C233.9,33.2,234.1,33.6,234.1,34.1z
				 M233.3,34.2c0-0.4-0.1-0.7-0.3-1c-0.2-0.3-0.6-0.4-1-0.4c-0.1,0-0.2,0-0.3,0c0,0.4,0,0.8,0,1.2c0,0.5,0,0.9,0,1.4
				c0.1,0,0.3,0,0.4,0c0.4,0,0.7-0.1,0.9-0.4C233.2,34.9,233.3,34.6,233.3,34.2z"/>
			<path class="st0" d="M238,36.1h-0.9c-0.2-0.7-0.4-1.1-0.5-1.3c-0.1-0.2-0.3-0.2-0.6-0.2c-0.1,0-0.2,0-0.3,0c0,0.5,0,1,0,1.5h-0.8
				c0-0.6,0-1.3,0-2c0-0.7,0-1.3,0-1.8h0.5c0.1,0,0.2,0,0.4,0c0.2,0,0.4,0,0.5,0c0.9,0,1.4,0.3,1.4,0.9c0,0.5-0.3,0.8-0.8,1v0
				c0.2,0.1,0.4,0.2,0.5,0.5C237.6,35,237.8,35.5,238,36.1z M236.9,33.4c0-0.4-0.3-0.6-0.8-0.6c-0.2,0-0.3,0-0.5,0
				c0,0.3,0,0.7,0,1.2c0.1,0,0.2,0,0.3,0C236.6,34.1,236.9,33.8,236.9,33.4z"/>
			<path class="st0" d="M242.3,34.1c0,0.6-0.2,1.1-0.6,1.5c-0.4,0.4-0.8,0.6-1.4,0.6c-0.5,0-1-0.2-1.3-0.5c-0.4-0.4-0.5-0.8-0.5-1.4
				c0-0.6,0.2-1.1,0.6-1.5c0.4-0.4,0.8-0.6,1.4-0.6c0.5,0,1,0.2,1.3,0.5C242.1,33.1,242.3,33.6,242.3,34.1z M241.5,34.2
				c0-0.4-0.1-0.7-0.3-1c-0.2-0.3-0.5-0.4-0.8-0.4c-0.3,0-0.5,0.1-0.7,0.4c-0.2,0.3-0.3,0.6-0.3,1c0,0.4,0.1,0.7,0.3,1
				c0.2,0.3,0.5,0.4,0.8,0.4c0.3,0,0.5-0.1,0.7-0.4C241.4,34.9,241.5,34.6,241.5,34.2z"/>
			<path class="st0" d="M244,36.1h-0.8c0-0.6,0-1.3,0-2c0-0.7,0-1.3,0-1.8h0.8c0,0.5,0,1.1,0,1.8C243.9,34.9,243.9,35.5,244,36.1z"
				/>
			<path class="st0" d="M248.3,34.1c0,0.6-0.2,1-0.5,1.5c-0.4,0.4-0.9,0.6-1.5,0.6c-0.3,0-0.7,0-1.2,0c0-0.6,0-1.3,0-2
				c0-0.7,0-1.3,0-1.8h0.5c0.1,0,0.2,0,0.4,0c0.2,0,0.3,0,0.3,0c0.7,0,1.2,0.2,1.5,0.5C248.1,33.2,248.3,33.6,248.3,34.1z
				 M247.4,34.2c0-0.4-0.1-0.7-0.3-1c-0.2-0.3-0.6-0.4-1-0.4c-0.1,0-0.2,0-0.3,0c0,0.4,0,0.8,0,1.2c0,0.5,0,0.9,0,1.4
				c0.1,0,0.3,0,0.4,0c0.4,0,0.7-0.1,0.9-0.4C247.3,34.9,247.4,34.6,247.4,34.2z"/>
			<path class="st0" d="M253.9,36.1H253c0-0.1-0.1-0.5-0.3-1.1h-1.4c-0.2,0.6-0.3,1-0.3,1.1h-0.9c0-0.1,0.2-0.7,0.7-1.9
				c0.5-1.2,0.7-1.8,0.7-2h1.1c0,0.1,0.2,0.8,0.6,1.9C253.7,35.4,253.9,36,253.9,36.1z M252.6,34.5c-0.3-1-0.5-1.6-0.5-1.7h0
				c0,0.1-0.2,0.6-0.5,1.7H252.6z"/>
			<path class="st0" d="M257.4,33.3c0,0.5-0.2,0.8-0.5,1c-0.3,0.2-0.8,0.3-1.3,0.3c-0.1,0-0.2,0-0.2,0c0,0.4,0,0.9,0,1.5h-0.8
				c0-0.6,0-1.2,0-2c0-0.7,0-1.3,0-1.8h0.5c0.1,0,0.2,0,0.4,0c0.2,0,0.4,0,0.5,0c0.4,0,0.7,0.1,0.9,0.3
				C257.3,32.7,257.4,32.9,257.4,33.3z M256.6,33.5c0-0.4-0.3-0.6-0.8-0.6c-0.1,0-0.3,0-0.4,0c0,0.4,0,0.8,0,1.3c0,0,0.1,0,0.2,0
				C256.3,34.1,256.6,33.9,256.6,33.5z"/>
			<path class="st0" d="M260.9,33.3c0,0.5-0.2,0.8-0.5,1c-0.4,0.2-0.8,0.3-1.3,0.3c-0.1,0-0.2,0-0.2,0c0,0.4,0,0.9,0,1.5h-0.8
				c0-0.6,0-1.2,0-2c0-0.7,0-1.3,0-1.8h0.5c0.1,0,0.2,0,0.4,0c0.2,0,0.4,0,0.5,0c0.4,0,0.7,0.1,0.9,0.3
				C260.8,32.7,260.9,32.9,260.9,33.3z M260.2,33.5c0-0.4-0.3-0.6-0.8-0.6c-0.1,0-0.3,0-0.4,0c0,0.4,0,0.8,0,1.3c0,0,0.1,0,0.2,0
				C259.8,34.1,260.2,33.9,260.2,33.5z"/>
			<path class="st0" d="M266.7,34.1c0,0.6-0.2,1.1-0.6,1.5c-0.4,0.4-0.8,0.6-1.4,0.6c-0.5,0-1-0.2-1.3-0.5c-0.4-0.4-0.5-0.8-0.5-1.4
				c0-0.6,0.2-1.1,0.6-1.5c0.4-0.4,0.8-0.6,1.4-0.6c0.5,0,1,0.2,1.3,0.5C266.6,33.1,266.7,33.6,266.7,34.1z M265.9,34.2
				c0-0.4-0.1-0.7-0.3-1c-0.2-0.3-0.5-0.4-0.8-0.4c-0.3,0-0.5,0.1-0.7,0.4c-0.2,0.3-0.3,0.6-0.3,1c0,0.4,0.1,0.7,0.3,1
				c0.2,0.3,0.5,0.4,0.8,0.4c0.3,0,0.5-0.1,0.7-0.4C265.8,34.9,265.9,34.6,265.9,34.2z"/>
			<path class="st0" d="M270.8,36.1H270c0-0.1-0.3-0.5-0.8-1.3c-0.6-0.8-0.9-1.4-1-1.7h0c0,0.4,0.1,0.8,0.1,1.2c0,0.5,0,1.1,0,1.8
				h-0.7c0-0.6,0-1.3,0-2c0-0.7,0-1.3,0-1.8h0.9c0,0.1,0.2,0.5,0.7,1.3c0.5,0.8,0.8,1.3,0.9,1.6h0c0-0.4-0.1-0.8-0.1-1.2
				c0-0.5,0-1.1,0-1.6h0.7c0,0.5,0,1.1,0,1.8C270.7,34.9,270.7,35.5,270.8,36.1z"/>
		</g>
		<g>
			<path class="st0" d="M235.8,48.5c0,1.9-0.6,3.4-1.7,4.6c-1.3,1.4-3,2-5,2c-2,0-3.7-0.7-5-2.1c-1.4-1.4-2.1-3.1-2.1-5.1
				c0-2,0.7-3.7,2.1-5.1c1.4-1.4,3.1-2.1,5-2.1c1,0,1.9,0.2,2.8,0.6c0.9,0.4,1.6,0.9,2.1,1.5l-1.2,1.2c-0.9-1.1-2.2-1.6-3.7-1.6
				c-1.4,0-2.7,0.5-3.7,1.5c-1.1,1-1.6,2.3-1.6,3.9c0,1.6,0.5,2.9,1.6,3.9c1.1,1,2.3,1.5,3.7,1.5c1.5,0,2.8-0.5,3.8-1.5
				c0.7-0.7,1-1.6,1.1-2.8h-5v-1.6h6.6C235.8,47.8,235.8,48.1,235.8,48.5z"/>
			<path class="st0" d="M237.9,46.5c0.9-0.9,2.1-1.4,3.5-1.4c1.4,0,2.6,0.5,3.5,1.4c0.9,0.9,1.4,2.1,1.4,3.6s-0.5,2.6-1.4,3.6
				c-0.9,0.9-2.1,1.4-3.5,1.4c-1.4,0-2.6-0.5-3.5-1.4c-0.9-0.9-1.4-2.1-1.4-3.6S237,47.5,237.9,46.5z M239.2,52.5
				c0.6,0.6,1.3,0.9,2.2,0.9c0.8,0,1.5-0.3,2.2-0.9c0.6-0.6,0.9-1.4,0.9-2.5c0-1-0.3-1.8-0.9-2.5c-0.6-0.6-1.3-0.9-2.2-0.9
				c-0.8,0-1.5,0.3-2.2,0.9c-0.6,0.6-0.9,1.4-0.9,2.5C238.3,51.1,238.6,51.9,239.2,52.5z"/>
			<path class="st0" d="M248.2,46.5c0.9-0.9,2.1-1.4,3.5-1.4c1.4,0,2.6,0.5,3.5,1.4c0.9,0.9,1.4,2.1,1.4,3.6s-0.5,2.6-1.4,3.6
				c-0.9,0.9-2.1,1.4-3.5,1.4c-1.4,0-2.6-0.5-3.5-1.4c-0.9-0.9-1.4-2.1-1.4-3.6S247.3,47.5,248.2,46.5z M249.5,52.5
				c0.6,0.6,1.3,0.9,2.2,0.9c0.8,0,1.5-0.3,2.2-0.9c0.6-0.6,0.9-1.4,0.9-2.5c0-1-0.3-1.8-0.9-2.5c-0.6-0.6-1.3-0.9-2.2-0.9
				c-0.8,0-1.5,0.3-2.2,0.9c-0.6,0.6-0.9,1.4-0.9,2.5C248.6,51.1,248.9,51.9,249.5,52.5z"/>
			<path class="st0" d="M261.6,59.2c-1.1,0-2-0.3-2.7-0.8c-0.7-0.6-1.2-1.2-1.5-1.9l1.6-0.7c0.2,0.5,0.5,0.9,1,1.3
				c0.5,0.3,1,0.5,1.6,0.5c1,0,1.7-0.3,2.3-0.9c0.6-0.6,0.8-1.4,0.8-2.4v-0.9h-0.1c-0.3,0.5-0.7,0.8-1.3,1.1
				c-0.6,0.3-1.2,0.5-1.9,0.5c-1.2,0-2.3-0.5-3.1-1.4c-0.9-1-1.3-2.1-1.3-3.6s0.4-2.6,1.3-3.6c0.9-1,1.9-1.4,3.1-1.4
				c0.7,0,1.3,0.2,1.9,0.5c0.6,0.3,1,0.7,1.3,1.1h0.1v-1.3h1.7v8.9c0,1.6-0.5,2.8-1.4,3.7C264.1,58.8,263,59.2,261.6,59.2z
				 M261.8,53.5c0.8,0,1.5-0.3,2.1-0.9c0.6-0.6,0.9-1.4,0.9-2.5c0-1-0.3-1.9-0.9-2.5c-0.6-0.6-1.3-0.9-2.1-0.9
				c-0.8,0-1.5,0.3-2.1,0.9c-0.6,0.6-0.9,1.4-0.9,2.5c0,1,0.3,1.8,0.9,2.5C260.3,53.2,261,53.5,261.8,53.5z"/>
			<path class="st0" d="M269.9,54.8h-1.8V41.1h1.8V54.8z"/>
			<path class="st0" d="M275.7,55.1c-1.4,0-2.6-0.5-3.5-1.4c-0.9-0.9-1.3-2.1-1.3-3.6c0-1.4,0.4-2.5,1.3-3.5c0.9-1,2-1.5,3.3-1.5
				c1.4,0,2.5,0.5,3.3,1.4c0.8,0.9,1.3,2.1,1.3,3.6l0,0.3h-7.4c0.1,0.9,0.4,1.7,0.9,2.2c0.6,0.5,1.3,0.8,2,0.8
				c1.3,0,2.1-0.5,2.6-1.6l1.6,0.6c-0.3,0.7-0.8,1.3-1.5,1.8C277.6,54.8,276.7,55.1,275.7,55.1z M278.2,49c0-0.5-0.3-1-0.7-1.5
				c-0.5-0.5-1.1-0.7-2-0.7c-0.7,0-1.2,0.2-1.7,0.6c-0.5,0.4-0.8,1-1,1.6H278.2z"/>
			<path class="st0" d="M287,54.8h-1.8V41.1h4.7c1.2,0,2.2,0.4,3,1.2c0.8,0.8,1.3,1.7,1.3,2.9c0,1.2-0.4,2.1-1.3,2.9
				c-0.8,0.8-1.9,1.2-3,1.2H287V54.8z M287,47.5h2.9c0.7,0,1.3-0.2,1.8-0.7c0.4-0.5,0.7-1,0.7-1.6c0-0.6-0.2-1.1-0.7-1.6
				c-0.4-0.5-1-0.7-1.8-0.7H287V47.5z"/>
			<path class="st0" d="M297.1,54.8h-1.8V41.1h1.8V54.8z"/>
			<path class="st0" d="M301.6,55.1c-1,0-1.8-0.3-2.5-0.9c-0.7-0.6-1-1.3-1-2.3c0-1,0.4-1.8,1.2-2.4c0.8-0.6,1.8-0.9,2.9-0.9
				c1,0,1.9,0.2,2.5,0.6V49c0-0.7-0.2-1.2-0.7-1.7c-0.5-0.4-1.1-0.6-1.7-0.6c-0.5,0-1,0.1-1.4,0.4c-0.4,0.2-0.7,0.6-0.9,1l-1.6-0.7
				c0.2-0.6,0.6-1.1,1.3-1.6c0.6-0.5,1.5-0.7,2.5-0.7c1.2,0,2.2,0.4,3,1.1c0.8,0.7,1.2,1.7,1.2,3v5.7h-1.7v-1.3h-0.1
				C304,54.5,303,55.1,301.6,55.1z M301.9,53.5c0.7,0,1.4-0.3,2-0.8c0.6-0.5,0.9-1.2,0.9-1.9c-0.5-0.4-1.2-0.6-2.2-0.6
				c-0.9,0-1.5,0.2-1.9,0.6c-0.4,0.4-0.7,0.8-0.7,1.3c0,0.5,0.2,0.8,0.6,1.1C300.9,53.3,301.4,53.5,301.9,53.5z"/>
			<path class="st0" d="M310.3,58.9h-1.8l2.2-4.7l-3.9-8.8h1.9l2.8,6.7h0l2.7-6.7h1.9L310.3,58.9z"/>
		</g>
		<g>
			<path class="st0" d="M189.2,47.7c0-4.4,0-8.7,0-13.1c0-0.5,0.1-1,0.5-1.4c0.1-0.2,0.3-0.2,0.4,0c2.9,3,5.9,6,8.8,9
				c1.9,1.9,3.8,3.9,5.7,5.8c0.2,0.2,0.2,0.3,0,0.5c-4.7,4.7-9.4,9.3-14,14c-0.3,0.3-0.5,0.3-0.8,0c-0.5-0.4-0.7-0.9-0.7-1.5
				c0-2.6,0-5.2,0-7.8C189.2,51.4,189.2,49.5,189.2,47.7C189.2,47.7,189.2,47.7,189.2,47.7z"/>
			<path class="st0" d="M190.9,32.6c0.4,0,0.6,0.1,0.9,0.2c6,3.4,12,6.7,18,10.1c0.3,0.2,0.3,0.2,0.1,0.4c-1.3,1.3-2.7,2.6-4,4
				c-0.1,0.1-0.2,0.2-0.4,0c-4.8-4.9-9.5-9.7-14.3-14.6C191,32.8,191,32.7,190.9,32.6z"/>
			<path class="st0" d="M192.2,62.3c4.3-4.4,8.7-8.8,13-13.2c0.3-0.3,0.4-0.2,0.6,0c1.1,1.1,2.2,2.3,3.3,3.4
				c0.2,0.2,0.2,0.3-0.1,0.4c-5.6,3.1-11.2,6.1-16.7,9.2C192.3,62.2,192.3,62.3,192.2,62.3z"/>
			<path class="st0" d="M217,47.8c0,0.5-0.3,0.8-0.6,1.1c-0.3,0.2-0.5,0.3-0.8,0.5c-1.7,0.9-3.4,1.9-5.1,2.8
				c-0.2,0.1-0.4,0.1-0.6-0.1c-1.2-1.2-2.4-2.5-3.6-3.7c-0.2-0.2-0.2-0.3,0-0.5c1.4-1.4,2.8-2.8,4.2-4.2c0.2-0.2,0.3-0.2,0.5-0.1
				c1.7,0.9,3.3,1.9,5,2.8C216.6,46.8,217,47.2,217,47.8z"/>
		</g>
	</g>
	
</g>
</svg>
