<?xml version="1.0" encoding="UTF-8" standalone="no"?>
<!-- Generator: Adobe Illustrator 24.0.2, SVG Export Plug-In . SVG Version: 6.00 Build 0)  -->

<svg
   version="1.1"
   id="Isolation_Mode"
   x="0px"
   y="0px"
   viewBox="0 0 66.7 72.4"
   style="enable-background:new 0 0 66.7 72.4;"
   xml:space="preserve"
   sodipodi:docname="icon_apparel.svgz"
   xmlns:inkscape="http://www.inkscape.org/namespaces/inkscape"
   xmlns:sodipodi="http://sodipodi.sourceforge.net/DTD/sodipodi-0.dtd"
   xmlns="http://www.w3.org/2000/svg"
   xmlns:svg="http://www.w3.org/2000/svg"><defs
   id="defs19" /><sodipodi:namedview
   id="namedview17"
   pagecolor="#ffffff"
   bordercolor="#000000"
   borderopacity="0.25"
   inkscape:showpageshadow="2"
   inkscape:pageopacity="0.0"
   inkscape:pagecheckerboard="0"
   inkscape:deskcolor="#d1d1d1" />
<style
   type="text/css"
   id="style2">
	.st0{fill:#E6461E;}
</style>
<g
   id="NewGroupe0_2_">
	<g
   id="NewGroup2-0">
		<g
   id="g12">
			<path
   class="st0"
   d="M21.1,9.3c0.5-0.2,1-0.1,1.4,0.3c1.4,1.3,5,4.1,10.1,4.4l-6-7.4c-0.6-0.7-1.2-1.2-2-1.6     c-0.1-0.1-0.3-0.1-0.4-0.2c-1.9-1-4.2-0.6-5.5,1.1c0,0.1-0.1,0.1-0.1,0.2c-1.6,2.1-1,4.4-1,4.7C18.7,10.2,19.9,9.7,21.1,9.3     L21.1,9.3z"
   id="path4" />
			<path
   class="st0"
   d="M38.7,6.7c-1.8,0.5-3.6,0.8-5.5,0.7c-1.5,0-2.9-0.3-4.3-0.6l5,6.1L38.7,6.7L38.7,6.7z"
   id="path6" />
			<path
   class="st0"
   d="M44.7,9.5c0.4-0.4,1-0.5,1.6-0.3c1.5,0.5,3.1,1.1,4.6,1.6c0.1-0.3,0.5-2.9-1.4-5c0-0.1-0.1-0.1-0.1-0.2     c-1.6-1.7-4.2-2-6.2-0.9C42.8,4.8,42.4,5,42,5.2c0,0,0,0.1-0.1,0.1l-6.8,8.6C40,13.4,43.3,10.8,44.7,9.5L44.7,9.5z"
   id="path8" />
			<path
   class="st0"
   d="M21.1,59.8c0.8-0.3,2.9-1.4,4.1-3.9c1-2.1,0.8-4.1,0.6-5.1c-0.1-0.5,0.2-1,0.7-1.1c0.5-0.1,1,0.2,1.1,0.7     c0.2,1.2,0.5,3.6-0.7,6.2c-1.5,3.1-4.1,4.4-5.1,4.8c-0.1,0-0.2,0.1-0.3,0.1c-0.4,0-0.8-0.2-0.9-0.6C20.4,60.6,20.6,60,21.1,59.8     L21.1,59.8z M41.4,50.3c0.1-0.5,0.6-0.8,1.1-0.6c0.5,0.1,0.8,0.6,0.6,1.1c-0.3,1-0.6,2.9,0.2,5.1c1,2.6,3,3.8,3.8,4.2     c0.5,0.2,0.7,0.8,0.4,1.2c-0.1,0.3-0.4,0.5-0.8,0.5c-0.2,0-0.3,0-0.5-0.1c-1-0.5-3.5-2-4.8-5.2C40.7,53.9,41.1,51.5,41.4,50.3     L41.4,50.3z M7.2,66.2v2C7.2,68.7,7.5,69,8,69h4.6c0.5,0,0.8-0.4,0.8-0.8v-1.7c0.5-0.1,0.9-0.4,1-0.9l2.8-23.3l1.4,24.3h31.7     l0.5-25L54,65.3c0.1,0.4,0.3,0.7,0.6,0.8v1.6c0,0.5,0.4,0.8,0.8,0.8H60c0.5,0,0.8-0.4,0.8-0.8v-1.8c0.2-0.2,0.4-0.4,0.4-0.7     c1.4-7.9,2.5-20-0.8-34c-1.4-6-3.3-11.1-5.3-15.4c-0.4-1-1.2-1.7-2.2-2.1c-2.5-0.9-5-1.8-7.5-2.7c-0.1,0-0.2,0-0.2,0.1     c-0.7,0.7-3.2,3.2-7.2,4.4v21.3c0.4,0.3,0.6,0.8,0.6,1.3c0,0.9-0.8,1.6-1.7,1.6c-1,0-1.7-0.7-1.7-1.6c0-0.5,0.2-1,0.6-1.3V16.1     c-0.8,0.1-1.7,0.2-2.6,0.2c-0.4,0-0.8,0-1.2-0.1v21.7c0.4,0.3,0.6,0.8,0.6,1.3c0,0.9-0.8,1.6-1.7,1.6c-1,0-1.7-0.7-1.7-1.6     c0-0.5,0.2-1,0.6-1.3V16.1c0-0.1,0-0.2,0.1-0.3c-4.3-1.1-7.1-3.7-7.8-4.5c-0.1-0.1-0.2-0.1-0.2,0l-7,3c-0.9,0.4-1.7,1.2-2.1,2.1     C10,22.8,7.2,31.6,6.1,42.3c-1,9.1-0.5,17,0.4,23.1C6.5,65.8,6.8,66.1,7.2,66.2L7.2,66.2z"
   id="path10" />
		</g>
	</g>
</g>
</svg>
