<?xml version="1.0" encoding="UTF-8" standalone="no"?>
<!-- Generator: Adobe Illustrator 24.0.2, SVG Export Plug-In . SVG Version: 6.00 Build 0)  -->

<svg
   version="1.1"
   id="Isolation_Mode"
   x="0px"
   y="0px"
   viewBox="0 0 71.4 72.4"
   style="enable-background:new 0 0 71.4 72.4;"
   xml:space="preserve"
   sodipodi:docname="icon_Experiences.svgz"
   xmlns:inkscape="http://www.inkscape.org/namespaces/inkscape"
   xmlns:sodipodi="http://sodipodi.sourceforge.net/DTD/sodipodi-0.dtd"
   xmlns="http://www.w3.org/2000/svg"
   xmlns:svg="http://www.w3.org/2000/svg"><defs
   id="defs11" /><sodipodi:namedview
   id="namedview9"
   pagecolor="#ffffff"
   bordercolor="#000000"
   borderopacity="0.25"
   inkscape:showpageshadow="2"
   inkscape:pageopacity="0.0"
   inkscape:pagecheckerboard="0"
   inkscape:deskcolor="#d1d1d1" />
<style
   type="text/css"
   id="style2">
	.st0{fill:#E6461E;}
</style>
<g
   id="g6">
	<path
   class="st0"
   d="M55.9,13.6C50.3,8,42.7,4.8,34.7,4.8c-8,0-15.6,3.2-21.2,8.8c-5.6,5.6-8.8,13.3-8.8,21.2   c0,8,3.2,15.6,8.8,21.2c5.6,5.6,13.3,8.8,21.2,8.8c8,0,15.6-3.2,21.2-8.8c5.6-5.6,8.8-13.3,8.8-21.2C64.7,26.9,61.5,19.2,55.9,13.6   z M16.8,26.1c0-3,2.4-5.5,5.5-5.5c3,0,5.5,2.4,5.5,5.5c0,3-2.4,5.5-5.5,5.5C19.3,31.6,16.8,29.1,16.8,26.1z M41.2,52.3   c-4.4,2.2-9.8,2.2-14.2,0C22.7,50.1,20,46,20,41.6h28.4C48.3,46,45.6,50.1,41.2,52.3z M46.6,31.6c-3,0-5.5-2.4-5.5-5.5   c0-3,2.4-5.5,5.5-5.5c3,0,5.5,2.4,5.5,5.5C52.1,29.1,49.6,31.6,46.6,31.6z"
   id="path4" />
</g>
</svg>
