<?xml version="1.0" encoding="utf-8"?>
<!-- Generator: Adobe Illustrator 24.0.2, SVG Export Plug-In . SVG Version: 6.00 Build 0)  -->
<svg version="1.1" id="Layer_1" xmlns="http://www.w3.org/2000/svg" xmlns:xlink="http://www.w3.org/1999/xlink" x="0px" y="0px"
	 viewBox="0 0 270.2 274.2" style="enable-background:new 0 0 270.2 274.2;" xml:space="preserve">
<style type="text/css">
	.st0{fill:#E6441F;}
</style>
<g>
	<path class="st0" d="M105.8,96.5c-0.4,1.9,0,3.9,1.2,5.5c1.7,2.3,4.5,3.4,7.3,2.8c0.1,0,0.1,0,0.2,0l25.1-17.9l-6-2.4
		c-2.3-0.9-4.8-1.3-7.2-1.1c-2.7,0.2-5.4,1-7.7,2.5l-9.6,6C107.3,92.9,106.2,94.6,105.8,96.5z"/>
	<path class="st0" d="M76.9,137.5l14.7,9c2.4,1.5,5.6,0.7,7.1-1.7c1.5-2.4,0.7-5.6-1.7-7.1c0,0,0,0,0,0l-14.7-9
		c-0.8-0.5-1.7-0.8-2.7-0.8c-0.4,0-0.8,0-1.2,0.1c-1.3,0.3-2.5,1.1-3.2,2.3c-0.7,1.2-0.9,2.6-0.6,3.9
		C74.9,135.7,75.7,136.8,76.9,137.5z"/>
	<path class="st0" d="M82.7,125.9l19.4,11.8c1.6,1,3.6,1.3,5.4,0.8c1.9-0.5,3.4-1.6,4.4-3.2c2.1-3.4,1-7.8-2.4-9.9l-19.4-11.8
		c-1.2-0.7-2.5-1-3.7-1c-2.4,0-4.8,1.2-6.2,3.4c-1,1.6-1.3,3.6-0.8,5.4C79.9,123.3,81.1,124.9,82.7,125.9z"/>
	<path class="st0" d="M125,170.7c0.1-0.1,0.2-0.1,0.4-0.1c15.9-2.2,31-9.6,42.4-21l21.6-21.5c1.1-1.1,1.7-2.5,1.7-4
		c0-1.5-0.6-3-1.7-4.1c-2.2-2.2-5.9-2.2-8.1,0l-18.4,15.7l-1.7,1.5c0,0-0.1,0.1-0.2,0.1l-0.5,0.5c-0.6,0.5-1.4,0.4-1.8-0.1
		c-0.5-0.6-0.4-1.4,0.1-1.8l2.4-2.1l22.8-19.9c2.7-2.7,2.7-7.3-0.1-10.1c-2.8-2.8-7.7-2.9-10.5-0.2l-21.2,18.7l-3.2,2.8
		c-0.2,0.2-0.6,0.3-0.9,0.3c-0.4,0-0.7-0.1-1-0.4c-0.2-0.3-0.3-0.6-0.3-1c0-0.3,0.2-0.7,0.4-0.9l3-2.7l21.5-19.1
		c2.7-2.8,2.7-7.3-0.1-10.1c-2.8-2.8-7.4-2.8-10.2,0l-11.7,10.2l-15.7,13.8c-0.2,0.2-0.6,0.3-0.9,0.3c-0.4,0-0.7-0.2-1-0.4
		c-0.5-0.5-0.4-1.4,0.1-1.9l2.7-2.3c0.1-0.1,0.1-0.2,0.2-0.3l13-11.4l10-8.8c1-1,1.5-2.3,1.5-3.7c0-1.4-0.6-2.8-1.6-3.8
		c-2.1-2.1-5.3-2.3-7.7-0.6l-33.9,24.1l3.6,2.2c2.2,1.4,3.8,3.5,4.4,6.1c0.6,2.5,0.2,5.2-1.2,7.4c-1.4,2.2-3.5,3.8-6.1,4.4
		c-0.8,0.2-1.6,0.3-2.3,0.3c-0.2,0-0.3,0-0.5,0c1.6,3,1.6,6.7-0.3,9.7c-1.8,3-5.1,4.7-8.4,4.7c-1.3,0-2.7-0.3-3.9-0.8
		c0.4,1.9,0.1,3.9-1,5.6c-1.1,1.8-2.8,3-4.8,3.5c-0.6,0.1-1.2,0.2-1.8,0.2c-1.4,0-2.8-0.4-4-1.1L78,141.2
		c-1.8,1.5-8.2,6.7-17.6,13.4l32.2,38.3C112.7,176.3,124.5,171,125,170.7z"/>
	<path class="st0" d="M91.9,111.5l19.4,11.8c1.6,1,3.6,1.3,5.4,0.8c1.9-0.5,3.4-1.6,4.4-3.2c1-1.6,1.3-3.6,0.8-5.4
		c-0.5-1.9-1.6-3.4-3.2-4.4l-5.6-3.4c-0.2,0-0.3,0-0.5,0c-3.1,0-6-1.5-7.9-4.1c-0.4-0.5-0.7-1.1-0.9-1.6l-4.5-2.7
		c-1.6-1-3.6-1.3-5.4-0.8c-1.9,0.5-3.4,1.6-4.4,3.2C87.5,105,88.5,109.4,91.9,111.5z"/>
	<path class="st0" d="M100.1,96l2.9,1.8c0-0.6,0.1-1.2,0.2-1.8c0.5-2.7,2.1-4.9,4.4-6.3l1.5-0.9l-3.3-2c-1.2-0.8-2.7-1-4.1-0.6
		c-1.4,0.3-2.6,1.2-3.4,2.5c-0.8,1.2-1,2.7-0.6,4.1C98,94.1,98.8,95.3,100.1,96z"/>
	<path class="st0" d="M133.7,171.7c6.3,1.8,20,5.2,29.7,4.9c0.3,0,0.6,0.1,0.9,0.3c0.1,0.1,8.5,6.7,19.4,16.6l26.1-39.7
		c-14.6-9-22.8-15.3-25.2-17.2l-15,14.9C159.7,161.3,147.2,168.3,133.7,171.7z"/>
</g>
</svg>
