<?xml version="1.0" encoding="UTF-8" standalone="no"?>
<!-- Generator: Adobe Illustrator 24.0.2, SVG Export Plug-In . SVG Version: 6.00 Build 0)  -->

<svg
   version="1.1"
   id="Isolation_Mode"
   x="0px"
   y="0px"
   viewBox="0 0 66.7 72.4"
   style="enable-background:new 0 0 66.7 72.4;"
   xml:space="preserve"
   sodipodi:docname="icon_wellness.svgz"
   xmlns:inkscape="http://www.inkscape.org/namespaces/inkscape"
   xmlns:sodipodi="http://sodipodi.sourceforge.net/DTD/sodipodi-0.dtd"
   xmlns="http://www.w3.org/2000/svg"
   xmlns:svg="http://www.w3.org/2000/svg"><defs
   id="defs13" /><sodipodi:namedview
   id="namedview11"
   pagecolor="#ffffff"
   bordercolor="#000000"
   borderopacity="0.25"
   inkscape:showpageshadow="2"
   inkscape:pageopacity="0.0"
   inkscape:pagecheckerboard="0"
   inkscape:deskcolor="#d1d1d1" />
<style
   type="text/css"
   id="style2">
	.st0{fill:#E6461E;}
</style>
<g
   id="g8">
	<path
   class="st0"
   d="M61,49.8c-4.9-3-8.6-7.2-11.3-12.2c-1.8-3.3-3.7-6.6-5.7-9.8c-1-1.6-2.5-2.7-4.2-3.4   c-3.3-1.3-6.7-1.2-10.1-0.7c-3.3,0.5-5.8,2.3-7.5,5.1c-1.4,2.4-2.8,4.8-4.1,7.2c-2.3,4.3-5,8.2-8.9,11.3c-1.2,1-2.6,1.8-3.9,2.8   C4.1,51,3.6,52.3,4,53.6c0.4,1.3,1.5,2.1,3,2c0.2,0,0.5,0,0.8,0c-0.1,0.2-0.1,0.3-0.2,0.4c-1.6,3.1-1.2,7.4,3.5,9.2   c2.1,0.2,3.8,0.5,6.4,0.8c2.6,0.3,8,1.1,10.4,1.2c-0.2,1.1,0.1,3.6,2.5,4.2c0.6,0.3,18.6-5,26.3-7.7c2.6-0.9,2.8-3.1,2.6-5.8   c-0.1-0.8-0.5-1.7-0.7-2.5c2.1,0.5,3.6-0.2,4.2-2C63.2,52.1,62.6,50.8,61,49.8 M13.5,53c-0.2,0.1-0.5,0.2-0.8,0.2   c4.2-2.5,8.1-8.9,11.4-12.8c0.2,1.6,0.3,6.4,0.5,8c0.2,1.4,0.1,1.3-1.3,1.7C20,51.1,16.8,52,13.5,53 M38.5,60.1   c0,0-8.6-0.6-9.8-0.7c-1.6,0-9-0.8-9-0.8l13.8-2.4l10.2,2.6C43.6,58.7,42,59.2,38.5,60.1 M41.9,50.4c0.3-2.3,0.6-7.3,0.9-9.8   C46,44.6,49.7,50.6,54,53.2C50,52.3,46,51.3,41.9,50.4"
   id="path4" />
	<path
   class="st0"
   d="M33.3,1.7c4.7-0.1,8.7,3.8,8.8,8.4c0.1,4.9-3.7,8.9-8.5,9c-4.8,0.1-8.8-3.7-8.9-8.5   C24.6,5.7,28.4,1.7,33.3,1.7"
   id="path6" />
</g>
</svg>
