<?xml version="1.0" encoding="UTF-8" standalone="no"?>
<!-- Generator: Adobe Illustrator 24.0.2, SVG Export Plug-In . SVG Version: 6.00 Build 0)  -->

<svg
   version="1.1"
   id="Isolation_Mode"
   x="0px"
   y="0px"
   viewBox="0 0 111.9 72.4"
   style="enable-background:new 0 0 111.9 72.4;"
   xml:space="preserve"
   sodipodi:docname="icon_beauty.svgz"
   xmlns:inkscape="http://www.inkscape.org/namespaces/inkscape"
   xmlns:sodipodi="http://sodipodi.sourceforge.net/DTD/sodipodi-0.dtd"
   xmlns="http://www.w3.org/2000/svg"
   xmlns:svg="http://www.w3.org/2000/svg"><defs
   id="defs9" /><sodipodi:namedview
   id="namedview7"
   pagecolor="#ffffff"
   bordercolor="#000000"
   borderopacity="0.25"
   inkscape:showpageshadow="2"
   inkscape:pageopacity="0.0"
   inkscape:pagecheckerboard="0"
   inkscape:deskcolor="#d1d1d1" />
<style
   type="text/css"
   id="style2">
	.st0{fill-rule:evenodd;clip-rule:evenodd;fill:#E6461E;}
</style>
<path
   class="st0"
   d="M72.7,12.5c-8.6,0-17,7.5-17,7.5s-7.8-7.5-16.1-7.5s-29,23.1-29,23.1s16.3,26.9,45.1,26.9s45.1-26.9,45.1-26.9  S81.3,12.5,72.7,12.5z M67.9,36.9c-3,0.8-6.8,3.6-11.4,3.6c-3.8,0-7.1-2.6-10-3.2c-6.6-1.3-10.6-1.3-10.6-1.3s5.4-3.3,11.3-3.3  c3.3,0,6.2,1.5,9.2,1.5c2.5,0,5-1.5,7.8-1.5c6.3,0,11.3,3.3,11.3,3.3S73,35.6,67.9,36.9z"
   id="path4" />
</svg>
