<?xml version="1.0" encoding="utf-8"?>
<!-- Generator: Adobe Illustrator 24.0.2, SVG Export Plug-In . SVG Version: 6.00 Build 0)  -->
<svg version="1.1" id="Layer_1" xmlns="http://www.w3.org/2000/svg" xmlns:xlink="http://www.w3.org/1999/xlink" x="0px" y="0px"
	 viewBox="0 0 120.7 99.3" style="enable-background:new 0 0 120.7 99.3;" xml:space="preserve">
<style type="text/css">
	.st0{fill:#DE442B;}
</style>
<path class="st0" d="M72.6,27c1,0,2-0.4,2.7-1.1c1.5-1.5,1.5-3.9,0-5.4L63,8.2c-1.5-1.5-3.9-1.5-5.4,0L45.3,20.5
	c-1.5,1.5-1.5,3.9,0,5.4c1.5,1.5,3.9,1.5,5.4,0l5.7-5.7v68.6c0,2.1,1.7,3.8,3.8,3.8c2.1,0,3.8-1.7,3.8-3.8V20.2l5.7,5.7
	C70.6,26.7,71.6,27,72.6,27z"/>
<path class="st0" d="M26.5,41H17l5.7-5.7c1.5-1.5,1.5-3.9,0-5.4c-1.5-1.5-3.9-1.5-5.4,0L5,42.1c-1.5,1.5-1.5,3.9,0,5.4l12.3,12.3
	C18.1,60.6,19,61,20,61c1,0,2-0.4,2.7-1.1c1.5-1.5,1.5-3.9,0-5.4L17,48.7h9.5c8.1,0,14.6,6.6,14.6,14.6v25.5c0,2.1,1.7,3.8,3.8,3.8
	c2.1,0,3.8-1.7,3.8-3.8V63.3C48.8,51,38.8,41,26.5,41z"/>
<path class="st0" d="M115.6,42.1l-12.3-12.3c-1.5-1.5-3.9-1.5-5.4,0c-1.5,1.5-1.5,3.9,0,5.4l5.7,5.7h-9.5c-12.3,0-22.3,10-22.3,22.3
	v25.5c0,2.1,1.7,3.8,3.8,3.8s3.8-1.7,3.8-3.8V63.3c0-8.1,6.6-14.6,14.6-14.6h9.5l-5.7,5.7c-1.5,1.5-1.5,3.9,0,5.4
	c0.8,0.8,1.7,1.1,2.7,1.1c1,0,2-0.4,2.7-1.1l12.3-12.3C117.1,46,117.1,43.6,115.6,42.1z"/>
</svg>
