<?xml version="1.0" encoding="utf-8"?>
<!-- Generator: Adobe Illustrator 24.0.2, SVG Export Plug-In . SVG Version: 6.00 Build 0)  -->
<svg version="1.1" id="Layer_1" xmlns="http://www.w3.org/2000/svg" xmlns:xlink="http://www.w3.org/1999/xlink" x="0px" y="0px"
	 viewBox="0 0 18.9 18.9" style="enable-background:new 0 0 18.9 18.9;" xml:space="preserve">
<style type="text/css">
	.st0{fill:none;stroke:#A8A8A8;stroke-linecap:round;stroke-linejoin:round;stroke-miterlimit:10;}
</style>
<path class="st0" d="M10,1C6.7,1,4,3.5,4,6.6C4,8.4,5,10.9,7,14c1.3,2,2.6,3.6,3,4c0.4-0.4,1.7-2,3-4c2-3,3-5.6,3-7.4
	C16,3.5,13.3,1,10,1z M11.8,8.3c-0.5,0.5-1.1,0.7-1.8,0.7c-0.7,0-1.3-0.3-1.8-0.7C7.7,7.9,7.5,7.2,7.5,6.6c0-0.7,0.3-1.3,0.7-1.8
	C8.7,4.3,9.3,4.1,10,4.1c0.7,0,1.3,0.3,1.8,0.7c0.5,0.5,0.7,1.1,0.7,1.8C12.5,7.2,12.2,7.9,11.8,8.3z"/>
</svg>
