<?xml version="1.0" encoding="utf-8"?>
<!-- Generator: Adobe Illustrator 24.0.2, SVG Export Plug-In . SVG Version: 6.00 Build 0)  -->
<svg version="1.1" id="Layer_1" xmlns="http://www.w3.org/2000/svg" xmlns:xlink="http://www.w3.org/1999/xlink" x="0px" y="0px"
	 viewBox="0 0 120.7 99.3" style="enable-background:new 0 0 120.7 99.3;" xml:space="preserve">
<style type="text/css">
	.st0{fill:#E34126;}
</style>
<g id="teamwork">
	<g id="Group_2">
		<g id="Group_3_00000016052205601467270450000004779958567099347363_">
			<path id="Vector_45" class="st0" d="M74.1,25.4c-5.8,0-10.5-4.7-10.5-10.5c0-5.8,4.7-10.5,10.5-10.5c5.8,0,10.5,4.7,10.5,10.5
				C84.5,20.7,79.8,25.4,74.1,25.4z"/>
		</g>
		<path id="Vector_46" class="st0" d="M101,4.4c-2.9,0.1-5.1,2.5-5.1,5.3v5.1c0,4.8-3.9,8.7-8.7,8.7h0c-2.8,4.2-7.6,7-13.1,7
			c-4.1,0-7.8-1.6-10.6-4.2c-5.1,3.2-8.6,9-8.6,15.5v15.7c0,3.4,2.7,6.1,6.1,6.1h2.6v27.4c0,1.4,1.2,2.6,2.6,2.6h6.5V66.4
			c0-1.4,1.2-2.6,2.6-2.6c1.4,0,2.6,1.2,2.6,2.6v27.4h6.5c1.4,0,2.6-1.2,2.6-2.6V34.1c10.6,0,19.2-8.6,19.2-19.2V9.6
			C106.3,6.7,103.9,4.3,101,4.4z"/>
		<path id="Vector_47" class="st0" d="M39.2,23.6c-5.3,0-9.6-4.3-9.6-9.6s4.3-9.6,9.6-9.6c5.3,0,9.6,4.3,9.6,9.6
			S44.5,23.6,39.2,23.6z"/>
		<g id="Group_4_00000112610262943473262700000009982048995644330672_">
			<path id="Vector_48" class="st0" d="M50.5,23.6c-2.7,3.2-6.8,5.2-11.3,5.2c-3.9,0-7.5-1.5-10.1-4c-6.8,2.7-11.7,9.3-11.7,17.1
				v15.7c0,3.4,2.7,6.1,6.1,6.1h2.6v27.4c0,1.4,1.2,2.6,2.6,2.6h6.5V66.4c0-1.4,1.2-2.6,2.6-2.6c1.4,0,2.6,1.2,2.6,2.6v27.4H47
				c1.4,0,2.6-1.2,2.6-2.6V41.9c0-7.4,3.4-14,8.8-18.3H50.5z"/>
		</g>
	</g>
</g>
</svg>
