<?xml version="1.0" encoding="utf-8"?>
<!-- Generator: Adobe Illustrator 24.0.2, SVG Export Plug-In . SVG Version: 6.00 Build 0)  -->
<svg version="1.1" id="Layer_1" xmlns="http://www.w3.org/2000/svg" xmlns:xlink="http://www.w3.org/1999/xlink" x="0px" y="0px"
	 viewBox="0 0 120.7 99.3" style="enable-background:new 0 0 120.7 99.3;" xml:space="preserve">
<style type="text/css">
	.st0{fill:#E34126;}
</style>
<g>
	<path class="st0" d="M82.4,27.7c-0.3,0-0.5,0-0.8,0c0.5,2.3,0.8,4.6,0.8,7.1c0,11.1-7.6,25.5-15.4,37.2c0.8,1.5,1.8,3,2.8,4.6
		c4.9,7.8,9.9,14,10.1,14.2l2.5,3.2l2.6-3.1c0.8-1,20.4-24.9,20.4-40.1C105.4,38,95.1,27.7,82.4,27.7z"/>
</g>
<path class="st0" d="M47,4.9c-16.7,0-30.4,13.6-30.4,30.4c0,8.3,4.6,19.8,13.7,34.2C36.9,79.9,43.4,88,43.6,88.3l3.3,4.2l3.4-4.1
	c1.1-1.3,27-33,27-53C77.4,18.6,63.8,4.9,47,4.9z M32.1,39.8l0-8.5l5.2,0l0,8.5L32.1,39.8z M47.8,44.3h-5.2V26.5h5.2V44.3z
	 M58.3,49.6H53V21.4h5.2V49.6z"/>
</svg>
