<?xml version="1.0" encoding="utf-8"?>
<!-- Generator: Adobe Illustrator 24.0.2, SVG Export Plug-In . SVG Version: 6.00 Build 0)  -->
<svg version="1.1" id="Layer_1" xmlns="http://www.w3.org/2000/svg" xmlns:xlink="http://www.w3.org/1999/xlink" x="0px" y="0px"
	 viewBox="0 0 120.7 99.3" style="enable-background:new 0 0 120.7 99.3;" xml:space="preserve">
<style type="text/css">
	.st0{fill:#DE442B;}
</style>
<g>
	<path class="st0" d="M58.9,32.2c0.4,0.4,0.9,0.6,1.4,0.6c0.5,0,1-0.2,1.4-0.6l12.5-12.5c1.8-1.8,2.8-4.2,2.8-6.8s-1-5-2.8-6.8
		c-3.7-3.7-9.8-3.7-13.6,0l-0.4,0.4L60,6.1c-3.7-3.7-9.8-3.7-13.6,0c-1.8,1.8-2.8,4.2-2.8,6.8s1,5,2.8,6.8L58.9,32.2z"/>
	<path class="st0" d="M74.4,69.9l-0.8-0.5L73,70c-3.3,3.5-7.8,5.5-12.7,5.5c-4.8,0-9.3-1.9-12.7-5.5l-0.6-0.7l-0.8,0.5
		c-3,1.8-5.5,4.4-7.2,7.4c-1.8,3.1-2.7,6.7-2.7,10.3c0,2.4,2,4.4,4.4,4.4H80c2.4,0,4.4-2,4.4-4.4c0-3.6-0.9-7.2-2.7-10.3
		C79.9,74.2,77.4,71.7,74.4,69.9z"/>
	<path class="st0" d="M47.3,51.6v6.5c0,7.2,5.9,13.1,13.1,13.1c7.2,0,13.1-5.9,13.1-13.1v-6.5c0-7.2-5.9-13.1-13.1-13.1
		C53.2,38.5,47.3,44.4,47.3,51.6z"/>
	<path class="st0" d="M93.2,63.6c7.2,0,13.1-5.9,13.1-13.1V44c0-7.2-5.9-13.1-13.1-13.1c-7.2,0-13.1,5.9-13.1,13.1v6.5
		C80.1,57.7,86,63.6,93.2,63.6z"/>
	<path class="st0" d="M114.5,69.6c-1.7-3-4.2-5.6-7.2-7.4l-0.8-0.5l-0.6,0.7c-3.3,3.5-7.8,5.5-12.7,5.5c-4.8,0-9.3-1.9-12.7-5.5
		L80,61.8l-0.8,0.5c-1,0.6-1.9,1.3-2.8,2.1l-1.1,1l1.4,0.9c3.6,2.2,6.6,5.3,8.7,8.9c1.5,2.5,2.5,5.3,2.9,8.2l0.2,0.9h24.4
		c2.4,0,4.4-2,4.4-4.4C117.2,76.3,116.3,72.7,114.5,69.6z"/>
	<path class="st0" d="M44.1,66.2l1.4-0.9l-1.1-1c-0.9-0.8-1.8-1.5-2.8-2.1l-0.8-0.5l-0.6,0.7c-3.3,3.5-7.8,5.5-12.7,5.5
		c-4.8,0-9.3-1.9-12.6-5.5l-0.6-0.7l-0.8,0.5c-3,1.8-5.5,4.4-7.2,7.4c-1.8,3.1-2.7,6.7-2.7,10.3c0,2.4,2,4.4,4.4,4.4h24.4l0.2-0.9
		c0.5-2.9,1.5-5.7,2.9-8.2C37.5,71.5,40.5,68.4,44.1,66.2z"/>
	<path class="st0" d="M27.5,63.6c7.2,0,13.1-5.9,13.1-13.1V44c0-7.2-5.9-13.1-13.1-13.1c-7.2,0-13.1,5.9-13.1,13.1v6.5
		C14.4,57.7,20.3,63.6,27.5,63.6z"/>
</g>
</svg>
