<?xml version="1.0" encoding="utf-8"?>
<!-- Generator: Adobe Illustrator 24.0.2, SVG Export Plug-In . SVG Version: 6.00 Build 0)  -->
<svg version="1.1" id="Layer_1" xmlns="http://www.w3.org/2000/svg" xmlns:xlink="http://www.w3.org/1999/xlink" x="0px" y="0px"
	 viewBox="0 0 120.7 99.3" style="enable-background:new 0 0 120.7 99.3;" xml:space="preserve">
<style type="text/css">
	.st0{fill:#E34126;}
</style>
<g>
	<g>
		<path class="st0" d="M48.1,3.3C49.6,4,50,5.2,50,6.7c-0.1,3.4,0,6.8,0,10.1c0,2.1-1.9,3.4-3.7,2.5c-0.9-0.4-1.5-1.2-1.5-2.2
			c0-3.8,0-7.6,0-11.4c0-1.3,0.8-2,1.9-2.5C47.2,3.3,47.6,3.3,48.1,3.3z"/>
	</g>
	<g>
		<path class="st0" d="M48.5,41.1c0.9-0.9,1.7-1.7,2.4-2.5c7.9-7.9,15.7-15.7,23.6-23.6c2.8-2.8,6.6-3.4,9.8-1.7
			c4.8,2.5,5.9,8.9,2.2,12.8c-2.5,2.7-5.2,5.3-7.8,7.9c-0.2,0.2-0.5,0.4-0.9,0.7c3.9,2.1,5.5,5.3,4.8,9.5c2.1,0.6,3.8,1.8,4.9,3.7
			c1.1,1.9,1.4,3.9,1,6c1,0.5,1.9,0.9,2.7,1.5c3.9,2.8,4.5,8.2,1.4,11.9c-0.3,0.3-0.6,0.6-0.9,0.9C85,75,78.2,81.7,71.5,88.5
			c-2.5,2.5-5.4,3.7-8.9,3.7c-7.7-0.1-15.3,0-23,0c-1.1,0-1.9-0.3-2.7-1.1C31.4,85.7,26,80.3,20.6,74.9c-1.3-1.3-1.3-2.8,0-4.1
			c2.2-2.3,4.5-4.5,6.8-6.7c0.4-0.4,0.6-0.9,0.6-1.5c0-10.3,0-20.5-0.1-30.8c0-1.4,0.5-2.4,1.6-3.3c6.2-5,15.4-2,17.4,5.8
			C47.4,36.4,47.9,38.6,48.5,41.1z M63.7,49.7c0.1,1.6,0.6,2.5,1.8,3.1c1.2,0.5,2.4,0.4,3.4-0.6c2.6-2.6,5.3-5.2,7.8-7.8
			c1.2-1.3,1.2-3.1,0-4.3c-1.2-1.1-3-1.1-4.2,0.1c-2.6,2.6-5.3,5.2-7.8,7.9C64.1,48.6,63.9,49.4,63.7,49.7z M74.7,61.1
			c0.6-0.3,1.3-0.4,1.8-0.9c2.1-2,4.2-4.1,6.3-6.2c1.1-1.1,1-2.9-0.1-4c-1.1-1.1-2.9-1.2-4-0.2c-2.1,2-4.2,4.1-6.3,6.3
			c-0.9,0.9-1,2-0.4,3.2C72.4,60.4,73.3,60.9,74.7,61.1z M79.5,65.5c0.1,1.7,0.6,2.6,1.7,3.1c1.2,0.6,2.3,0.4,3.3-0.5
			c1.4-1.3,2.7-2.7,4.1-4c1.2-1.2,1.1-3,0-4.1c-1.2-1.2-3-1.2-4.2,0c-1.3,1.3-2.7,2.6-3.9,3.9C79.9,64.3,79.7,65.1,79.5,65.5z"/>
	</g>
	<g>
		<path class="st0" d="M58.8,19.6c-1.4-0.1-2.2-0.5-2.6-1.5c-0.5-1-0.4-2,0.4-2.8c1-1.1,2-2.1,3.1-3.1c1-0.9,2.5-0.8,3.5,0.1
			c0.9,0.9,1.1,2.5,0.2,3.5c-1,1.1-2.1,2.2-3.2,3.2C59.7,19.4,59.1,19.5,58.8,19.6z"/>
	</g>
	<g>
		<path class="st0" d="M35.9,19.7c-0.3-0.2-1-0.4-1.5-0.8c-1-0.9-2-1.9-2.9-2.9c-1-1-0.9-2.6,0.1-3.6c1-1,2.5-1,3.5-0.1c1,1,2,2,3,3
			c0.8,0.8,0.9,1.8,0.4,2.8C38.1,19.1,37.3,19.6,35.9,19.7z"/>
	</g>
</g>
</svg>
