<svg version="1.2" xmlns="http://www.w3.org/2000/svg" viewBox="0 0 154 129" width="154" height="129">
	<title>iconComp-svg</title>
	<style>
		.s0 { fill: #e6441f } 
	</style>
	<path id="Layer" fill-rule="evenodd" class="s0" d="m151 121.4v7h-15.2v-10.9h-10.7v10.9h-34.2v-27.7h-27.3v27.7h-34.2v-10.9h-10.7v10.9h-15.9v-7h6.8v-84.1c0.6-0.1 1.2-0.3 1.8-0.5 0.6-0.2 1.1-0.3 1.7-0.5 1.5-0.4 24.2-6.8 24.9-6.9v92h4v-117.6l67.8 14.8c0.6 0.1 1.5 0.4 2.2 0.4v102.4h4v-73.6c0.6 0 1.3 0.3 1.9 0.5l26 7.3c0.4 0.1 0.6 0.1 0.6 0.5v65.3zm-121.7-9.7v-10.9h-10.7v10.9zm0-18.3v-11h-10.7v11zm0-18.5v-11h-10.7v11zm0-18.5v-10.9h-10.7v10.9zm32.7 26h-10.7v11h10.7zm0-18.5h-10.7v11h10.7zm0-18.4h-10.7v10.9h10.7zm0-18.4h-10.7v11h10.7zm20.3 55.3h-10.7v11h10.7zm0-18.5h-10.7v11h10.7zm0-18.4h-10.7v10.9h10.7zm0-18.4h-10.7v11h10.7zm20.5 55.3h-10.8v11h10.8zm0-18.6h-10.4c-0.3 0-0.4 0.1-0.4 0.4v10.7h10.8zm0-18.3h-10.8v10.9h10.8zm0-18.4h-10.8v11h10.8zm32.8 73.7h-10.8v10.9h10.8zm0-18.4h-10.8v11h10.8zm0-18.6h-10.4c-0.3 0-0.4 0.1-0.4 0.4v10.7h10.8z"/>
</svg>