<?xml version="1.0" encoding="utf-8"?>
<!-- Generator: Adobe Illustrator 24.0.2, SVG Export Plug-In . SVG Version: 6.00 Build 0)  -->
<svg version="1.1" id="Layer_1" xmlns="http://www.w3.org/2000/svg" xmlns:xlink="http://www.w3.org/1999/xlink" x="0px" y="0px"
	 viewBox="0 0 120.7 99.3" style="enable-background:new 0 0 120.7 99.3;" xml:space="preserve">
<style type="text/css">
	.st0{fill:#E34126;}
</style>
<g>
	<path class="st0" d="M103.5,86.1L83.1,65.8c1.7-2.3,3.1-4.9,4.2-7.6c1.9-4.6,2.9-9.6,2.9-14.8s-1.1-10.2-2.9-14.7
		c-2-4.8-4.9-9-8.4-12.5c-3.5-3.5-7.8-6.4-12.5-8.4C61.8,6,56.8,4.9,51.7,4.9c-5.2,0-10.2,1.1-14.8,2.9c-4.7,2-9,4.9-12.5,8.4
		C20.8,19.7,18,24,16,28.8c-1.9,4.5-2.9,9.5-2.9,14.7s1.1,10.2,2.9,14.8c2,4.7,4.8,9,8.4,12.5c3.5,3.6,7.8,6.4,12.5,8.4
		C41.5,81,46.5,82,51.7,82c5.2,0,10.2-1.1,14.7-2.9c4.2-1.8,8.1-4.2,11.4-7.3l20,20.1c0.4,0.4,1,0.6,1.5,0.6h0.1
		c0.6,0,1.1-0.2,1.5-0.6l2.6-2.7c0.4-0.4,0.6-1,0.6-1.5C104.1,87.1,103.9,86.6,103.5,86.1z M51.7,75.6c-8.9,0-16.9-3.6-22.7-9.4
		c-5.8-5.8-9.4-13.8-9.4-22.7s3.6-16.9,9.4-22.7c5.8-5.8,13.8-9.4,22.7-9.4c8.8,0,16.9,3.6,22.7,9.4c5.8,5.8,9.4,13.8,9.4,22.7
		s-3.6,16.9-9.4,22.7C68.6,72,60.5,75.6,51.7,75.6z"/>
	<path class="st0" d="M69.7,40.4c-1.9,1.9-4.6,3.1-7.5,3.1s-5.6-1.2-7.5-3.1c-1.9-1.9-3.1-4.6-3.1-7.5s1.2-5.6,3.1-7.5
		c0.9-0.9,2-1.6,3.1-2.2c-2-0.6-4.1-0.9-6.2-0.9c-5.9,0-11.1,2.3-14.9,6.2c-3.8,3.8-6.2,9.1-6.2,14.9c0,5.9,2.4,11.1,6.2,14.9
		c3.8,3.8,9.1,6.2,14.9,6.2c5.8,0,11.1-2.4,14.9-6.2s6.2-9.1,6.2-14.9c0-2.2-0.3-4.2-0.9-6.2C71.3,38.4,70.6,39.5,69.7,40.4z"/>
</g>
</svg>
