<?xml version="1.0" encoding="utf-8"?>
<!-- Generator: Adobe Illustrator 24.0.2, SVG Export Plug-In . SVG Version: 6.00 Build 0)  -->
<svg version="1.1" id="Layer_1" xmlns="http://www.w3.org/2000/svg" xmlns:xlink="http://www.w3.org/1999/xlink" x="0px" y="0px"
	 viewBox="0 0 270.2 274.2" style="enable-background:new 0 0 270.2 274.2;" xml:space="preserve">
<style type="text/css">
	.st0{fill:#E6441F;}
</style>
<path class="st0" d="M209.5,175.4v-65.3c0-0.4-0.2-0.4-0.6-0.5l-26-7.3c-0.6-0.2-1.3-0.5-1.9-0.5v73.6h-2.3h-0.1H177V73
	c-0.7,0-1.6-0.3-2.2-0.4L107,57.8v117.6h-4v-92c-0.7,0.1-23.4,6.5-24.9,6.9c-0.6,0.2-1.1,0.3-1.7,0.5c-0.6,0.2-1.2,0.4-1.8,0.5v84.1
	h-6.8v7h15.9v-10.9h10.7v10.9h34.2v-27.7h27.3v27.7h23h0.1h11.1v-10.9h10.7v10.9H216v-7H209.5z M94.2,165.7H83.6v-10.9h10.7V165.7z
	 M94.2,147.4H83.6v-11h10.7V147.4z M94.2,128.9H83.6v-11h10.7V128.9z M94.2,110.4H83.6V99.5h10.7V110.4z M127,147.4h-10.7v-11H127
	V147.4z M127,128.9h-10.7v-11H127V128.9z M127,110.4h-10.7V99.5H127V110.4z M127,92.1h-10.7v-11H127V92.1z M147.3,147.4h-10.7v-11
	h10.7V147.4z M147.3,128.9h-10.7v-11h10.7V128.9z M147.3,110.4h-10.7V99.5h10.7V110.4z M147.3,92.1h-10.7v-11h10.7V92.1z
	 M167.8,147.4H157v-11h10.8V147.4z M167.8,128.9H157v-10.7c0-0.3,0.1-0.4,0.4-0.4h10.4V128.9z M167.8,110.4H157V99.5h10.8V110.4z
	 M167.8,92.1H157v-11h10.8V92.1z M200.6,165.7h-10.8v-10.9h10.8V165.7z M200.6,147.4h-10.8v-11h10.8V147.4z M200.6,128.9h-10.8
	v-10.7c0-0.3,0.1-0.4,0.4-0.4h10.4V128.9z"/>
</svg>
