<?xml version="1.0" encoding="utf-8"?>
<!-- Generator: Adobe Illustrator 24.0.2, SVG Export Plug-In . SVG Version: 6.00 Build 0)  -->
<svg version="1.1" xmlns="http://www.w3.org/2000/svg" xmlns:xlink="http://www.w3.org/1999/xlink" x="0px" y="0px"
	 viewBox="0 0 257.5 132.7" style="enable-background:new 0 0 257.5 132.7;" xml:space="preserve">
<style type="text/css">
	.st0{fill:#32292F;}
	.st1{fill:#E6401B;}
</style>
<g id="Layer_1">
</g>
<g id="Layer_2">
	<g>
		<g>
			<path class="st0" d="M93,95.1c0,2.3-1.4,4.4-4.4,4.4c-3,0-4.4-2.2-4.4-4.4c0-2.6,1.8-4.5,4.4-4.5C91.6,90.7,93,92.8,93,95.1z
				 M88.7,98.3c2.1,0,3-1.5,3-3.1c0-1.6-0.9-3.2-3-3.2c-2,0-3,1.4-3,3.2C85.7,96.7,86.5,98.3,88.7,98.3z"/>
			<path class="st0" d="M99.1,99.4v-3.2c0-1-0.6-1.7-1.6-1.7c-1,0-1.7,0.8-1.7,1.8v3.1h-1.3v-6h1.1l0.1,0.9c0.6-0.6,1.2-1,2-1
				c1.5,0,2.6,1,2.6,2.9v3.2H99.1z"/>
			<path class="st0" d="M103.2,96.8c0.1,0.9,0.9,1.5,2,1.5c0.6,0,1.4-0.2,1.7-0.6l0.8,0.8c-0.6,0.7-1.7,1-2.6,1
				c-2,0-3.2-1.3-3.2-3.2c0-1.8,1.3-3.1,3.2-3.1c1.9,0,3.3,1.2,3,3.6H103.2z M106.9,95.8c-0.1-1-0.8-1.5-1.8-1.5
				c-0.9,0-1.7,0.5-1.9,1.5H106.9z"/>
			<path class="st0" d="M112.9,102.2v-8.8h1.2l0.1,1c0.5-0.7,1.3-1.1,2.1-1.1c1.8,0,3,1.3,3,3.1c0,1.8-1.2,3.1-3,3.1
				c-0.7,0-1.7-0.3-2.1-1v3.7H112.9z M118.1,96.4c0-1.1-0.8-1.9-1.9-1.9c-1.2,0-1.9,0.8-1.9,1.9c0,1.1,0.8,1.9,1.9,1.9
				C117.2,98.3,118.1,97.5,118.1,96.4z"/>
			<path class="st0" d="M125.7,93.4h1.2c0,2,0,4,0,6h-1.2l-0.1-1c-0.4,0.8-1.3,1.1-2.1,1.1c-1.8,0-3.1-1.1-3.1-3.2
				c0-2,1.4-3.1,3.1-3.1c0.9,0,1.7,0.4,2,1.1L125.7,93.4z M121.8,96.4c0,1.2,0.9,2,2,2c2.6,0,2.6-4,0-4
				C122.7,94.4,121.8,95.1,121.8,96.4z"/>
			<path class="st0" d="M132.7,94.8c-0.5-0.4-1-0.6-1.6-0.6c-0.8,0-1.3,0.2-1.3,0.7c0,0.5,0.5,0.7,1.3,0.8c1.1,0.1,2.6,0.3,2.5,1.9
				c0,1.1-1,1.9-2.6,1.9c-1,0-2-0.2-2.7-1.1l0.7-0.9c0.6,0.6,1.4,0.9,2.1,0.9c0.6,0,1.3-0.2,1.3-0.8c0-0.5-0.5-0.7-1.4-0.8
				c-1.1-0.1-2.4-0.5-2.5-1.8c0-1.3,1.4-1.8,2.5-1.8c0.9,0,1.6,0.2,2.3,0.8L132.7,94.8z"/>
			<path class="st0" d="M139.1,94.8c-0.5-0.4-1-0.6-1.6-0.6c-0.8,0-1.3,0.2-1.3,0.7c0,0.5,0.5,0.7,1.3,0.8c1.1,0.1,2.6,0.3,2.5,1.9
				c0,1.1-1,1.9-2.6,1.9c-1,0-2-0.2-2.7-1.1l0.7-0.9c0.6,0.6,1.4,0.9,2.1,0.9c0.6,0,1.3-0.2,1.3-0.8c0-0.5-0.5-0.7-1.4-0.8
				c-1.1-0.1-2.4-0.5-2.5-1.8c0-1.3,1.4-1.8,2.5-1.8c0.9,0,1.6,0.2,2.3,0.8L139.1,94.8z"/>
			<path class="st0" d="M145.3,99.4v-4.8h-1.1v-1.1h1.1V93c0-1.5,0.9-2.3,2.2-2.3c0.5,0,1,0.2,1.5,0.5l-0.5,0.9
				c-0.3-0.2-0.6-0.3-0.9-0.3c-0.6,0-1,0.4-1,1.2v0.4h1.8v1.1h-1.8v4.8H145.3z"/>
			<path class="st0" d="M151,91.6c0,1-1.6,1-1.6,0C149.5,90.6,151,90.6,151,91.6z M149.6,93.3v6h1.3v-6H149.6z"/>
			<path class="st0" d="M154.8,91.6v1.7h1.8v1.1h-1.8v2.9c0,0.6,0.3,1,0.9,1c0.2,0,0.5-0.1,0.8-0.2l0.4,1.1
				c-0.4,0.2-0.8,0.3-1.2,0.3c-1.3,0-2-0.7-2-2.1v-2.9h-1.2v-1.1h1.2v-1.6L154.8,91.6z"/>
			<path class="st0" d="M161.9,94.8c-0.5-0.4-1-0.6-1.6-0.6c-0.8,0-1.3,0.2-1.3,0.7c0,0.5,0.5,0.7,1.3,0.8c1.1,0.1,2.6,0.3,2.5,1.9
				c0,1.1-1,1.9-2.6,1.9c-1,0-2-0.2-2.7-1.1l0.7-0.9c0.6,0.6,1.4,0.9,2.1,0.9c0.6,0,1.3-0.2,1.3-0.8c0-0.5-0.5-0.7-1.4-0.8
				c-1.1-0.1-2.4-0.5-2.5-1.8c0-1.3,1.4-1.8,2.5-1.8c0.9,0,1.6,0.2,2.3,0.8L161.9,94.8z"/>
			<path class="st0" d="M172.5,93.4h1.2c0,2,0,4,0,6h-1.2l-0.1-1c-0.4,0.8-1.3,1.1-2.1,1.1c-1.8,0-3.1-1.1-3.1-3.2
				c0-2,1.4-3.1,3.1-3.1c0.9,0,1.7,0.4,2,1.1L172.5,93.4z M168.5,96.4c0,1.2,0.9,2,2,2c2.6,0,2.6-4,0-4
				C169.4,94.4,168.5,95.1,168.5,96.4z"/>
			<path class="st0" d="M177,90.8v8.5h-1.3v-8.5H177z"/>
			<path class="st0" d="M180.3,90.8v8.5H179v-8.5H180.3z"/>
		</g>
		<g id="XMLID_156_">
			<g id="XMLID_1952_">
				<g id="XMLID_1953_">
					<polygon id="XMLID_2_" class="st0" points="73,49.6 77.2,49.6 77.2,49.6 89,49.6 89,45.6 73,45.6 					"/>
					<polygon id="XMLID_1_" class="st0" points="73,67.8 77.2,67.8 77.2,59.6 88.4,59.6 88.4,55.7 77.2,55.7 77.2,51.8 73,53.3 
											"/>
					<rect id="XMLID_1573_" x="96.1" y="45.6" class="st0" width="4.2" height="22.2"/>
					<path id="XMLID_1977_" class="st0" d="M141.8,45.5c-3.5,0-7,0-10.5,0v22.2h4.2v-6.5h6.3C152.7,61.1,152.7,45.5,141.8,45.5z
						 M141.8,57.4h-6.3v-7.9h6.3C147.1,49.5,147.1,57.4,141.8,57.4z"/>
					<path id="XMLID_1969_" class="st0" d="M162.3,45.6l-10,22.2h4.5l1.9-4.2h11.6l1.9,4.2h4.6l-10-22.2H162.3z M160.5,59.7l4.1-9.5
						l4.1,9.5H160.5z"/>
					<path id="XMLID_1960_" class="st0" d="M190.4,54.2c-2.7-0.3-5-0.9-5-2.8c0-1.7,1.5-3,4.6-3c2.4,0,4.5,1.2,5.3,2.5l3.3-1.7
						c-1.7-3.4-5.3-4.4-8.7-4.4c-4.1,0-8.6,1.9-8.6,6.5c0,5,4.2,6.2,8.7,6.7c3,0.3,5.1,1.2,5.1,3.3c0,2.4-2.5,3.3-5.1,3.3
						c-2.7,0-5.3-1.1-6.3-3.5l-3.5,1.8c1.7,4.1,5.1,5.5,9.7,5.5c5,0,9.3-2.1,9.3-7.1C199.3,56,195,54.8,190.4,54.2z"/>
					<path id="XMLID_1956_" class="st0" d="M214.3,54.2c-2.7-0.3-5-0.9-5-2.8c0-1.7,1.5-3,4.6-3c2.4,0,4.5,1.2,5.3,2.5l3.3-1.7
						c-1.7-3.4-5.3-4.4-8.7-4.4c-4.1,0-8.6,1.9-8.6,6.5c0,5,4.2,6.2,8.7,6.7c3,0.3,5.1,1.2,5.1,3.3c0,2.4-2.5,3.3-5.1,3.3
						c-2.7,0-5.3-1.1-6.3-3.5l-3.5,1.8c1.7,4.1,5.1,5.5,9.7,5.5c5,0,9.3-2.1,9.3-7.1C223.2,56,218.9,54.8,214.3,54.2z"/>
					<path id="XMLID_1955_" class="st0" d="M106.6,49.6h18.3v-4.1c-6.4,0-11.9,0-18.3,0V49.6z"/>
					<polygon id="XMLID_1954_" class="st0" points="113.7,67.8 117.9,67.8 117.9,51.8 113.7,53.3 					"/>
				</g>
			</g>
			<rect id="XMLID_1951_" x="58.5" y="45.5" class="st1" width="4.2" height="22.3"/>
			<rect id="XMLID_1942_" x="50.2" y="49.6" class="st1" width="4.2" height="14"/>
			
				<rect id="XMLID_1572_" x="41.9" y="53.4" transform="matrix(1 -1.054844e-03 1.054844e-03 1 -5.977434e-02 4.643628e-02)" class="st1" width="4.2" height="6.6"/>
		</g>
		<g>
			<g>
				<path class="st0" d="M226.5,44.3c1.4,0,2.5,1.1,2.5,2.5c0,1.4-1.1,2.6-2.6,2.6c-1.4,0-2.6-1.1-2.6-2.6
					C224,45.4,225.1,44.3,226.5,44.3L226.5,44.3z M226.5,44.7c-1.1,0-2,0.9-2,2.1c0,1.2,0.9,2.1,2,2.1c1.1,0,2-0.9,2-2.1
					C228.5,45.7,227.7,44.7,226.5,44.7L226.5,44.7z M226.1,48.2h-0.5v-2.7c0.2,0,0.5-0.1,0.9-0.1c0.4,0,0.7,0.1,0.8,0.2
					c0.1,0.1,0.3,0.3,0.3,0.6c0,0.3-0.2,0.5-0.5,0.6v0c0.2,0.1,0.4,0.3,0.4,0.6c0.1,0.4,0.1,0.6,0.2,0.7h-0.5
					c-0.1-0.1-0.1-0.3-0.2-0.7c-0.1-0.3-0.2-0.4-0.6-0.4h-0.3V48.2z M226.1,46.7h0.3c0.4,0,0.7-0.1,0.7-0.4c0-0.3-0.2-0.4-0.6-0.4
					c-0.2,0-0.3,0-0.4,0V46.7z"/>
			</g>
		</g>
	</g>
</g>
</svg>
