<svg version="1.2" xmlns="http://www.w3.org/2000/svg" viewBox="0 0 183 58" width="183" height="58">
	<title>logo-fitpass-secondary-svg</title>
	<style>
		.s0 { fill: #32292f } 
		.s1 { fill: #e6401b } 
	</style>
	<g id="Layer_1">
	</g>
	<g id="Layer_2">
		<g id="Layer">
			<g id="Layer">
				<path id="Layer" fill-rule="evenodd" class="s0" d="m53 51.1c0 2.3-1.4 4.4-4.4 4.4-3 0-4.4-2.2-4.4-4.4 0-2.6 1.8-4.5 4.4-4.5 3 0.1 4.4 2.2 4.4 4.5zm-4.3 3.2c2.1 0 3-1.5 3-3.1 0-1.6-0.9-3.2-3-3.2-2 0-3 1.4-3 3.2 0 1.5 0.8 3.1 3 3.1z"/>
				<path id="Layer" class="s0" d="m59.1 55.4v-3.2c0-1-0.6-1.7-1.6-1.7-1 0-1.7 0.8-1.7 1.8v3.1h-1.3v-6h1.1l0.1 0.9c0.6-0.6 1.2-1 2-1 1.5 0 2.6 1 2.6 2.9v3.2z"/>
				<path id="Layer" fill-rule="evenodd" class="s0" d="m63.2 52.8c0 0.3 1.4 2.5 1.6 2.7-1.8-0.1-2.9-1.4-2.9-3.2 0-1.8 1.3-3.1 3.2-3.1 1.9 0 3.3 1.2 3 3.6zm2 1.5c0.6 0 1.4-0.2 1.7-0.6l0.8 0.8c-0.6 0.7-1.7 1-2.6 1-0.1 0-1.5-1.9-1.6-1.9 0.4 0.4 1 0.7 1.7 0.7zm1.7-2.5c-0.1-1-0.8-1.5-1.8-1.5-0.9 0-1.7 0.5-1.9 1.5z"/>
				<path id="Layer" fill-rule="evenodd" class="s0" d="m72.9 58.2v-8.8h1.2l0.1 1c0.5-0.7 1.3-1.1 2.1-1.1 1.8 0 3 1.3 3 3.1 0 1.8-1.2 3.1-3 3.1-0.7 0-1.7-0.3-2.1-1v3.7zm5.2-5.8c0-1.1-0.8-1.9-1.9-1.9-1.2 0-1.9 0.8-1.9 1.9 0 1.1 0.8 1.9 1.9 1.9 1 0 1.9-0.8 1.9-1.9z"/>
				<path id="Layer" fill-rule="evenodd" class="s0" d="m85.7 49.4h1.2q0 3 0 6h-1.2l-0.1-1c-0.4 0.8-1.3 1.1-2.1 1.1-1.8 0-3.1-1.1-3.1-3.2 0-2 1.4-3.1 3.1-3.1 0.9 0 1.7 0.4 2 1.1zm-3.9 3c0 1.2 0.9 2 2 2 2.6 0 2.6-4 0-4-1.1 0-2 0.7-2 2z"/>
				<path id="Layer" class="s0" d="m92.7 50.8c-0.5-0.4-1-0.6-1.6-0.6-0.8 0-1.3 0.2-1.3 0.7 0 0.5 0.5 0.7 1.3 0.8 1.1 0.1 2.6 0.3 2.5 1.9 0 1.1-1 1.9-2.6 1.9-1 0-2-0.2-2.7-1.1l0.7-0.9c0.6 0.6 1.4 0.9 2.1 0.9 0.6 0 1.3-0.2 1.3-0.8 0-0.5-0.5-0.7-1.4-0.8-1.1-0.1-2.4-0.5-2.5-1.8 0-1.3 1.4-1.8 2.5-1.8 0.9 0 1.6 0.2 2.3 0.8z"/>
				<path id="Layer" class="s0" d="m99.1 50.8c-0.5-0.4-1-0.6-1.6-0.6-0.8 0-1.3 0.2-1.3 0.7 0 0.5 0.5 0.7 1.3 0.8 1.1 0.1 2.6 0.3 2.5 1.9 0 1.1-1 1.9-2.6 1.9-1 0-2-0.2-2.7-1.1l0.7-0.9c0.6 0.6 1.4 0.9 2.1 0.9 0.6 0 1.3-0.2 1.3-0.8 0-0.5-0.5-0.7-1.4-0.8-1.1-0.1-2.4-0.5-2.5-1.8 0-1.3 1.4-1.8 2.5-1.8 0.9 0 1.6 0.2 2.3 0.8z"/>
				<path id="Layer" class="s0" d="m105.3 55.4v-4.8h-1.1v-1.1h1.1v-0.5c0-1.5 0.9-2.3 2.2-2.3 0.5 0 1 0.2 1.5 0.5l-0.5 0.9q-0.4-0.3-0.9-0.3c-0.6 0-1 0.4-1 1.2v0.4h1.8v1.1h-1.8v4.8h-1.3z"/>
				<path id="Layer" fill-rule="evenodd" class="s0" d="m109.4 47.6c0 1 1.6 1 1.6 0 0-1-1.5-1-1.6 0zm0.2 1.7v6h1.3v-6z"/>
				<path id="Layer" class="s0" d="m114.8 47.6v1.7h1.8v1.1h-1.8v2.9c0 0.6 0.3 1 0.9 1 0.2 0 0.5-0.1 0.8-0.2l0.4 1.1q-0.6 0.3-1.2 0.3c-1.3 0-2-0.7-2-2.1v-2.9h-1.2v-1.1h1.2v-1.6z"/>
				<path id="Layer" class="s0" d="m121.9 50.8c-0.5-0.4-1-0.6-1.6-0.6-0.8 0-1.3 0.2-1.3 0.7 0 0.5 0.5 0.7 1.3 0.8 1.1 0.1 2.6 0.3 2.5 1.9 0 1.1-1 1.9-2.6 1.9-1 0-2-0.2-2.7-1.1l0.7-0.9c0.6 0.6 1.4 0.9 2.1 0.9 0.6 0 1.3-0.2 1.3-0.8 0-0.5-0.5-0.7-1.4-0.8-1.1-0.1-2.4-0.5-2.5-1.8 0-1.3 1.4-1.8 2.5-1.8 0.9 0 1.6 0.2 2.3 0.8z"/>
				<path id="Layer" fill-rule="evenodd" class="s0" d="m132.5 49.4h1.2q0 3 0 6h-1.2l-0.1-1c-0.4 0.8-1.3 1.1-2.1 1.1-1.8 0-3.1-1.1-3.1-3.2 0-2 1.4-3.1 3.1-3.1 0.9 0 1.7 0.4 2 1.1zm-4 3c0 1.2 0.9 2 2 2 2.6 0 2.6-4 0-4-1.1 0-2 0.7-2 2z"/>
				<path id="Layer" class="s0" d="m137 46.8v8.5h-1.3v-8.5z"/>
				<path id="Layer" class="s0" d="m140.3 46.8v8.5h-1.3v-8.5z"/>
			</g>
			<g id="XMLID_156_">
				<g id="XMLID_1952_">
					<g id="XMLID_1953_">
						<path id="XMLID_2_" class="s0" d="m33 5.6h4.2 11.8v-4h-16z"/>
						<path id="XMLID_1_" class="s0" d="m33 23.8h4.2v-8.2h11.2v-3.9h-11.2v-3.9l-4.2 1.5z"/>
						<path id="XMLID_1573_" class="s0" d="m56.1 1.6h4.2v22.2h-4.2z"/>
						<path id="XMLID_1977_" fill-rule="evenodd" class="s0" d="m101.8 17.2h-6.3v6.5h-4.2v-22.2q5.3 0 10.5 0c10.9 0 10.9 15.6 0 15.7zm0-11.7h-6.3v7.9h6.3c5.3 0 5.3-7.9 0-7.9z"/>
						<path id="XMLID_1969_" fill-rule="evenodd" class="s0" d="m126.8 1.6l10 22.2h-4.6l-1.9-4.2h-11.6l-1.9 4.2h-4.5l10-22.2zm1.9 14.1l-4.1-9.5-4.1 9.5z"/>
						<path id="XMLID_1960_" class="s0" d="m150.4 10.2c-2.7-0.3-5-0.9-5-2.8 0-1.7 1.5-3 4.6-3 2.4 0 4.5 1.2 5.3 2.5l3.3-1.7c-1.7-3.4-5.3-4.4-8.7-4.4-4.1 0-8.6 1.9-8.6 6.5 0 5 4.2 6.2 8.7 6.7 3 0.3 5.1 1.2 5.1 3.3 0 2.4-2.5 3.3-5.1 3.3-2.7 0-5.3-1.1-6.3-3.5l-3.5 1.8c1.7 4.1 5.1 5.5 9.7 5.5 5 0 9.3-2.1 9.3-7.1 0.1-5.3-4.2-6.5-8.8-7.1z"/>
						<path id="XMLID_1956_" class="s0" d="m174.3 10.2c-2.7-0.3-5-0.9-5-2.8 0-1.7 1.5-3 4.6-3 2.4 0 4.5 1.2 5.3 2.5l3.3-1.7c-1.7-3.4-5.3-4.4-8.7-4.4-4.1 0-8.6 1.9-8.6 6.5 0 5 4.2 6.2 8.7 6.7 3 0.3 5.1 1.2 5.1 3.3 0 2.4-2.5 3.3-5.1 3.3-2.7 0-5.3-1.1-6.3-3.5l-3.5 1.8c1.7 4.1 5.1 5.5 9.7 5.5 5 0 9.3-2.1 9.3-7.1 0.1-5.3-4.2-6.5-8.8-7.1z"/>
						<path id="XMLID_1955_" class="s0" d="m66.6 5.6h18.3v-4.1c-6.4 0-11.9 0-18.3 0z"/>
						<path id="XMLID_1954_" class="s0" d="m73.7 23.8h4.2v-16l-4.2 1.5z"/>
					</g>
				</g>
				<path id="XMLID_1951_" class="s1" d="m18.5 1.5h4.2v22.3h-4.2z"/>
				<path id="XMLID_1942_" class="s1" d="m10.2 5.6h4.2v14h-4.2z"/>
				<path id="XMLID_1572_" class="s1" d="m1.9 9.4h4.2v6.6h-4.2z"/>
			</g>
			<g id="Layer">
				<g id="Layer">
					<path id="Layer" fill-rule="evenodd" class="s0" d="m186.5 0.3c1.4 0 2.5 1.1 2.5 2.5 0 1.4-1.1 2.6-2.6 2.6-1.4 0-2.6-1.1-2.6-2.6 0.2-1.4 1.3-2.5 2.7-2.5zm0 0.4c-1.1 0-2 0.9-2 2.1 0 1.2 0.9 2.1 2 2.1 1.1 0 2-0.9 2-2.1 0-1.1-0.8-2.1-2-2.1zm-0.4 3.5h-0.5v-2.7c0.2 0 0.5-0.1 0.9-0.1 0.4 0 0.7 0.1 0.8 0.2 0.1 0.1 0.3 0.3 0.3 0.6 0 0.3-0.2 0.5-0.5 0.6 0.2 0.1 0.4 0.3 0.4 0.6 0.1 0.4 0.1 0.6 0.2 0.7h-0.5c-0.1-0.1-0.1-0.3-0.2-0.7-0.1-0.3-0.2-0.4-0.6-0.4h-0.3zm0-1.5h0.3c0.4 0 0.7-0.1 0.7-0.4 0-0.3-0.2-0.4-0.6-0.4-0.2 0-0.3 0-0.4 0z"/>
				</g>
			</g>
		</g>
	</g>
</svg>