<svg version="1.2" xmlns="http://www.w3.org/2000/svg" viewBox="0 0 1023 138" width="1023" height="138">
	<title>Vector Smart Object-ai</title>
	<style>
		.s0 { fill: #32292f } 
		.s1 { fill: #e6441f } 
	</style>
	<g id="Isolation Mode">
		<g id="&lt;Group&gt;">
			<g id="&lt;Group&gt;">
				<path id="&lt;Compound Path&gt;" fill-rule="evenodd" class="s0" d="m290.1 231.6c0 13-7.8 24.8-24.5 24.8-16.6 0-24.4-12.1-24.4-24.7 0-14.6 10.1-25.1 24.6-25.1 16.3 0.1 24.3 12.1 24.3 25zm-24.5 17.8c12 0 16.9-8.5 16.9-17.6 0-8.9-5-18-16.7-18.2-11.1 0-17.1 7.7-17.1 18.2 0.2 8.5 5.1 17.6 16.9 17.6z"/>
				<path id="&lt;Compound Path&gt;" class="s0" d="m324.5 255.4v-18.1c0-5.8-3.3-9.7-9.1-9.7-5.6 0-9.4 4.6-9.4 10.1v17.7h-7.1v-33.8h6.4l0.4 4.9c3.3-3.6 7-5.4 11.4-5.4 8.2 0 14.5 5.8 14.5 16.1v18.2z"/>
				<path id="&lt;Compound Path&gt;" fill-rule="evenodd" class="s0" d="m347.3 241.1c0.6 5.2 4.8 8.5 11 8.5 3.4 0 7.7-1.3 9.8-3.6l4.6 4.5c-3.5 3.8-9.3 5.7-14.5 5.7-11.1 0-18.2-7-18.2-17.9 0-10.2 7.1-17.5 17.7-17.5 10.9 0 18.3 6.6 17 20.3zm20.5-5.9c-0.4-5.3-4.3-8.1-9.9-8.1-5.2 0-9.4 2.8-10.5 8.1z"/>
				<path id="&lt;Compound Path&gt;" fill-rule="evenodd" class="s0" d="m401.6 271v-49.4h6.6l0.5 5.5c2.6-4.1 7.4-6.1 11.9-6.1 10 0 17 7.4 17 17.5 0 10.2-6.6 17.6-17 17.6-4.1 0-9.4-1.5-11.9-5.6v20.5zm28.9-32.5c0-6.3-4.2-10.7-10.7-10.7-6.5 0-10.6 4.7-10.6 10.7 0 6.1 4.5 10.8 10.6 10.8 6.2 0 10.7-4.5 10.7-10.8z"/>
				<path id="&lt;Compound Path&gt;" fill-rule="evenodd" class="s0" d="m473.6 221.6h6.8c0 11.3 0 22.6 0 33.8h-6.7l-0.3-5.5c-2.3 4.3-7.5 6.4-11.6 6.4-9.9 0-17.4-6.3-17.4-17.8 0-11.3 7.8-17.6 17.5-17.6 4.8 0 9.4 2.3 11.5 6.1zm-22.1 16.8c0 7 4.9 11.2 10.9 11.2 14.6 0 14.6-22.3 0-22.3-6 0-10.9 4.2-10.9 11.1z"/>
				<path id="&lt;Compound Path&gt;" class="s0" d="m512.9 229.9c-2.6-2.4-5.5-3.1-8.9-3.1-4.3-0.1-7.1 1.3-7.1 4 0 2.8 3 3.9 7.3 4.3 6.2 0.6 14.4 1.9 14.3 10.6-0.1 6.3-5.6 10.7-14.4 10.7-5.5 0-10.9-1.2-15.4-6.2l3.7-5c3.2 3.5 7.9 4.9 11.9 5 3.3 0 7.1-1.3 7.1-4.4 0.1-3-2.8-4.2-7.8-4.7-6.3-0.6-13.6-2.6-13.7-10.1 0-7.4 7.7-10.2 14-10.2 5.2 0 9.2 1.1 13 4.5z"/>
				<path id="&lt;Compound Path&gt;" class="s0" d="m548.5 229.9c-2.7-2.4-5.6-3.1-8.9-3.1-4.4-0.1-7.2 1.3-7.2 4 0 2.8 3 3.9 7.3 4.3 6.2 0.6 14.4 1.9 14.3 10.6-0.1 6.3-5.6 10.7-14.4 10.7-5.4 0-10.9-1.2-15.4-6.2l3.7-5c3.2 3.5 7.9 4.9 11.9 5 3.3 0 7.1-1.3 7.1-4.4 0.1-3-2.8-4.2-7.8-4.7-6.3-0.6-13.6-2.6-13.7-10.1 0-7.4 7.7-10.2 14-10.2 5.2 0 9.3 1.1 13 4.5z"/>
				<path id="&lt;Compound Path&gt;" class="s0" d="m583.1 255.4v-27.1h-6.4v-6.2h6.4v-2.5c0-8.4 5.3-12.8 12.2-12.8 2.9 0 5.8 1 8.3 2.7l-2.7 5.2c-1.8-1.1-3.4-1.7-5.2-1.7-3.2 0-5.4 2.1-5.4 6.6v2.5h10.2v6.2h-10.2v27.1z"/>
				<path id="&lt;Compound Path&gt;" fill-rule="evenodd" class="s0" d="m606.8 211.7c0 5.8 8.8 5.8 8.8 0 0-5.7-8.8-5.7-8.8 0zm0.8 9.8v33.9h7.1v-33.9z"/>
				<path id="&lt;Compound Path&gt;" class="s0" d="m636.5 211.9v9.8h9.9v6.1h-9.9v16.1c0 3.5 1.5 5.5 4.8 5.5 1.4 0 2.9-0.5 4.3-1.1l2.1 6c-2.4 1-4.4 1.5-6.8 1.5-7.3 0.2-11.5-4-11.5-11.9v-16.1h-6.5v-6.1h6.5v-9z"/>
				<path id="&lt;Compound Path&gt;" class="s0" d="m676.4 229.9c-2.7-2.4-5.5-3.1-8.9-3.1-4.3-0.1-7.2 1.3-7.2 4 0.1 2.8 3 3.9 7.4 4.3 6.2 0.6 14.3 1.9 14.3 10.6-0.1 6.3-5.7 10.7-14.4 10.7-5.5 0-11-1.2-15.4-6.2l3.7-5c3.1 3.5 7.9 4.9 11.8 5 3.4 0 7.1-1.3 7.2-4.4 0.1-3-2.8-4.2-7.8-4.7-6.4-0.6-13.7-2.6-13.7-10.1 0-7.4 7.7-10.2 14-10.2 5.2 0 9.2 1.1 13 4.5z"/>
				<path id="&lt;Compound Path&gt;" fill-rule="evenodd" class="s0" d="m735.9 221.6h6.8c0 11.3 0 22.6 0 33.8h-6.7l-0.3-5.5c-2.3 4.3-7.5 6.4-11.7 6.4-9.8 0-17.3-6.3-17.3-17.8 0-11.3 7.8-17.6 17.5-17.6 4.8 0 9.3 2.3 11.5 6.1zm-22.1 16.8c0 7 4.9 11.2 10.9 11.2 14.6 0 14.6-22.3 0-22.3-6 0-10.9 4.2-10.9 11.1z"/>
				<path id="&lt;Compound Path&gt;" class="s0" d="m761 207.6v47.8h-7.1v-47.8z"/>
				<path id="&lt;Compound Path&gt;" class="s0" d="m779.5 207.6v47.8h-7v-47.8z"/>
			</g>
			<g id="&lt;Group&gt;">
				<g id="&lt;Group&gt;">
					<g id="&lt;Group&gt;">
						<path id="&lt;Path&gt;" class="s0" d="m178.1 31.3h23.5v-0.1h66.1v-22.6h-89.6z"/>
						<path id="&lt;Path&gt;" class="s0" d="m178.1 133.1h23.5v-46.1h62.5v-21.7h-62.5v-21.6l-23.5 8.2z"/>
						<path id="&lt;Path&gt;" class="s0" d="m307.6 133.1h23.3v-124.7h-23.3z"/>
						<path id="&lt;Compound Path&gt;" fill-rule="evenodd" class="s0" d="m563.6 96.4h-35.3v36.7h-23.5v-124.7c19.4 0 39.3-0.1 58.8-0.1 61.2 0 61.4 87.6 0 88.1zm0-65.7h-35.3v44.2h35.3c30.1 0 29.9-44.2 0-44.2z"/>
						<path id="&lt;Compound Path&gt;" fill-rule="evenodd" class="s0" d="m704.5 8.4l55.9 124.7h-25.6l-10.5-23.5h-65.2l-10.7 23.5h-25.5l55.9-124.7zm10.4 79.3l-23.2-53.1-23.2 53.1z"/>
						<path id="&lt;Path&gt;" class="s0" d="m836.2 56.9c-14.9-1.8-27.8-4.8-27.8-15.7 0-9.2 8.4-16.6 25.9-16.6 13.5 0 25.3 6.8 29.5 13.9l18.8-9.6c-9.5-19.2-29.6-24.7-49-24.7-23 0.1-48.3 10.7-48.3 36.3 0 28 23.5 34.7 49 37.8 16.5 1.8 28.8 6.6 28.8 18.3 0 13.6-13.9 18.7-28.6 18.7-15.2 0-29.6-6-35.1-19.8l-19.6 10.2c9.2 22.8 28.8 30.6 54.3 30.6 27.8 0 52.4-11.9 52.4-39.7 0-29.7-24.3-36.5-50.3-39.7z"/>
						<path id="&lt;Path&gt;" class="s0" d="m970.3 56.9c-15-1.8-27.8-4.8-27.8-15.7 0-9.2 8.4-16.6 25.8-16.6 13.6 0 25.3 6.8 29.6 13.9l18.7-9.6c-9.4-19.2-29.6-24.7-49-24.7-23 0.1-48.2 10.7-48.2 36.3 0 28 23.5 34.7 48.9 37.8 16.6 1.8 28.9 6.6 28.9 18.3 0 13.6-13.9 18.7-28.7 18.7-15.1 0-29.6-6-35.1-19.8l-19.6 10.2c9.3 22.8 28.9 30.6 54.4 30.6 27.8 0 52.3-11.9 52.3-39.7 0-29.7-24.2-36.5-50.2-39.7z"/>
						<path id="&lt;Path&gt;" class="s0" d="m366.5 31.2h102.6v-22.8c-36.1 0-66.6 0-102.6 0z"/>
						<path id="&lt;Path&gt;" class="s0" d="m406.1 133.1h23.5v-89.4l-23.5 8.2z"/>
					</g>
				</g>
				<path id="&lt;Path&gt;" class="s1" d="m96.6 8.3h23.3v124.8h-23.3z"/>
				<path id="&lt;Path&gt;" class="s1" d="m50.1 31.3h23.2v78.4h-23.2z"/>
				<path id="&lt;Path&gt;" class="s1" d="m26.8 89.5h-23.3v-37.2h23.3z"/>
			</g>
		</g>
	</g>
</svg>