<?xml version="1.0" encoding="UTF-8" standalone="no"?>
<!-- Generator: Adobe Illustrator 24.0.2, SVG Export Plug-In . SVG Version: 6.00 Build 0)  -->

<svg
   version="1.1"
   id="Isolation_Mode"
   x="0px"
   y="0px"
   viewBox="0 0 66.7 62.8"
   style="enable-background:new 0 0 66.7 62.8;"
   xml:space="preserve"
   sodipodi:docname="icon_srce.svgz"
   xmlns:inkscape="http://www.inkscape.org/namespaces/inkscape"
   xmlns:sodipodi="http://sodipodi.sourceforge.net/DTD/sodipodi-0.dtd"
   xmlns="http://www.w3.org/2000/svg"
   xmlns:svg="http://www.w3.org/2000/svg"><defs
   id="defs13" /><sodipodi:namedview
   id="namedview11"
   pagecolor="#ffffff"
   bordercolor="#000000"
   borderopacity="0.25"
   inkscape:showpageshadow="2"
   inkscape:pageopacity="0.0"
   inkscape:pagecheckerboard="0"
   inkscape:deskcolor="#d1d1d1" />
<style
   type="text/css"
   id="style2">
	.st0{fill:#E6461E;}
</style>
<g
   id="g8">
	<path
   class="st0"
   d="M63.3,19.4c-0.1-0.8-0.1-1.9-0.3-2.8c-1.6-6.5-6.8-11.5-13.4-12.8c-6.1-1.2-12.4,1-16.5,5.5   c-1.8-1.9-4.2-3.9-6.5-4.8c-2.3-0.9-4.7-1.2-7-1c-6.1,0.5-11,3.6-14.2,9c-1.1,1.9-1.8,4.1-2,6.3c0,0.1,0,0.7,0,0.8l-0.1,2.8l0,0.4   c0.1,1.1,0.3,2,0.5,2.8c0.1,0.4,0.2,0.8,0.3,1.2c0.5,1,0.9,1.9,1.4,2.8h17.5l1.2,1.9l5-12.9l6,14.7L40.1,23l3.9,6.5h17.2   c0.4-0.9,0.9-1.8,1.3-2.8c0.4-1.3,0.7-2.5,0.8-3.8l0.1-2.7L63.3,19.4z"
   id="path4" />
	<path
   class="st0"
   d="M41.8,33.3L40.4,31L35,42.7l-5.6-14l-4.2,10.9L21,33.3h-14l1.6,2.2c1.8,2.4,2.6,3.7,2.6,3.7   c0.3,0.4,0.7,0.8,1,1.3c2.7,3.2,5.8,6.4,9.6,9.8c3.1,2.8,6.3,5.4,9.4,7.7l2,1.5l2-1.5c5.4-4,10.3-8.3,14.7-12.8c2-2.1,3.8-4,5.3-6   c0,0,0.6-1,2.4-3.2l1.8-2.7H41.8z"
   id="path6" />
</g>
</svg>
