<?xml version="1.0" encoding="utf-8"?>
<!-- Generator: Adobe Illustrator 24.0.2, SVG Export Plug-In . SVG Version: 6.00 Build 0)  -->
<svg version="1.1" id="Layer_1" xmlns="http://www.w3.org/2000/svg" xmlns:xlink="http://www.w3.org/1999/xlink" x="0px" y="0px"
	 viewBox="0 0 80 26.1" style="enable-background:new 0 0 80 26.1;" xml:space="preserve">
<style type="text/css">
	.st0{fill:#00983B;}
	.st1{fill:none;stroke:#00983B;stroke-miterlimit:10;}
</style>
<g>
	<path class="st0" d="M15,16.6c-0.5,0-1-0.1-1.4-0.3s-0.8-0.4-1.1-0.7c-0.3-0.3-0.6-0.7-0.7-1.1s-0.3-0.9-0.3-1.3
		c0-0.5,0.1-0.9,0.3-1.3s0.4-0.8,0.7-1.1c0.3-0.3,0.7-0.5,1.1-0.7s0.9-0.3,1.4-0.3s1,0.1,1.4,0.3s0.8,0.4,1.1,0.7
		c0.3,0.3,0.6,0.7,0.7,1.1s0.3,0.9,0.3,1.3c0,0.5-0.1,0.9-0.3,1.3s-0.4,0.8-0.7,1.1c-0.3,0.3-0.7,0.5-1.1,0.7S15.5,16.6,15,16.6z
		 M15,15.6c0.4,0,0.8-0.1,1.1-0.3c0.3-0.2,0.6-0.5,0.8-0.8c0.2-0.3,0.3-0.7,0.3-1.2c0-0.4-0.1-0.8-0.3-1.2s-0.4-0.6-0.8-0.8
		C15.8,11.1,15.5,11,15,11c-0.4,0-0.8,0.1-1.1,0.3c-0.3,0.2-0.6,0.5-0.8,0.8c-0.2,0.3-0.3,0.7-0.3,1.2c0,0.4,0.1,0.8,0.3,1.2
		c0.2,0.3,0.4,0.6,0.8,0.8C14.2,15.5,14.6,15.6,15,15.6z"/>
	<path class="st0" d="M25,11.1h-5.2v-1H25V11.1z M23,16.5h-1.2V11H23V16.5z"/>
	<path class="st0" d="M30.2,16.5H29l-2.5-6.4h1.3l2,5.5h-0.3l2-5.5h1.3L30.2,16.5z"/>
	<path class="st0" d="M37.3,16.6c-0.5,0-1-0.1-1.4-0.3s-0.8-0.4-1.1-0.7c-0.3-0.3-0.6-0.7-0.7-1.1s-0.3-0.9-0.3-1.3
		c0-0.5,0.1-0.9,0.3-1.3s0.4-0.8,0.7-1.1c0.3-0.3,0.7-0.5,1.1-0.7s0.9-0.3,1.4-0.3s1,0.1,1.4,0.3s0.8,0.4,1.1,0.7
		c0.3,0.3,0.6,0.7,0.7,1.1s0.3,0.9,0.3,1.3c0,0.5-0.1,0.9-0.3,1.3s-0.4,0.8-0.7,1.1c-0.3,0.3-0.7,0.5-1.1,0.7S37.8,16.6,37.3,16.6z
		 M37.3,15.6c0.4,0,0.8-0.1,1.1-0.3c0.3-0.2,0.6-0.5,0.8-0.8c0.2-0.3,0.3-0.7,0.3-1.2c0-0.4-0.1-0.8-0.3-1.2s-0.4-0.6-0.8-0.8
		c-0.3-0.2-0.7-0.3-1.1-0.3c-0.4,0-0.8,0.1-1.1,0.3c-0.3,0.2-0.6,0.5-0.8,0.8c-0.2,0.3-0.3,0.7-0.3,1.2c0,0.4,0.1,0.8,0.3,1.2
		c0.2,0.3,0.4,0.6,0.8,0.8C36.6,15.5,36.9,15.6,37.3,15.6z"/>
	<path class="st0" d="M44,16.5h-1.2v-6.4h2.6c0.5,0,0.9,0.1,1.2,0.2c0.3,0.2,0.6,0.4,0.8,0.7s0.3,0.6,0.3,1c0,0.4-0.1,0.7-0.3,1
		s-0.5,0.5-0.8,0.7c-0.3,0.2-0.7,0.2-1.2,0.2h-1.5v-1h1.5c0.3,0,0.6-0.1,0.8-0.3s0.3-0.4,0.3-0.7c0-0.3-0.1-0.5-0.3-0.7
		s-0.5-0.3-0.8-0.3H44V16.5z M48.4,16.5h-1.5l-2.3-3H46L48.4,16.5z"/>
	<path class="st0" d="M54.6,16.5H50v-6.4h4.5v1h-3.3v4.4h3.3V16.5z M54.4,13.7h-3.2v-1h3.2V13.7z"/>
	<path class="st0" d="M57.7,16.5h-1.2v-6.4h1.3l3.6,5.3h-0.5v-5.3h1.2v6.4h-1.3l-3.5-5.3h0.5V16.5z"/>
	<path class="st0" d="M67.5,16.6c-0.5,0-1-0.1-1.4-0.3S65.3,16,65,15.7c-0.3-0.3-0.6-0.7-0.7-1.1s-0.3-0.9-0.3-1.3
		c0-0.5,0.1-0.9,0.3-1.3s0.4-0.8,0.7-1.1c0.3-0.3,0.7-0.5,1.1-0.7s0.9-0.3,1.4-0.3s1,0.1,1.4,0.3s0.8,0.4,1.1,0.7
		c0.3,0.3,0.6,0.7,0.7,1.1s0.3,0.9,0.3,1.3c0,0.5-0.1,0.9-0.3,1.3s-0.4,0.8-0.7,1.1c-0.3,0.3-0.7,0.5-1.1,0.7S68,16.6,67.5,16.6z
		 M67.5,15.6c0.4,0,0.8-0.1,1.1-0.3c0.3-0.2,0.6-0.5,0.8-0.8c0.2-0.3,0.3-0.7,0.3-1.2c0-0.4-0.1-0.8-0.3-1.2s-0.4-0.6-0.8-0.8
		c-0.3-0.2-0.7-0.3-1.1-0.3c-0.4,0-0.8,0.1-1.1,0.3c-0.3,0.2-0.6,0.5-0.8,0.8c-0.2,0.3-0.3,0.7-0.3,1.2c0,0.4,0.1,0.8,0.3,1.2
		c0.2,0.3,0.4,0.6,0.8,0.8C66.7,15.5,67.1,15.6,67.5,15.6z"/>
</g>
<path class="st1" d="M74.8,23H6.7c-1.3,0-2.4-1.1-2.4-2.4V5.5C4.2,4.1,5.3,3,6.7,3h68.2c1.3,0,2.4,1.1,2.4,2.4v15.2
	C77.2,22,76.2,23,74.8,23z"/>
</svg>
