<svg width="50" height="50" viewBox="0 0 50 50" fill="none" xmlns="http://www.w3.org/2000/svg">
<path fill-rule="evenodd" clip-rule="evenodd" d="M24.9999 1C34.069 1 41.421 8.35196 41.421 17.4211C41.421 23.7368 35.1052 37.6316 24.9999 49C14.8946 37.6316 8.57886 23.7368 8.57886 17.4211C8.57886 8.35196 15.9308 1 24.9999 1ZM24.9999 28.7895C31.2785 28.7895 36.3683 23.6997 36.3683 17.4211C36.3683 11.1424 31.2785 6.05263 24.9999 6.05263C18.7213 6.05263 13.6315 11.1424 13.6315 17.4211C13.6315 23.6997 18.7213 28.7895 24.9999 28.7895Z" fill="#E74410"/>
<path d="M36.3683 17.4211C36.3683 23.6997 31.2785 28.7895 24.9999 28.7895C18.7213 28.7895 13.6315 23.6997 13.6315 17.4211C13.6315 11.1424 18.7213 6.05263 24.9999 6.05263C31.2785 6.05263 36.3683 11.1424 36.3683 17.4211Z" fill="#E5431F"/>
<path fill-rule="evenodd" clip-rule="evenodd" d="M17.4211 19.9474V16.1579H19.9475V19.9474H17.4211Z" fill="#E74410"/>
<path fill-rule="evenodd" clip-rule="evenodd" d="M22.4734 21.2105V13.6316H24.9997V21.2105H22.4734Z" fill="#E74410"/>
<path fill-rule="evenodd" clip-rule="evenodd" d="M27.5261 23.7369V11.1053H30.0524V23.7369H27.5261Z" fill="#E74410"/>
</svg>
