<svg width="50" height="50" viewBox="0 0 50 50" fill="none" xmlns="http://www.w3.org/2000/svg">
<path fill-rule="evenodd" clip-rule="evenodd" d="M12 2.5C15.5899 2.5 18.5 5.41015 18.5 9C18.5 11.5 16 17 12 21.5C8 17 5.5 11.5 5.5 9C5.5 5.41015 8.41015 2.5 12 2.5ZM12 13.5C14.4853 13.5 16.5 11.4853 16.5 9C16.5 6.51472 14.4853 4.5 12 4.5C9.51472 4.5 7.5 6.51472 7.5 9C7.5 11.4853 9.51472 13.5 12 13.5Z" fill="#E74410"/>
<path fill-rule="evenodd" clip-rule="evenodd" d="M9 10V8.5H10V10H9Z" fill="#E74410"/>
<path fill-rule="evenodd" clip-rule="evenodd" d="M11 10.5V7.5H12V10.5H11Z" fill="#E74410"/>
<path fill-rule="evenodd" clip-rule="evenodd" d="M13 11.5L13 6.5L14 6.5L14 11.5L13 11.5Z" fill="#E74410"/>
</svg>
