<svg width="23" height="23" viewBox="0 0 23 23" fill="none" xmlns="http://www.w3.org/2000/svg">
<g clip-path="url(#clip0_37_768)">
<path d="M19.4 1H17.8V0.8C17.8 0.3 17.4 0 17 0C16.5 0 16.2 0.4 16.2 0.8V1H12.2V0.8C12 0.4 11.7 0 11.2 0C10.7 0 10.4 0.4 10.4 0.8V1H6.4V0.8C6.3 0.4 5.9 0 5.5 0C5 0 4.6 0.4 4.6 0.8V1H3C1.3 1 0 2.4 0 4V5.8V6.8V19.6C0 21.3 1.4 22.6 3 22.6H19.3C21 22.6 22.3 21.2 22.3 19.6V6.9V5.9V4.1C22.4 2.4 21 1 19.4 1ZM21.4 19.7C21.4 20.8 20.5 21.7 19.4 21.7H3C1.9 21.7 1 20.8 1 19.7V6.9H21.4V19.7ZM1 5.9V4.1C1 3 1.9 2 3 2H4.6V3.1C4.6 3.6 5 4 5.5 4C6 4 6.3 3.6 6.3 3.2V2H10.3V3.1C10.3 3.6 10.7 3.9 11.1 3.9C11.7 4 12 3.6 12 3.2V2H16V3.1C16 3.6 16.4 3.9 16.8 3.9C17.3 3.9 17.6 3.5 17.6 3.1V2H19.2C20.3 2 21.2 2.9 21.2 4V5.8H1V5.9Z" fill="#5E5A5C"/>
<path d="M11.1 8C8.09995 8 5.69995 10.5 5.69995 13.5C5.69995 16.5 8.19995 18.9 11.2 18.9C14.2 18.9 16.6 16.4 16.6 13.4C16.6 10.4 14.1 8 11.1 8ZM11.2 17.9C8.69995 17.9 6.69995 15.9 6.69995 13.4C6.69995 10.9 8.69995 8.9 11.2 8.9C13.7 8.9 15.7 10.9 15.7 13.4C15.7 15.8 13.7 17.9 11.2 17.9Z" fill="#5E5A5C"/>
<path d="M13.6 13.1H11.8V10.4C11.8 10.1 11.5 9.90002 11.2 9.90002C10.9 9.90002 10.7 10.2 10.7 10.5V13.7C10.7 14 11 14.2 11.3 14.2H13.7C14 14.2 14.2 13.9 14.2 13.6C14.1 13.3 13.9 13.1 13.6 13.1Z" fill="#5E5A5C"/>
</g>
<defs>
<clipPath id="clip0_37_768">
<rect width="22.4" height="22.8" fill="white"/>
</clipPath>
</defs>
</svg>
