<svg width="24" height="24" viewBox="0 0 24 24" fill="none" xmlns="http://www.w3.org/2000/svg">
<g clip-path="url(#clip0_1_102)">
<path d="M23.1 19.5C23.3 18.7 23.3 16.7 22.2 16.1L18.9 14.4C17.9 13.9 16.7 14.3 16.2 15.3C16 15.7 15.9 15.9 15.9 15.9C14.5 15.9 11.8 13.8 10.8 12.8C9.79997 11.8 7.69997 9.09999 7.69997 7.69999C7.69997 7.69999 7.99997 7.59999 8.29997 7.39999C9.39997 6.89999 9.79997 5.69999 9.29997 4.59999L7.59997 1.49999C6.99997 0.399993 4.89997 0.399993 4.19997 0.599993C2.69997 0.999993 1.59997 1.99999 0.999973 3.19999C0.0999735 4.79999 0.499973 6.89999 0.999973 9.09999C1.99997 12.1 3.89997 14.9 6.39997 17.3C8.79997 19.8 11.6 21.7 14.6 22.7C16.7 23.2 18.9 23.6 20.5 22.7C21.6 22 22.6 21 23.1 19.5Z" stroke="#757575" stroke-miterlimit="10" stroke-linecap="round" stroke-linejoin="round"/>
<path d="M14.8 0.5C19.4 0.5 23 4.2 23 8.7" stroke="#757575" stroke-miterlimit="10" stroke-linecap="round" stroke-linejoin="round"/>
<path d="M14.8 4.59998C17.1 4.59998 18.9 6.39998 18.9 8.69998" stroke="#757575" stroke-miterlimit="10" stroke-linecap="round" stroke-linejoin="round"/>
</g>
<defs>
<clipPath id="clip0_1_102">
<rect width="23.7" height="23.7" fill="white"/>
</clipPath>
</defs>
</svg>
