<svg width="23" height="23" viewBox="0 0 23 23" fill="none" xmlns="http://www.w3.org/2000/svg">
<g clip-path="url(#clip0_2_130)">
<path d="M11.5 1C17.3 1 22 5.7 22 11.5C22 17.3 17.3 22 11.5 22C5.7 22 1 17.3 1 11.5C1 5.7 5.7 1 11.5 1ZM11.5 0C5.1 0 0 5.1 0 11.5C0 17.9 5.1 23 11.5 23C17.9 23 23 17.9 23 11.5C23 5.1 17.9 0 11.5 0Z" fill="#757575"/>
<path d="M11.5 3.79999V11.6L17.3 13.6" stroke="#757575" stroke-miterlimit="10" stroke-linecap="round" stroke-linejoin="round"/>
</g>
<defs>
<clipPath id="clip0_2_130">
<rect width="23" height="23" fill="white"/>
</clipPath>
</defs>
</svg>
