<svg width="18" height="27" viewBox="0 0 18 27" fill="none" xmlns="http://www.w3.org/2000/svg">
<g clip-path="url(#clip0_1_109)">
<path d="M9 0.5C4.3 0.5 0.5 4.3 0.5 8.9C0.5 11.6 2 15.4 4.8 20C6.6 23 8.5 25.4 9 26C9.5 25.3 11.4 22.9 13.2 20C16 15.4 17.5 11.6 17.5 8.9C17.5 4.3 13.7 0.5 9 0.5ZM11.4 11.3C10.8 11.9 9.9 12.3 9.1 12.3C8.2 12.3 7.4 12 6.8 11.3C6.2 10.7 5.8 9.9 5.8 9C5.8 8.1 6.1 7.3 6.8 6.7C7.4 6.1 8.3 5.7 9.1 5.7C10 5.7 10.8 6 11.4 6.7C12 7.3 12.4 8.1 12.4 9C12.3 9.8 12 10.6 11.4 11.3Z" stroke="#757575" stroke-width="1.0218" stroke-miterlimit="10"/>
</g>
<defs>
<clipPath id="clip0_1_109">
<rect width="18" height="26.8" fill="white"/>
</clipPath>
</defs>
</svg>
