<svg width="23" height="23" viewBox="0 0 23 23" fill="none" xmlns="http://www.w3.org/2000/svg">
<g clip-path="url(#clip0_2_124)">
<path d="M16.1 1C19.3 1 22 3.7 22 6.9V16.1C22 19.3 19.4 22 16.1 22H6.9C3.7 22 1 19.3 1 16.1V6.9C1 3.7 3.7 1 6.9 1H16.1ZM16.1 0H6.9C3.1 0 0 3.1 0 6.9V16.1C0 19.9 3.1 23 6.9 23H16.1C19.9 23 23 19.9 23 16.1V6.9C23 3.1 19.9 0 16.1 0Z" fill="#757575"/>
<path d="M11.5 7.1C13.9 7.1 15.9 9.1 15.9 11.5C15.9 13.9 13.9 15.9 11.5 15.9C9.1 15.9 7.1 13.9 7.1 11.5C7.1 9.1 9.1 7.1 11.5 7.1ZM11.5 6C8.5 6 6 8.5 6 11.5C6 14.5 8.5 17 11.5 17C14.5 17 17 14.5 17 11.5C17 8.5 14.5 6 11.5 6Z" fill="#757575"/>
<path d="M17.4 6.59998C18.2285 6.59998 18.9 5.9284 18.9 5.09998C18.9 4.27155 18.2285 3.59998 17.4 3.59998C16.5716 3.59998 15.9 4.27155 15.9 5.09998C15.9 5.9284 16.5716 6.59998 17.4 6.59998Z" fill="#757575"/>
</g>
<defs>
<clipPath id="clip0_2_124">
<rect width="23" height="23" fill="white"/>
</clipPath>
</defs>
</svg>
