<svg width="27" height="19" viewBox="0 0 27 19" fill="none" xmlns="http://www.w3.org/2000/svg">
<g clip-path="url(#clip0_117_23)">
<path fill-rule="evenodd" clip-rule="evenodd" d="M25.5 4.4C25.1 1.5 23.6 1 20.7 0.8C18.2 0.6 15.3 0.5 13.1 0.5C10.9 0.5 8 0.6 5.5 0.8C2.7 1 1.1 1.5 0.7 4.4C0.6 5.7 0.5 7.5 0.5 9.4C0.5 11.3 0.6 13.1 0.7 14.4C1.1 17.3 2.6 17.8 5.5 18C8 18.2 10.9 18.3 13.1 18.3C15.3 18.3 18.2 18.3 20.7 18C23.6 17.8 25.1 17.3 25.5 14.4C25.7 13.1 25.8 11.3 25.8 9.4C25.7 7.6 25.6 5.8 25.5 4.4ZM10.6 13.3V5.7L17.2 9.5L10.6 13.3Z" stroke="#757575" stroke-miterlimit="10"/>
</g>
<defs>
<clipPath id="clip0_117_23">
<rect width="26.2" height="18.9" fill="white"/>
</clipPath>
</defs>
</svg>
