<?xml version="1.0" encoding="utf-8"?>
<!-- Generator: Adobe Illustrator 24.0.2, SVG Export Plug-In . SVG Version: 6.00 Build 0)  -->
<svg version="1.1" id="Isolation_Mode" xmlns="http://www.w3.org/2000/svg" xmlns:xlink="http://www.w3.org/1999/xlink" x="0px"
	 y="0px" viewBox="0 0 232.5 240.4" style="enable-background:new 0 0 232.5 240.4;" xml:space="preserve">
<style type="text/css">
	.st0{fill:#DCDCDC;}
</style>
<g>
	<path class="st0" d="M79,30.4l1.5,3.9c0.4,0.9,1.2,1.5,2.2,1.5l0,0.3v-0.3c0.3,0,0.6-0.1,0.9-0.2c0.6-0.2,1.1-0.7,1.3-1.3
		c0.3-0.6,0.3-1.2,0-1.8l-1.5-3.9c-0.4-0.9-1.2-1.5-2.2-1.5c-0.3,0-0.6,0.1-0.9,0.2c-0.6,0.2-1.1,0.7-1.3,1.3
		C78.7,29.1,78.7,29.8,79,30.4z"/>
	<path class="st0" d="M74.8,20c0.4,0.9,1.2,1.5,2.2,1.5l0,0.3v-0.3c0.3,0,0.6-0.1,0.9-0.2c0.6-0.2,1.1-0.7,1.3-1.3
		c0.3-0.6,0.3-1.2,0-1.8l-1.2-3c-0.4-0.9-1.2-1.5-2.2-1.5c-0.3,0-0.6,0.1-0.9,0.2c-1.2,0.5-1.8,1.9-1.3,3.1L74.8,20z"/>
	<path class="st0" d="M198.4,85.5l0,0.3L198.4,85.5c0.3,0,0.6-0.1,0.9-0.2l6.2-2.5c1.2-0.5,1.8-1.9,1.3-3.1
		c-0.4-0.9-1.2-1.5-2.2-1.5c-0.3,0-0.6,0.1-0.9,0.2l-6.2,2.5c-1.2,0.5-1.8,1.9-1.3,3.1C196.5,84.9,197.4,85.5,198.4,85.5z"/>
	<path class="st0" d="M217.9,75.3c-0.4-0.9-1.2-1.5-2.2-1.5c-0.3,0-0.6,0.1-0.9,0.2l-2.5,1c-0.6,0.2-1.1,0.7-1.3,1.3
		c-0.3,0.6-0.3,1.2,0,1.8c0.4,0.9,1.2,1.5,2.2,1.5l0,0.3l0-0.3c0.3,0,0.6-0.1,0.9-0.2l2.5-1c0.6-0.2,1.1-0.7,1.3-1.3
		C218.1,76.5,218.1,75.9,217.9,75.3z"/>
	<path class="st0" d="M149.9,36.5c0.3,0.1,0.6,0.2,0.9,0.2l0,0.3v-0.3c1,0,1.8-0.6,2.2-1.5l1.9-4.4c0.5-1.2,0-2.6-1.3-3.2
		c-0.3-0.1-0.6-0.2-1-0.2c-1,0-1.8,0.6-2.2,1.5l-1.9,4.4c-0.3,0.6-0.3,1.2,0,1.8C148.9,35.8,149.3,36.2,149.9,36.5z"/>
	<path class="st0" d="M156.2,21.8c0.3,0.1,0.6,0.2,0.9,0.2l0,0.3V22c1,0,1.8-0.6,2.2-1.5l1-2.4c0.3-0.6,0.3-1.2,0-1.8
		c-0.2-0.6-0.7-1.1-1.3-1.3c-0.3-0.1-0.6-0.2-1-0.2c-1,0-1.8,0.6-2.2,1.5l-1,2.4C154.4,19.9,155,21.3,156.2,21.8z"/>
	<path class="st0" d="M20.6,77.5l0,0.3L20.6,77.5c1,0,1.8-0.6,2.2-1.5c0.5-1.2,0-2.6-1.3-3.2l-3.7-1.6c-0.3-0.1-0.6-0.2-1-0.2
		c-1,0-1.8,0.6-2.2,1.5c-0.3,0.6-0.3,1.2,0,1.8c0.2,0.6,0.7,1.1,1.3,1.3l3.7,1.6C19.9,77.5,20.3,77.5,20.6,77.5z"/>
	<path class="st0" d="M28.8,81.3l4.2,1.8c0.3,0.1,0.6,0.2,0.9,0.2l0,0.3v-0.3c1,0,1.8-0.6,2.2-1.5c0.5-1.2,0-2.6-1.3-3.2l-4.2-1.8
		c-0.3-0.1-0.6-0.2-1-0.2c-1,0-1.8,0.6-2.2,1.5c-0.3,0.6-0.3,1.2,0,1.8C27.8,80.6,28.2,81,28.8,81.3z"/>
	<path class="st0" d="M59.9,63.4c0.5,0.5,1.1,0.7,1.7,0.7l0,0.3v-0.3c0.6,0,1.2-0.2,1.7-0.7c0.9-0.9,0.9-2.5,0-3.4L52,48.6
		c-0.5-0.5-1.1-0.7-1.7-0.7c-0.6,0-1.2,0.2-1.7,0.7c-0.5,0.5-0.7,1.1-0.7,1.7c0,0.6,0.2,1.3,0.7,1.7L59.9,63.4z"/>
	<path class="st0" d="M170.1,64.3l0,0.3L170.1,64.3c0.6,0,1.3-0.2,1.7-0.7l11.3-11.3c0.5-0.5,0.7-1.1,0.7-1.7c0-0.6-0.2-1.3-0.7-1.7
		c-0.5-0.5-1.1-0.7-1.7-0.7c-0.6,0-1.2,0.2-1.7,0.7l-11.3,11.3c-0.9,0.9-0.9,2.5,0,3.4C168.8,64.1,169.4,64.3,170.1,64.3z"/>
	<path class="st0" d="M115.9,41.7l0,0.3L115.9,41.7c1.3,0,2.4-1.1,2.4-2.4l0-16c0-1.3-1.1-2.4-2.4-2.4c-1.3,0-2.4,1.1-2.4,2.4l0,16
		c0,0.6,0.2,1.3,0.7,1.7C114.6,41.5,115.2,41.7,115.9,41.7z"/>
	<path class="st0" d="M20.6,115.8c0,0.6,0.2,1.3,0.7,1.7c0.5,0.5,1.1,0.7,1.7,0.7l16,0l0,0.3v-0.3c1.3,0,2.4-1.1,2.4-2.4
		c0-1.3-1.1-2.4-2.4-2.4l-16,0C21.7,113.4,20.6,114.5,20.6,115.8z"/>
	<path class="st0" d="M192.4,118.6l16,0l0,0.3l0-0.3c1.3,0,2.4-1.1,2.4-2.4c0-1.3-1.1-2.4-2.4-2.4l-16,0c-1.3,0-2.4,1.1-2.4,2.4
		c0,0.6,0.2,1.3,0.7,1.7C191.1,118.4,191.7,118.6,192.4,118.6z"/>
	<path class="st0" d="M115.7,103.8c13.8,0,25-11.2,25-25c0-13.8-11.2-25-25-25c-13.8,0-25,11.2-25,25
		C90.7,92.6,101.9,103.8,115.7,103.8z M115.7,58.5c11.2,0,20.3,9.1,20.3,20.3c0,11.2-9.1,20.3-20.3,20.3c-11.2,0-20.3-9.1-20.3-20.3
		C95.4,67.6,104.5,58.5,115.7,58.5z"/>
	<path class="st0" d="M159.1,119.4c-13.8,0-25,11.2-25,25c0,13.8,11.2,25,25,25c13.8,0,25-11.2,25-25
		C184.1,130.6,172.9,119.4,159.1,119.4z M159.1,164.8c-11.2,0-20.3-9.1-20.3-20.3c0-11.2,9.1-20.3,20.3-20.3
		c11.2,0,20.3,9.1,20.3,20.3C179.5,155.6,170.3,164.8,159.1,164.8z"/>
	<path class="st0" d="M72.4,169.4c13.8,0,25-11.2,25-25c0-13.8-11.2-25-25-25c-13.8,0-25,11.2-25,25
		C47.4,158.2,58.7,169.4,72.4,169.4z M72.4,124.1c11.2,0,20.3,9.1,20.3,20.3c0,11.2-9.1,20.3-20.3,20.3s-20.3-9.1-20.3-20.3
		C52.1,133.2,61.2,124.1,72.4,124.1z"/>
	<path class="st0" d="M202.4,134.7c-6.3,0-11.3,5.1-11.3,11.3c0,12.8-8.5,31.7-26.8,31.7h-10.4c-18.3-0.1-26.8-19-26.8-31.7
		c0-6.3-5.1-11.3-11.3-11.3c-6.3,0-11.3,5.1-11.3,11.3c0,0.6,0,1.3,0,2.1c-0.5,6.8-3.1,14-7,19.3c-3.5,4.7-9.7,10.3-19.7,10.3H67.2
		c-18.3-0.1-26.8-19-26.8-31.7c0-6.3-5.1-11.3-11.3-11.3c-6.3,0-11.3,5.1-11.3,11.3c0,4.1,0.4,8.5,1.3,12.9c0.9,4.8,2.3,9.3,4,13.6
		c2,4.7,4.4,8.9,7.2,12.5c3.2,4,6.8,7.3,10.8,9.6c0.1,0.1,0.2,0.1,0.4,0.2c1.6,0.6,3.1,2.4,4.3,5.3c1.1,2.6,2,6,2.7,10.2
		c1.2,7.2,1.2,14.2,1.2,14.2c0,1.3,1,2.3,2.3,2.3c1.3,0,2.3-1,2.3-2.3c0-0.3,0-7.3-1.2-14.9c-0.7-4.5-1.8-8.4-3-11.3
		c-1.7-4-4-6.6-6.7-7.7l0,0c-14.3-8.4-20.8-29-20.8-44.5c0-3.7,3-6.7,6.7-6.7c3.7,0,6.7,3,6.7,6.7c0,3.6,0.6,7.5,1.8,11.4
		c1.3,4.3,3.2,8.3,5.5,11.7c2.7,4,6,7.1,9.8,9.4c4.3,2.5,9.1,3.8,14.4,3.9h10.4c5.3,0,10.1-1.3,14.4-3.9c3.8-2.2,7.1-5.4,9.8-9.4
		c1.7-2.4,3.1-5.1,4.2-8.1c0.9,4,2.1,7.8,3.6,11.4c1,2.4,2.1,4.8,3.4,6.9c-3.2,4.8-7,8.6-11.3,11.1l0,0c-2.7,1.1-5,3.7-6.7,7.7
		c-1.3,3-2.3,6.8-3,11.3c-1.2,7.6-1.2,14.6-1.2,14.9c0,1.3,1,2.3,2.3,2.3c1.3,0,2.3-1,2.3-2.3c0-0.3,0-7.1,1.2-14.2
		c0.7-4.2,1.6-7.6,2.7-10.2c1.2-2.8,2.7-4.7,4.3-5.3c0.1,0,0.3-0.1,0.4-0.2c4-2.3,7.7-5.6,10.8-9.6c0.3-0.4,0.6-0.8,1-1.4
		c0.3,0.5,0.7,0.9,1.1,1.4c3.2,4,6.8,7.3,10.8,9.6c0.1,0.1,0.2,0.1,0.4,0.2c1.6,0.6,3.1,2.5,4.3,5.3c1.1,2.6,2,6,2.7,10.2
		c1.2,7.1,1.2,13.9,1.2,14.2c0,1.3,1,2.3,2.3,2.3c1.3,0,2.3-1,2.3-2.3c0-0.3,0-7.3-1.2-14.9c-0.7-4.5-1.8-8.4-3-11.3
		c-1.7-4-4-6.6-6.7-7.7l0,0c-14.3-8.4-20.8-29-20.8-44.5c0-3.7,3-6.7,6.7-6.7c3.7,0,6.7,3,6.7,6.7c0,3.6,0.6,7.5,1.8,11.4
		c1.3,4.3,3.2,8.3,5.5,11.7c2.7,4,6,7.1,9.8,9.4c4.3,2.5,9.1,3.8,14.4,3.9h10.4c5.3,0,10.1-1.3,14.4-3.9c3.8-2.2,7.1-5.4,9.8-9.4
		c2.3-3.4,4.2-7.5,5.5-11.7c1.1-3.9,1.8-7.8,1.8-11.4c0-3.7,3-6.7,6.7-6.7c3.7,0,6.7,3,6.7,6.7c0,15.5-6.5,36.1-20.8,44.5l0,0
		c-2.7,1.1-5,3.7-6.7,7.7c-1.3,3-2.3,6.8-3,11.3c-1.2,7.6-1.2,14.6-1.2,14.9c0,1.3,1,2.3,2.3,2.3c1.3,0,2.3-1,2.3-2.3
		c0-0.1,0-7,1.2-14.2c0.7-4.2,1.6-7.6,2.7-10.2c1.2-2.8,2.7-4.6,4.3-5.2c0.1,0,0.3-0.1,0.4-0.2c4-2.3,7.7-5.6,10.8-9.6
		c0.4-0.5,0.7-1,1.1-1.5l0.8-1.1c0.2-0.2,4.6-6.1,7.6-16.1c2.9-10,3-18.3,3-18.7l0,0c0-0.5,0-1.1,0-1.6
		C213.8,139.8,208.7,134.7,202.4,134.7z"/>
	<path class="st0" d="M61.2,82.3L61.2,82.3c0,0.4,0,8.7,3,18.7c1.4,4.6,3.2,8.9,5.5,12.8l0,0c0,0,0,0.1,0.1,0.1l0.2,0.3H70
		c0.4,0.5,1.1,0.8,1.7,0.8c1.3,0,2.4-1.1,2.4-2.4c0-0.3-0.1-0.6-0.2-0.9c0-0.1-0.1-0.1-0.1-0.2c-5-8.7-8-20.3-8-30.9
		c0-3.7,3-6.7,6.7-6.7c3.7,0,6.7,3,6.7,6.7c0,3.6,0.6,7.5,1.8,11.4c1.3,4.3,3.2,8.3,5.5,11.7c2.7,4,6,7.1,9.8,9.4
		c4.3,2.5,9.1,3.8,14.4,3.9h10c5.3,0,10.1-1.3,14.4-3.9c3.8-2.2,7.1-5.4,9.8-9.4c2.3-3.4,4.2-7.5,5.5-11.7c1.1-3.9,1.8-7.8,1.8-11.4
		c0-3.7,3-6.7,6.7-6.7c3.7,0,6.7,3,6.7,6.7c0,10.6-3,22.1-8,30.8c0,0,0,0.1-0.1,0.1c-0.2,0.3-0.3,0.7-0.3,1.1c0,1.3,1.1,2.4,2.4,2.4
		c0.7,0,1.3-0.3,1.7-0.7h0.1l0.3-0.5c2.3-3.9,4.2-8.3,5.5-12.8c2.9-10,3-18.3,3-18.7l0,0c0-0.5,0-1.1,0-1.6
		c0-6.3-5.1-11.3-11.3-11.3c-6.3,0-11.3,5.1-11.3,11.3c0,12.8-8.5,31.7-26.8,31.7h-10c-18.3-0.1-26.8-19-26.8-31.7
		c0-6.3-5.1-11.3-11.3-11.3c-6.3,0-11.3,5.1-11.3,11.3C61.2,81.2,61.2,81.7,61.2,82.3z"/>
</g>
</svg>
