<?xml version="1.0" encoding="utf-8"?>
<!-- Generator: Adobe Illustrator 24.0.2, SVG Export Plug-In . SVG Version: 6.00 Build 0)  -->
<svg version="1.1" id="Isolation_Mode" xmlns="http://www.w3.org/2000/svg" xmlns:xlink="http://www.w3.org/1999/xlink" x="0px"
	 y="0px" viewBox="0 0 232.5 240.4" style="enable-background:new 0 0 232.5 240.4;" xml:space="preserve">
<style type="text/css">
	.st0{fill:none;stroke:#DCDCDC;stroke-width:5;stroke-linecap:round;stroke-linejoin:round;stroke-miterlimit:10;}
</style>
<g>
	<path class="st0" d="M159.2,90.7c0-35.1-28.5-63.6-63.6-63.6c-34.9,0-63.4,28.5-63.4,63.4c0,17.3,9.6,41.4,28.6,71.4
		c13.6,21.7,27.2,38.6,27.8,39.3l7,8.7l7.2-8.6c0.8-1,8.9-10.9,18.8-25.1 M95.6,52.9c21,0,38.2,17.1,38.2,38.2s-17.1,38.1-38.2,38.1
		S57.4,112,57.4,90.9"/>
	<path class="st0" d="M168.9,210l4-4.7c0.5-0.6,4.9-6,10.4-13.9c9.1-13.1,20.8-32.8,20.8-47.3c0-19.4-15.7-35.1-35.1-35.1
		c-19.3,0-35,15.7-35,35c0,9.6,5.3,22.9,15.8,39.5 M168.9,123.1c11.6,0,21.1,9.5,21.1,21.1c0,11.7-9.5,21-21.1,21
		c-11.7,0-21.1-9.5-21.1-21.1"/>
</g>
</svg>
